M48
; DRILL file {KiCad (5.1.5-0-10_14)} date 2020 June 03, Wednesday 20:16:56
; FORMAT={-:-/ absolute / inch / decimal}
; #@! TF.CreationDate,2020-06-03T20:16:56+02:00
; #@! TF.GenerationSoftware,Kicad,Pcbnew,(5.1.5-0-10_14)
; #@! TF.FileFunction,Plated,1,2,PTH
FMAT,2
INCH
T1C0.0118
T2C0.0157
T3C0.0197
T4C0.0394
T5C0.0512
T6C0.1260
%
G90
G05
T1
X3.6648Y-3.9976
X3.6648Y-4.0488
X3.6648Y-4.1
X3.6648Y-4.1512
X3.6648Y-4.2024
X3.716Y-3.9976
X3.716Y-4.0488
X3.716Y-4.1
X3.716Y-4.1512
X3.716Y-4.2024
X3.7672Y-3.9976
X3.7672Y-4.0488
X3.7672Y-4.1
X3.7672Y-4.1512
X3.7672Y-4.2024
X3.6648Y-1.7976
X3.6648Y-1.8488
X3.6648Y-1.9
X3.6648Y-1.9512
X3.6648Y-2.0024
X3.716Y-1.7976
X3.716Y-1.8488
X3.716Y-1.9
X3.716Y-1.9512
X3.716Y-2.0024
X3.7672Y-1.7976
X3.7672Y-1.8488
X3.7672Y-1.9
X3.7672Y-1.9512
X3.7672Y-2.0024
X3.6648Y-2.8976
X3.6648Y-2.9488
X3.6648Y-3.0
X3.6648Y-3.0512
X3.6648Y-3.1024
X3.716Y-2.8976
X3.716Y-2.9488
X3.716Y-3.0
X3.716Y-3.0512
X3.716Y-3.1024
X3.7672Y-2.8976
X3.7672Y-2.9488
X3.7672Y-3.0
X3.7672Y-3.0512
X3.7672Y-3.1024
X3.6648Y-9.4976
X3.6648Y-9.5488
X3.6648Y-9.6
X3.6648Y-9.6512
X3.6648Y-9.7023
X3.716Y-9.4976
X3.716Y-9.5488
X3.716Y-9.6
X3.716Y-9.6512
X3.716Y-9.7023
X3.7672Y-9.4976
X3.7672Y-9.5488
X3.7672Y-9.6
X3.7672Y-9.6512
X3.7672Y-9.7023
X3.6648Y-7.2976
X3.6648Y-7.3488
X3.6648Y-7.4
X3.6648Y-7.4512
X3.6648Y-7.5023
X3.716Y-7.2976
X3.716Y-7.3488
X3.716Y-7.4
X3.716Y-7.4512
X3.716Y-7.5023
X3.7672Y-7.2976
X3.7672Y-7.3488
X3.7672Y-7.4
X3.7672Y-7.4512
X3.7672Y-7.5023
X3.6648Y-6.1976
X3.6648Y-6.2488
X3.6648Y-6.3
X3.6648Y-6.3512
X3.6648Y-6.4023
X3.716Y-6.1976
X3.716Y-6.2488
X3.716Y-6.3
X3.716Y-6.3512
X3.716Y-6.4023
X3.7672Y-6.1976
X3.7672Y-6.2488
X3.7672Y-6.3
X3.7672Y-6.3512
X3.7672Y-6.4023
X8.0648Y-3.9976
X8.0648Y-4.0488
X8.0648Y-4.1
X8.0648Y-4.1512
X8.0648Y-4.2024
X8.116Y-3.9976
X8.116Y-4.0488
X8.116Y-4.1
X8.116Y-4.1512
X8.116Y-4.2024
X8.1672Y-3.9976
X8.1672Y-4.0488
X8.1672Y-4.1
X8.1672Y-4.1512
X8.1672Y-4.2024
X8.0648Y-5.0976
X8.0648Y-5.1488
X8.0648Y-5.2
X8.0648Y-5.2512
X8.0648Y-5.3023
X8.116Y-5.0976
X8.116Y-5.1488
X8.116Y-5.2
X8.116Y-5.2512
X8.116Y-5.3023
X8.1672Y-5.0976
X8.1672Y-5.1488
X8.1672Y-5.2
X8.1672Y-5.2512
X8.1672Y-5.3023
X8.0648Y-9.4976
X8.0648Y-9.5488
X8.0648Y-9.6
X8.0648Y-9.6512
X8.0648Y-9.7023
X8.116Y-9.4976
X8.116Y-9.5488
X8.116Y-9.6
X8.116Y-9.6512
X8.116Y-9.7023
X8.1672Y-9.4976
X8.1672Y-9.5488
X8.1672Y-9.6
X8.1672Y-9.6512
X8.1672Y-9.7023
X8.0648Y-8.3976
X8.0648Y-8.4488
X8.0648Y-8.5
X8.0648Y-8.5512
X8.0648Y-8.6023
X8.116Y-8.3976
X8.116Y-8.4488
X8.116Y-8.5
X8.116Y-8.5512
X8.116Y-8.6023
X8.1672Y-8.3976
X8.1672Y-8.4488
X8.1672Y-8.5
X8.1672Y-8.5512
X8.1672Y-8.6023
X8.0648Y-6.1976
X8.0648Y-6.2488
X8.0648Y-6.3
X8.0648Y-6.3512
X8.0648Y-6.4023
X8.116Y-6.1976
X8.116Y-6.2488
X8.116Y-6.3
X8.116Y-6.3512
X8.116Y-6.4023
X8.1672Y-6.1976
X8.1672Y-6.2488
X8.1672Y-6.3
X8.1672Y-6.3512
X8.1672Y-6.4023
X8.0648Y-1.7976
X8.0648Y-1.8488
X8.0648Y-1.9
X8.0648Y-1.9512
X8.0648Y-2.0024
X8.116Y-1.7976
X8.116Y-1.8488
X8.116Y-1.9
X8.116Y-1.9512
X8.116Y-2.0024
X8.1672Y-1.7976
X8.1672Y-1.8488
X8.1672Y-1.9
X8.1672Y-1.9512
X8.1672Y-2.0024
X3.6648Y-8.3976
X3.6648Y-8.4488
X3.6648Y-8.5
X3.6648Y-8.5512
X3.6648Y-8.6023
X3.716Y-8.3976
X3.716Y-8.4488
X3.716Y-8.5
X3.716Y-8.5512
X3.716Y-8.6023
X3.7672Y-8.3976
X3.7672Y-8.4488
X3.7672Y-8.5
X3.7672Y-8.5512
X3.7672Y-8.6023
X8.0648Y-7.2976
X8.0648Y-7.3488
X8.0648Y-7.4
X8.0648Y-7.4512
X8.0648Y-7.5023
X8.116Y-7.2976
X8.116Y-7.3488
X8.116Y-7.4
X8.116Y-7.4512
X8.116Y-7.5023
X8.1672Y-7.2976
X8.1672Y-7.3488
X8.1672Y-7.4
X8.1672Y-7.4512
X8.1672Y-7.5023
X3.6648Y-5.0976
X3.6648Y-5.1488
X3.6648Y-5.2
X3.6648Y-5.2512
X3.6648Y-5.3023
X3.716Y-5.0976
X3.716Y-5.1488
X3.716Y-5.2
X3.716Y-5.2512
X3.716Y-5.3023
X3.7672Y-5.0976
X3.7672Y-5.1488
X3.7672Y-5.2
X3.7672Y-5.2512
X3.7672Y-5.3023
X8.0648Y-2.8976
X8.0648Y-2.9488
X8.0648Y-3.0
X8.0648Y-3.0512
X8.0648Y-3.1024
X8.116Y-2.8976
X8.116Y-2.9488
X8.116Y-3.0
X8.116Y-3.0512
X8.116Y-3.1024
X8.1672Y-2.8976
X8.1672Y-2.9488
X8.1672Y-3.0
X8.1672Y-3.0512
X8.1672Y-3.1024
T2
X3.841Y-1.6525
X3.841Y-2.7525
X3.841Y-3.8525
X3.841Y-4.9525
X3.841Y-6.0525
X3.841Y-7.1525
X3.841Y-8.2525
X3.841Y-9.3525
X4.4355Y-3.5225
X4.65Y-2.5475
X4.65Y-3.43
X4.7305Y-3.43
X4.7955Y-2.1895
X5.9005Y-2.1195
X5.9005Y-3.1437
X5.9005Y-3.2175
X5.9005Y-4.2437
X5.9005Y-4.3175
X5.9005Y-5.3437
X5.9005Y-5.4175
X5.9005Y-6.4437
X5.9005Y-6.5175
X5.9005Y-7.5437
X5.9005Y-7.6175
X5.9005Y-8.6437
X5.9005Y-8.7175
X5.9005Y-9.7437
X6.0005Y-2.1195
X6.0005Y-3.1437
X6.0005Y-3.2175
X6.0005Y-4.2437
X6.0005Y-4.3175
X6.0005Y-5.3437
X6.0005Y-5.4175
X6.0005Y-6.4437
X6.0005Y-6.5175
X6.0005Y-7.5437
X6.0005Y-7.6175
X6.0005Y-8.6437
X6.0005Y-8.7175
X6.0005Y-9.7437
X6.0645Y-3.2425
X6.0655Y-2.0445
X6.7Y-2.0445
X6.7005Y-3.4825
X8.236Y-1.6525
X8.236Y-2.7525
X8.236Y-3.8525
X8.236Y-4.9525
X8.236Y-6.0525
X8.236Y-7.1525
X8.236Y-8.2525
X8.236Y-9.3525
X10.322Y-2.014
X10.322Y-3.114
X10.322Y-4.214
X10.322Y-5.314
X10.322Y-6.414
X10.322Y-7.514
X10.322Y-8.614
X10.322Y-8.914
T3
X4.531Y-3.5715
X10.5122Y-10.4488
X10.5399Y-10.382
X10.5399Y-10.5156
X10.6067Y-10.3543
X10.6067Y-10.5433
X10.6735Y-10.382
X10.6735Y-10.5156
X10.7012Y-10.4488
X10.5122Y-1.0787
X10.5399Y-1.0119
X10.5399Y-1.1456
X10.6067Y-0.9843
X10.6067Y-1.1732
X10.6735Y-1.0119
X10.6735Y-1.1456
X10.7012Y-1.0787
X1.1421Y-10.4488
X1.1698Y-10.382
X1.1698Y-10.5156
X1.2366Y-10.3543
X1.2366Y-10.5433
X1.3034Y-10.382
X1.3034Y-10.5156
X1.3311Y-10.4488
X1.1421Y-1.0787
X1.1698Y-1.0119
X1.1698Y-1.1456
X1.2366Y-0.9843
X1.2366Y-1.1732
X1.3034Y-1.0119
X1.3034Y-1.1456
X1.3311Y-1.0787
T4
X1.772Y-1.914
X1.772Y-3.014
X1.772Y-4.114
X1.772Y-5.214
X1.772Y-6.314
X1.772Y-7.414
X1.772Y-8.514
X1.772Y-9.614
X2.072Y-1.614
X2.072Y-2.714
X2.072Y-3.814
X2.072Y-4.914
X2.072Y-6.014
X2.072Y-7.114
X2.072Y-8.214
X2.072Y-9.314
X2.372Y-1.914
X2.372Y-3.014
X2.372Y-4.114
X2.372Y-5.214
X2.372Y-6.314
X2.372Y-7.414
X2.372Y-8.514
X2.372Y-9.614
X2.872Y-1.914
X2.872Y-3.014
X2.872Y-4.114
X2.872Y-5.214
X2.872Y-6.314
X2.872Y-7.414
X2.872Y-8.514
X2.872Y-9.614
X3.172Y-1.614
X3.172Y-2.714
X3.172Y-3.814
X3.172Y-4.914
X3.172Y-6.014
X3.172Y-7.114
X3.172Y-8.214
X3.172Y-9.314
X3.472Y-1.914
X3.472Y-3.014
X3.472Y-4.114
X3.472Y-5.214
X3.472Y-6.314
X3.472Y-7.414
X3.472Y-8.514
X3.472Y-9.614
X3.972Y-1.914
X3.972Y-3.014
X3.972Y-4.114
X3.972Y-5.214
X3.972Y-6.314
X3.972Y-7.414
X3.972Y-8.514
X3.972Y-9.614
X4.272Y-1.614
X4.272Y-2.714
X4.272Y-3.814
X4.272Y-4.914
X4.272Y-6.014
X4.272Y-7.114
X4.272Y-8.214
X4.272Y-9.314
X4.572Y-1.914
X4.572Y-3.014
X4.572Y-4.114
X4.572Y-5.214
X4.572Y-6.314
X4.572Y-7.414
X4.572Y-8.514
X4.572Y-9.614
X5.072Y-1.914
X5.072Y-3.014
X5.072Y-4.114
X5.072Y-5.214
X5.072Y-6.314
X5.072Y-7.414
X5.072Y-8.514
X5.072Y-9.614
X5.372Y-1.614
X5.372Y-2.714
X5.372Y-3.814
X5.372Y-4.914
X5.372Y-6.014
X5.372Y-7.114
X5.372Y-8.214
X5.372Y-9.314
X5.672Y-1.914
X5.672Y-3.014
X5.672Y-4.114
X5.672Y-5.214
X5.672Y-6.314
X5.672Y-7.414
X5.672Y-8.514
X5.672Y-9.614
X6.172Y-1.914
X6.172Y-3.014
X6.172Y-4.114
X6.172Y-5.214
X6.172Y-6.314
X6.172Y-7.414
X6.172Y-8.514
X6.172Y-9.614
X6.472Y-1.614
X6.472Y-2.714
X6.472Y-3.814
X6.472Y-4.914
X6.472Y-6.014
X6.472Y-7.114
X6.472Y-8.214
X6.472Y-9.314
X6.772Y-1.914
X6.772Y-3.014
X6.772Y-4.114
X6.772Y-5.214
X6.772Y-6.314
X6.772Y-7.414
X6.772Y-8.514
X6.772Y-9.614
X7.272Y-1.914
X7.272Y-3.014
X7.272Y-4.114
X7.272Y-5.214
X7.272Y-6.314
X7.272Y-7.414
X7.272Y-8.514
X7.272Y-9.614
X7.572Y-1.614
X7.572Y-2.714
X7.572Y-3.814
X7.572Y-4.914
X7.572Y-6.014
X7.572Y-7.114
X7.572Y-8.214
X7.572Y-9.314
X7.872Y-1.914
X7.872Y-3.014
X7.872Y-4.114
X7.872Y-5.214
X7.872Y-6.314
X7.872Y-7.414
X7.872Y-8.514
X7.872Y-9.614
X8.372Y-1.914
X8.372Y-3.014
X8.372Y-4.114
X8.372Y-5.214
X8.372Y-6.314
X8.372Y-7.414
X8.372Y-8.514
X8.372Y-9.614
X8.672Y-1.614
X8.672Y-2.714
X8.672Y-3.814
X8.672Y-4.914
X8.672Y-6.014
X8.672Y-7.114
X8.672Y-8.214
X8.672Y-9.314
X8.972Y-1.914
X8.972Y-3.014
X8.972Y-4.114
X8.972Y-5.214
X8.972Y-6.314
X8.972Y-7.414
X8.972Y-8.514
X8.972Y-9.614
X9.472Y-1.914
X9.472Y-3.014
X9.472Y-4.114
X9.472Y-5.214
X9.472Y-6.314
X9.472Y-7.414
X9.472Y-8.514
X9.472Y-9.614
X9.772Y-1.614
X9.772Y-2.714
X9.772Y-3.814
X9.772Y-4.914
X9.772Y-6.014
X9.772Y-7.114
X9.772Y-8.214
X9.772Y-9.314
X10.072Y-1.914
X10.072Y-3.014
X10.072Y-4.114
X10.072Y-5.214
X10.072Y-6.314
X10.072Y-7.414
X10.072Y-8.514
X10.072Y-9.614
X10.272Y-9.014
X10.472Y-2.414
X10.472Y-3.514
X10.472Y-4.614
X10.472Y-5.714
X10.472Y-6.814
X10.472Y-7.914
X10.472Y-9.014
T5
X5.921Y-1.3775
X5.921Y-1.5775
T6
X10.6067Y-10.4488
X10.6067Y-1.0787
X1.2366Y-10.4488
X1.2366Y-1.0787
T0
M30
