G04 #@! TF.GenerationSoftware,KiCad,Pcbnew,(5.1.5-0-10_14)*
G04 #@! TF.CreationDate,2020-06-03T20:16:53+02:00*
G04 #@! TF.ProjectId,rgb_led_cube,7267625f-6c65-4645-9f63-7562652e6b69,rev?*
G04 #@! TF.SameCoordinates,Original*
G04 #@! TF.FileFunction,Legend,Top*
G04 #@! TF.FilePolarity,Positive*
%FSLAX46Y46*%
G04 Gerber Fmt 4.6, Leading zero omitted, Abs format (unit mm)*
G04 Created by KiCad (PCBNEW (5.1.5-0-10_14)) date 2020-06-03 20:16:53*
%MOMM*%
%LPD*%
G04 APERTURE LIST*
%ADD10C,0.150000*%
%ADD11C,0.127000*%
%ADD12C,0.120000*%
%ADD13C,0.100000*%
G04 APERTURE END LIST*
D10*
X249774652Y-263777480D02*
X249774652Y-264491766D01*
X249727033Y-264634623D01*
X249631795Y-264729861D01*
X249488938Y-264777480D01*
X249393700Y-264777480D01*
X250727033Y-264777480D02*
X250250842Y-264777480D01*
X250250842Y-263777480D01*
X251631795Y-264682242D02*
X251584176Y-264729861D01*
X251441319Y-264777480D01*
X251346080Y-264777480D01*
X251203223Y-264729861D01*
X251107985Y-264634623D01*
X251060366Y-264539385D01*
X251012747Y-264348909D01*
X251012747Y-264206052D01*
X251060366Y-264015576D01*
X251107985Y-263920338D01*
X251203223Y-263825100D01*
X251346080Y-263777480D01*
X251441319Y-263777480D01*
X251584176Y-263825100D01*
X251631795Y-263872719D01*
X252346080Y-263777480D02*
X252346080Y-264491766D01*
X252298461Y-264634623D01*
X252203223Y-264729861D01*
X252060366Y-264777480D01*
X251965128Y-264777480D01*
X253298461Y-264777480D02*
X252822271Y-264777480D01*
X252822271Y-263777480D01*
X254203223Y-264682242D02*
X254155604Y-264729861D01*
X254012747Y-264777480D01*
X253917509Y-264777480D01*
X253774652Y-264729861D01*
X253679414Y-264634623D01*
X253631795Y-264539385D01*
X253584176Y-264348909D01*
X253584176Y-264206052D01*
X253631795Y-264015576D01*
X253679414Y-263920338D01*
X253774652Y-263825100D01*
X253917509Y-263777480D01*
X254012747Y-263777480D01*
X254155604Y-263825100D01*
X254203223Y-263872719D01*
X254917509Y-263777480D02*
X254917509Y-264491766D01*
X254869890Y-264634623D01*
X254774652Y-264729861D01*
X254631795Y-264777480D01*
X254536557Y-264777480D01*
X255869890Y-264777480D02*
X255393700Y-264777480D01*
X255393700Y-263777480D01*
X256774652Y-264682242D02*
X256727033Y-264729861D01*
X256584176Y-264777480D01*
X256488938Y-264777480D01*
X256346080Y-264729861D01*
X256250842Y-264634623D01*
X256203223Y-264539385D01*
X256155604Y-264348909D01*
X256155604Y-264206052D01*
X256203223Y-264015576D01*
X256250842Y-263920338D01*
X256346080Y-263825100D01*
X256488938Y-263777480D01*
X256584176Y-263777480D01*
X256727033Y-263825100D01*
X256774652Y-263872719D01*
X257488938Y-263777480D02*
X257488938Y-264491766D01*
X257441319Y-264634623D01*
X257346080Y-264729861D01*
X257203223Y-264777480D01*
X257107985Y-264777480D01*
X258441319Y-264777480D02*
X257965128Y-264777480D01*
X257965128Y-263777480D01*
X259346080Y-264682242D02*
X259298461Y-264729861D01*
X259155604Y-264777480D01*
X259060366Y-264777480D01*
X258917509Y-264729861D01*
X258822271Y-264634623D01*
X258774652Y-264539385D01*
X258727033Y-264348909D01*
X258727033Y-264206052D01*
X258774652Y-264015576D01*
X258822271Y-263920338D01*
X258917509Y-263825100D01*
X259060366Y-263777480D01*
X259155604Y-263777480D01*
X259298461Y-263825100D01*
X259346080Y-263872719D01*
X151523795Y-43886500D02*
X151428557Y-43838880D01*
X151285700Y-43838880D01*
X151142842Y-43886500D01*
X151047604Y-43981738D01*
X150999985Y-44076976D01*
X150952366Y-44267452D01*
X150952366Y-44410309D01*
X150999985Y-44600785D01*
X151047604Y-44696023D01*
X151142842Y-44791261D01*
X151285700Y-44838880D01*
X151380938Y-44838880D01*
X151523795Y-44791261D01*
X151571414Y-44743642D01*
X151571414Y-44410309D01*
X151380938Y-44410309D01*
X151999985Y-44838880D02*
X151999985Y-43838880D01*
X152571414Y-44838880D01*
X152571414Y-43838880D01*
X153047604Y-44838880D02*
X153047604Y-43838880D01*
X153285700Y-43838880D01*
X153428557Y-43886500D01*
X153523795Y-43981738D01*
X153571414Y-44076976D01*
X153619033Y-44267452D01*
X153619033Y-44410309D01*
X153571414Y-44600785D01*
X153523795Y-44696023D01*
X153428557Y-44791261D01*
X153285700Y-44838880D01*
X153047604Y-44838880D01*
X150949185Y-30894328D02*
X151711090Y-30894328D01*
X151330138Y-31275280D02*
X151330138Y-30513376D01*
X152663471Y-30275280D02*
X152187280Y-30275280D01*
X152139661Y-30751471D01*
X152187280Y-30703852D01*
X152282519Y-30656233D01*
X152520614Y-30656233D01*
X152615852Y-30703852D01*
X152663471Y-30751471D01*
X152711090Y-30846709D01*
X152711090Y-31084804D01*
X152663471Y-31180042D01*
X152615852Y-31227661D01*
X152520614Y-31275280D01*
X152282519Y-31275280D01*
X152187280Y-31227661D01*
X152139661Y-31180042D01*
X152996804Y-30275280D02*
X153330138Y-31275280D01*
X153663471Y-30275280D01*
D11*
X116412400Y-88254800D02*
X113762400Y-88254800D01*
X113762400Y-88254800D02*
X113762400Y-91754800D01*
X113762400Y-91754800D02*
X116412400Y-91754800D01*
X116412400Y-91754800D02*
X116412400Y-88254800D01*
D12*
X206146000Y-184449600D02*
X202496000Y-184449600D01*
X206146000Y-184449600D02*
X208346000Y-184449600D01*
X206146000Y-191469600D02*
X203946000Y-191469600D01*
X206146000Y-191469600D02*
X208346000Y-191469600D01*
D13*
X146493400Y-32330500D02*
X146493400Y-32830500D01*
X146493400Y-32330500D02*
X146993400Y-32330500D01*
X154313400Y-32340500D02*
X154313400Y-32840500D01*
X153813400Y-32340500D02*
X154313400Y-32340500D01*
X154293400Y-42718500D02*
X154293400Y-42218500D01*
X153793400Y-42718500D02*
X154293400Y-42718500D01*
X146493400Y-42718500D02*
X146993400Y-42718500D01*
X146493400Y-42718500D02*
X146493400Y-42218500D01*
D12*
X127878300Y-85499900D02*
X124768300Y-85499900D01*
X132958300Y-85499900D02*
X129398300Y-85499900D01*
X138038300Y-85499900D02*
X134478300Y-85499900D01*
X143118300Y-85499900D02*
X139558300Y-85499900D01*
X148198300Y-85499900D02*
X144638300Y-85499900D01*
X153278300Y-85499900D02*
X149718300Y-85499900D01*
X158358300Y-85499900D02*
X154798300Y-85499900D01*
X163438300Y-85499900D02*
X159878300Y-85499900D01*
X168518300Y-85499900D02*
X164958300Y-85499900D01*
X173598300Y-85499900D02*
X170038300Y-85499900D01*
X130418300Y-88159900D02*
X126858300Y-88159900D01*
X135498300Y-88159900D02*
X131938300Y-88159900D01*
X140578300Y-88159900D02*
X137018300Y-88159900D01*
X145658300Y-88159900D02*
X142098300Y-88159900D01*
X150738300Y-88159900D02*
X147178300Y-88159900D01*
X155818300Y-88159900D02*
X152258300Y-88159900D01*
X160898300Y-88159900D02*
X157338300Y-88159900D01*
X165978300Y-88159900D02*
X162418300Y-88159900D01*
X171058300Y-88159900D02*
X167498300Y-88159900D01*
X125338300Y-88159900D02*
X124768300Y-88159900D01*
X175688300Y-85499900D02*
X175118300Y-85499900D01*
X175118300Y-85499900D02*
X175118300Y-83979900D01*
X175688300Y-88159900D02*
X172578300Y-88159900D01*
X124768300Y-85499900D02*
X124768300Y-88159900D01*
X175688300Y-85499900D02*
X175688300Y-88159900D01*
X127878300Y-60099900D02*
X124768300Y-60099900D01*
X132958300Y-60099900D02*
X129398300Y-60099900D01*
X138038300Y-60099900D02*
X134478300Y-60099900D01*
X143118300Y-60099900D02*
X139558300Y-60099900D01*
X148198300Y-60099900D02*
X144638300Y-60099900D01*
X153278300Y-60099900D02*
X149718300Y-60099900D01*
X158358300Y-60099900D02*
X154798300Y-60099900D01*
X163438300Y-60099900D02*
X159878300Y-60099900D01*
X168518300Y-60099900D02*
X164958300Y-60099900D01*
X173598300Y-60099900D02*
X170038300Y-60099900D01*
X130418300Y-62759900D02*
X126858300Y-62759900D01*
X135498300Y-62759900D02*
X131938300Y-62759900D01*
X140578300Y-62759900D02*
X137018300Y-62759900D01*
X145658300Y-62759900D02*
X142098300Y-62759900D01*
X150738300Y-62759900D02*
X147178300Y-62759900D01*
X155818300Y-62759900D02*
X152258300Y-62759900D01*
X160898300Y-62759900D02*
X157338300Y-62759900D01*
X165978300Y-62759900D02*
X162418300Y-62759900D01*
X171058300Y-62759900D02*
X167498300Y-62759900D01*
X125338300Y-62759900D02*
X124768300Y-62759900D01*
X175688300Y-60099900D02*
X175118300Y-60099900D01*
X175118300Y-60099900D02*
X175118300Y-58579900D01*
X175688300Y-62759900D02*
X172578300Y-62759900D01*
X124768300Y-60099900D02*
X124768300Y-62759900D01*
X175688300Y-60099900D02*
X175688300Y-62759900D01*
X206146000Y-79710000D02*
X208346000Y-79710000D01*
X206146000Y-79710000D02*
X203946000Y-79710000D01*
X206146000Y-72690000D02*
X208346000Y-72690000D01*
X206146000Y-72690000D02*
X202496000Y-72690000D01*
X113323300Y-85006548D02*
X113323300Y-85529052D01*
X114743300Y-85006548D02*
X114743300Y-85529052D01*
X206146000Y-247349600D02*
X208346000Y-247349600D01*
X206146000Y-247349600D02*
X203946000Y-247349600D01*
X206146000Y-240329600D02*
X208346000Y-240329600D01*
X206146000Y-240329600D02*
X202496000Y-240329600D01*
X94386400Y-247349600D02*
X96586400Y-247349600D01*
X94386400Y-247349600D02*
X92186400Y-247349600D01*
X94386400Y-240329600D02*
X96586400Y-240329600D01*
X94386400Y-240329600D02*
X90736400Y-240329600D01*
X206146000Y-219409600D02*
X208346000Y-219409600D01*
X206146000Y-219409600D02*
X203946000Y-219409600D01*
X206146000Y-212389600D02*
X208346000Y-212389600D01*
X206146000Y-212389600D02*
X202496000Y-212389600D01*
X94386400Y-219409600D02*
X96586400Y-219409600D01*
X94386400Y-219409600D02*
X92186400Y-219409600D01*
X94386400Y-212389600D02*
X96586400Y-212389600D01*
X94386400Y-212389600D02*
X90736400Y-212389600D01*
X94386400Y-191469600D02*
X96586400Y-191469600D01*
X94386400Y-191469600D02*
X92186400Y-191469600D01*
X94386400Y-184449600D02*
X96586400Y-184449600D01*
X94386400Y-184449600D02*
X90736400Y-184449600D01*
X206146000Y-163529600D02*
X208346000Y-163529600D01*
X206146000Y-163529600D02*
X203946000Y-163529600D01*
X206146000Y-156509600D02*
X208346000Y-156509600D01*
X206146000Y-156509600D02*
X202496000Y-156509600D01*
X94386400Y-163529600D02*
X96586400Y-163529600D01*
X94386400Y-163529600D02*
X92186400Y-163529600D01*
X94386400Y-156509600D02*
X96586400Y-156509600D01*
X94386400Y-156509600D02*
X90736400Y-156509600D01*
X206146000Y-135589600D02*
X208346000Y-135589600D01*
X206146000Y-135589600D02*
X203946000Y-135589600D01*
X206146000Y-128569600D02*
X208346000Y-128569600D01*
X206146000Y-128569600D02*
X202496000Y-128569600D01*
X94386400Y-135589600D02*
X96586400Y-135589600D01*
X94386400Y-135589600D02*
X92186400Y-135589600D01*
X94386400Y-128569600D02*
X96586400Y-128569600D01*
X94386400Y-128569600D02*
X90736400Y-128569600D01*
X206146000Y-107650000D02*
X208346000Y-107650000D01*
X206146000Y-107650000D02*
X203946000Y-107650000D01*
X206146000Y-100630000D02*
X208346000Y-100630000D01*
X206146000Y-100630000D02*
X202496000Y-100630000D01*
X94386400Y-107650000D02*
X96586400Y-107650000D01*
X94386400Y-107650000D02*
X92186400Y-107650000D01*
X94386400Y-100630000D02*
X96586400Y-100630000D01*
X94386400Y-100630000D02*
X90736400Y-100630000D01*
X94386400Y-79710000D02*
X96586400Y-79710000D01*
X94386400Y-79710000D02*
X92186400Y-79710000D01*
X94386400Y-72690000D02*
X96586400Y-72690000D01*
X94386400Y-72690000D02*
X90736400Y-72690000D01*
X206146000Y-51770000D02*
X208346000Y-51770000D01*
X206146000Y-51770000D02*
X203946000Y-51770000D01*
X206146000Y-44750000D02*
X208346000Y-44750000D01*
X206146000Y-44750000D02*
X202496000Y-44750000D01*
X94386400Y-51770000D02*
X96586400Y-51770000D01*
X94386400Y-51770000D02*
X92186400Y-51770000D01*
X94386400Y-44750000D02*
X96586400Y-44750000D01*
X94386400Y-44750000D02*
X90736400Y-44750000D01*
X267569000Y-243944000D02*
X267569000Y-245404000D01*
X264409000Y-243944000D02*
X264409000Y-246104000D01*
X264409000Y-243944000D02*
X265339000Y-243944000D01*
X267569000Y-243944000D02*
X266639000Y-243944000D01*
X267569000Y-235308000D02*
X267569000Y-236768000D01*
X264409000Y-235308000D02*
X264409000Y-237468000D01*
X264409000Y-235308000D02*
X265339000Y-235308000D01*
X267569000Y-235308000D02*
X266639000Y-235308000D01*
X264409000Y-214222000D02*
X264409000Y-212762000D01*
X267569000Y-214222000D02*
X267569000Y-212062000D01*
X267569000Y-214222000D02*
X266639000Y-214222000D01*
X264409000Y-214222000D02*
X265339000Y-214222000D01*
X264409000Y-222858000D02*
X264409000Y-221398000D01*
X267569000Y-222858000D02*
X267569000Y-220698000D01*
X267569000Y-222858000D02*
X266639000Y-222858000D01*
X264409000Y-222858000D02*
X265339000Y-222858000D01*
X264409000Y-186282000D02*
X264409000Y-184822000D01*
X267569000Y-186282000D02*
X267569000Y-184122000D01*
X267569000Y-186282000D02*
X266639000Y-186282000D01*
X264409000Y-186282000D02*
X265339000Y-186282000D01*
X264409000Y-194918000D02*
X264409000Y-193458000D01*
X267569000Y-194918000D02*
X267569000Y-192758000D01*
X267569000Y-194918000D02*
X266639000Y-194918000D01*
X264409000Y-194918000D02*
X265339000Y-194918000D01*
X264409000Y-158342000D02*
X264409000Y-156882000D01*
X267569000Y-158342000D02*
X267569000Y-156182000D01*
X267569000Y-158342000D02*
X266639000Y-158342000D01*
X264409000Y-158342000D02*
X265339000Y-158342000D01*
X264409000Y-166978000D02*
X264409000Y-165518000D01*
X267569000Y-166978000D02*
X267569000Y-164818000D01*
X267569000Y-166978000D02*
X266639000Y-166978000D01*
X264409000Y-166978000D02*
X265339000Y-166978000D01*
X264409000Y-130402000D02*
X264409000Y-128942000D01*
X267569000Y-130402000D02*
X267569000Y-128242000D01*
X267569000Y-130402000D02*
X266639000Y-130402000D01*
X264409000Y-130402000D02*
X265339000Y-130402000D01*
X264409000Y-139038000D02*
X264409000Y-137578000D01*
X267569000Y-139038000D02*
X267569000Y-136878000D01*
X267569000Y-139038000D02*
X266639000Y-139038000D01*
X264409000Y-139038000D02*
X265339000Y-139038000D01*
X264409000Y-102462000D02*
X264409000Y-101002000D01*
X267569000Y-102462000D02*
X267569000Y-100302000D01*
X267569000Y-102462000D02*
X266639000Y-102462000D01*
X264409000Y-102462000D02*
X265339000Y-102462000D01*
X264409000Y-111098000D02*
X264409000Y-109638000D01*
X267569000Y-111098000D02*
X267569000Y-108938000D01*
X267569000Y-111098000D02*
X266639000Y-111098000D01*
X264409000Y-111098000D02*
X265339000Y-111098000D01*
X264409000Y-74521600D02*
X264409000Y-73061600D01*
X267569000Y-74521600D02*
X267569000Y-72361600D01*
X267569000Y-74521600D02*
X266639000Y-74521600D01*
X264409000Y-74521600D02*
X265339000Y-74521600D01*
X264409000Y-83157600D02*
X264409000Y-81697600D01*
X267569000Y-83157600D02*
X267569000Y-80997600D01*
X267569000Y-83157600D02*
X266639000Y-83157600D01*
X264409000Y-83157600D02*
X265339000Y-83157600D01*
X264409000Y-46581600D02*
X264409000Y-45121600D01*
X267569000Y-46581600D02*
X267569000Y-44421600D01*
X267569000Y-46581600D02*
X266639000Y-46581600D01*
X264409000Y-46581600D02*
X265339000Y-46581600D01*
X264409000Y-55217600D02*
X264409000Y-53757600D01*
X267569000Y-55217600D02*
X267569000Y-53057600D01*
X267569000Y-55217600D02*
X266639000Y-55217600D01*
X264409000Y-55217600D02*
X265339000Y-55217600D01*
X204350252Y-239749600D02*
X203827748Y-239749600D01*
X204350252Y-238329600D02*
X203827748Y-238329600D01*
X92590252Y-239749600D02*
X92067748Y-239749600D01*
X92590252Y-238329600D02*
X92067748Y-238329600D01*
X204350252Y-211809600D02*
X203827748Y-211809600D01*
X204350252Y-210389600D02*
X203827748Y-210389600D01*
X92590252Y-211809600D02*
X92067748Y-211809600D01*
X92590252Y-210389600D02*
X92067748Y-210389600D01*
X264263000Y-240124748D02*
X264263000Y-240647252D01*
X265683000Y-240124748D02*
X265683000Y-240647252D01*
X266549000Y-240124748D02*
X266549000Y-240647252D01*
X267969000Y-240124748D02*
X267969000Y-240647252D01*
X265727748Y-248716000D02*
X266250252Y-248716000D01*
X265727748Y-247296000D02*
X266250252Y-247296000D01*
X267715000Y-218041252D02*
X267715000Y-217518748D01*
X266295000Y-218041252D02*
X266295000Y-217518748D01*
X265429000Y-218041252D02*
X265429000Y-217518748D01*
X264009000Y-218041252D02*
X264009000Y-217518748D01*
X266250252Y-209450000D02*
X265727748Y-209450000D01*
X266250252Y-210870000D02*
X265727748Y-210870000D01*
X204350252Y-183869600D02*
X203827748Y-183869600D01*
X204350252Y-182449600D02*
X203827748Y-182449600D01*
X92590252Y-183869600D02*
X92067748Y-183869600D01*
X92590252Y-182449600D02*
X92067748Y-182449600D01*
X204350252Y-155929600D02*
X203827748Y-155929600D01*
X204350252Y-154509600D02*
X203827748Y-154509600D01*
X92590252Y-155929600D02*
X92067748Y-155929600D01*
X92590252Y-154509600D02*
X92067748Y-154509600D01*
X267715000Y-190101252D02*
X267715000Y-189578748D01*
X266295000Y-190101252D02*
X266295000Y-189578748D01*
X265429000Y-190101252D02*
X265429000Y-189578748D01*
X264009000Y-190101252D02*
X264009000Y-189578748D01*
X266250252Y-181510000D02*
X265727748Y-181510000D01*
X266250252Y-182930000D02*
X265727748Y-182930000D01*
X267715000Y-162161252D02*
X267715000Y-161638748D01*
X266295000Y-162161252D02*
X266295000Y-161638748D01*
X265429000Y-162161252D02*
X265429000Y-161638748D01*
X264009000Y-162161252D02*
X264009000Y-161638748D01*
X266250252Y-153570000D02*
X265727748Y-153570000D01*
X266250252Y-154990000D02*
X265727748Y-154990000D01*
X267715000Y-134221252D02*
X267715000Y-133698748D01*
X266295000Y-134221252D02*
X266295000Y-133698748D01*
X265429000Y-134221252D02*
X265429000Y-133698748D01*
X264009000Y-134221252D02*
X264009000Y-133698748D01*
X266250252Y-125630000D02*
X265727748Y-125630000D01*
X266250252Y-127050000D02*
X265727748Y-127050000D01*
X204350252Y-127989600D02*
X203827748Y-127989600D01*
X204350252Y-126569600D02*
X203827748Y-126569600D01*
X92590252Y-127989600D02*
X92067748Y-127989600D01*
X92590252Y-126569600D02*
X92067748Y-126569600D01*
X204350252Y-100049400D02*
X203827748Y-100049400D01*
X204350252Y-98629400D02*
X203827748Y-98629400D01*
X92590252Y-100049400D02*
X92067748Y-100049400D01*
X92590252Y-98629400D02*
X92067748Y-98629400D01*
X267715000Y-106281252D02*
X267715000Y-105758748D01*
X266295000Y-106281252D02*
X266295000Y-105758748D01*
X265429000Y-106281252D02*
X265429000Y-105758748D01*
X264009000Y-106281252D02*
X264009000Y-105758748D01*
X266250252Y-97689600D02*
X265727748Y-97689600D01*
X266250252Y-99109600D02*
X265727748Y-99109600D01*
X267715000Y-78340852D02*
X267715000Y-77818348D01*
X266295000Y-78340852D02*
X266295000Y-77818348D01*
X265429000Y-78340852D02*
X265429000Y-77818348D01*
X264009000Y-78340852D02*
X264009000Y-77818348D01*
X266250252Y-69749600D02*
X265727748Y-69749600D01*
X266250252Y-71169600D02*
X265727748Y-71169600D01*
X267715000Y-50400852D02*
X267715000Y-49878348D01*
X266295000Y-50400852D02*
X266295000Y-49878348D01*
X265429000Y-50400852D02*
X265429000Y-49878348D01*
X264009000Y-50400852D02*
X264009000Y-49878348D01*
X266250252Y-41809600D02*
X265727748Y-41809600D01*
X266250252Y-43229600D02*
X265727748Y-43229600D01*
X204350252Y-70689400D02*
X203827748Y-70689400D01*
X204350252Y-72109400D02*
X203827748Y-72109400D01*
X92590252Y-70689400D02*
X92067748Y-70689400D01*
X92590252Y-72109400D02*
X92067748Y-72109400D01*
X204350252Y-42749400D02*
X203827748Y-42749400D01*
X204350252Y-44169400D02*
X203827748Y-44169400D01*
X92590252Y-42749400D02*
X92067748Y-42749400D01*
X92590252Y-44169400D02*
X92067748Y-44169400D01*
X208465252Y-239749600D02*
X207942748Y-239749600D01*
X208465252Y-238329600D02*
X207942748Y-238329600D01*
X96705052Y-239749600D02*
X96182548Y-239749600D01*
X96705052Y-238329600D02*
X96182548Y-238329600D01*
X208465252Y-211809600D02*
X207942748Y-211809600D01*
X208465252Y-210389600D02*
X207942748Y-210389600D01*
X96705052Y-211809600D02*
X96182548Y-211809600D01*
X96705052Y-210389600D02*
X96182548Y-210389600D01*
X208465252Y-183869600D02*
X207942748Y-183869600D01*
X208465252Y-182449600D02*
X207942748Y-182449600D01*
X96705052Y-183869600D02*
X96182548Y-183869600D01*
X96705052Y-182449600D02*
X96182548Y-182449600D01*
X208465252Y-155929600D02*
X207942748Y-155929600D01*
X208465252Y-154509600D02*
X207942748Y-154509600D01*
X96705052Y-155929600D02*
X96182548Y-155929600D01*
X96705052Y-154509600D02*
X96182548Y-154509600D01*
X208465252Y-127989600D02*
X207942748Y-127989600D01*
X208465252Y-126569600D02*
X207942748Y-126569600D01*
X96705052Y-127989600D02*
X96182548Y-127989600D01*
X96705052Y-126569600D02*
X96182548Y-126569600D01*
X208465252Y-100049400D02*
X207942748Y-100049400D01*
X208465252Y-98629400D02*
X207942748Y-98629400D01*
X96705052Y-100049400D02*
X96182548Y-100049400D01*
X96705052Y-98629400D02*
X96182548Y-98629400D01*
X208465252Y-72109400D02*
X207942748Y-72109400D01*
X208465252Y-70689400D02*
X207942748Y-70689400D01*
X96705052Y-72109400D02*
X96182548Y-72109400D01*
X96705052Y-70689400D02*
X96182548Y-70689400D01*
X208465252Y-44169400D02*
X207942748Y-44169400D01*
X208465252Y-42749400D02*
X207942748Y-42749400D01*
X96705052Y-44169400D02*
X96182548Y-44169400D01*
X96705052Y-42749400D02*
X96182548Y-42749400D01*
X118864748Y-87923300D02*
X119387252Y-87923300D01*
X118864748Y-89343300D02*
X119387252Y-89343300D01*
D10*
X45318523Y-51735380D02*
X44985190Y-51259190D01*
X44747095Y-51735380D02*
X44747095Y-50735380D01*
X45128047Y-50735380D01*
X45223285Y-50783000D01*
X45270904Y-50830619D01*
X45318523Y-50925857D01*
X45318523Y-51068714D01*
X45270904Y-51163952D01*
X45223285Y-51211571D01*
X45128047Y-51259190D01*
X44747095Y-51259190D01*
X52890904Y-43061400D02*
X52795666Y-43013780D01*
X52652809Y-43013780D01*
X52509952Y-43061400D01*
X52414714Y-43156638D01*
X52367095Y-43251876D01*
X52319476Y-43442352D01*
X52319476Y-43585209D01*
X52367095Y-43775685D01*
X52414714Y-43870923D01*
X52509952Y-43966161D01*
X52652809Y-44013780D01*
X52748047Y-44013780D01*
X52890904Y-43966161D01*
X52938523Y-43918542D01*
X52938523Y-43585209D01*
X52748047Y-43585209D01*
X60320428Y-51211571D02*
X60463285Y-51259190D01*
X60510904Y-51306809D01*
X60558523Y-51402047D01*
X60558523Y-51544904D01*
X60510904Y-51640142D01*
X60463285Y-51687761D01*
X60368047Y-51735380D01*
X59987095Y-51735380D01*
X59987095Y-50735380D01*
X60320428Y-50735380D01*
X60415666Y-50783000D01*
X60463285Y-50830619D01*
X60510904Y-50925857D01*
X60510904Y-51021095D01*
X60463285Y-51116333D01*
X60415666Y-51163952D01*
X60320428Y-51211571D01*
X59987095Y-51211571D01*
X73258523Y-51735380D02*
X72925190Y-51259190D01*
X72687095Y-51735380D02*
X72687095Y-50735380D01*
X73068047Y-50735380D01*
X73163285Y-50783000D01*
X73210904Y-50830619D01*
X73258523Y-50925857D01*
X73258523Y-51068714D01*
X73210904Y-51163952D01*
X73163285Y-51211571D01*
X73068047Y-51259190D01*
X72687095Y-51259190D01*
X80830904Y-43061400D02*
X80735666Y-43013780D01*
X80592809Y-43013780D01*
X80449952Y-43061400D01*
X80354714Y-43156638D01*
X80307095Y-43251876D01*
X80259476Y-43442352D01*
X80259476Y-43585209D01*
X80307095Y-43775685D01*
X80354714Y-43870923D01*
X80449952Y-43966161D01*
X80592809Y-44013780D01*
X80688047Y-44013780D01*
X80830904Y-43966161D01*
X80878523Y-43918542D01*
X80878523Y-43585209D01*
X80688047Y-43585209D01*
X88260428Y-51211571D02*
X88403285Y-51259190D01*
X88450904Y-51306809D01*
X88498523Y-51402047D01*
X88498523Y-51544904D01*
X88450904Y-51640142D01*
X88403285Y-51687761D01*
X88308047Y-51735380D01*
X87927095Y-51735380D01*
X87927095Y-50735380D01*
X88260428Y-50735380D01*
X88355666Y-50783000D01*
X88403285Y-50830619D01*
X88450904Y-50925857D01*
X88450904Y-51021095D01*
X88403285Y-51116333D01*
X88355666Y-51163952D01*
X88260428Y-51211571D01*
X87927095Y-51211571D01*
X144140428Y-51211571D02*
X144283285Y-51259190D01*
X144330904Y-51306809D01*
X144378523Y-51402047D01*
X144378523Y-51544904D01*
X144330904Y-51640142D01*
X144283285Y-51687761D01*
X144188047Y-51735380D01*
X143807095Y-51735380D01*
X143807095Y-50735380D01*
X144140428Y-50735380D01*
X144235666Y-50783000D01*
X144283285Y-50830619D01*
X144330904Y-50925857D01*
X144330904Y-51021095D01*
X144283285Y-51116333D01*
X144235666Y-51163952D01*
X144140428Y-51211571D01*
X143807095Y-51211571D01*
X136710904Y-43061400D02*
X136615666Y-43013780D01*
X136472809Y-43013780D01*
X136329952Y-43061400D01*
X136234714Y-43156638D01*
X136187095Y-43251876D01*
X136139476Y-43442352D01*
X136139476Y-43585209D01*
X136187095Y-43775685D01*
X136234714Y-43870923D01*
X136329952Y-43966161D01*
X136472809Y-44013780D01*
X136568047Y-44013780D01*
X136710904Y-43966161D01*
X136758523Y-43918542D01*
X136758523Y-43585209D01*
X136568047Y-43585209D01*
X129138523Y-51735380D02*
X128805190Y-51259190D01*
X128567095Y-51735380D02*
X128567095Y-50735380D01*
X128948047Y-50735380D01*
X129043285Y-50783000D01*
X129090904Y-50830619D01*
X129138523Y-50925857D01*
X129138523Y-51068714D01*
X129090904Y-51163952D01*
X129043285Y-51211571D01*
X128948047Y-51259190D01*
X128567095Y-51259190D01*
X101198523Y-51735380D02*
X100865190Y-51259190D01*
X100627095Y-51735380D02*
X100627095Y-50735380D01*
X101008047Y-50735380D01*
X101103285Y-50783000D01*
X101150904Y-50830619D01*
X101198523Y-50925857D01*
X101198523Y-51068714D01*
X101150904Y-51163952D01*
X101103285Y-51211571D01*
X101008047Y-51259190D01*
X100627095Y-51259190D01*
X108770904Y-43061400D02*
X108675666Y-43013780D01*
X108532809Y-43013780D01*
X108389952Y-43061400D01*
X108294714Y-43156638D01*
X108247095Y-43251876D01*
X108199476Y-43442352D01*
X108199476Y-43585209D01*
X108247095Y-43775685D01*
X108294714Y-43870923D01*
X108389952Y-43966161D01*
X108532809Y-44013780D01*
X108628047Y-44013780D01*
X108770904Y-43966161D01*
X108818523Y-43918542D01*
X108818523Y-43585209D01*
X108628047Y-43585209D01*
X116200428Y-51211571D02*
X116343285Y-51259190D01*
X116390904Y-51306809D01*
X116438523Y-51402047D01*
X116438523Y-51544904D01*
X116390904Y-51640142D01*
X116343285Y-51687761D01*
X116248047Y-51735380D01*
X115867095Y-51735380D01*
X115867095Y-50735380D01*
X116200428Y-50735380D01*
X116295666Y-50783000D01*
X116343285Y-50830619D01*
X116390904Y-50925857D01*
X116390904Y-51021095D01*
X116343285Y-51116333D01*
X116295666Y-51163952D01*
X116200428Y-51211571D01*
X115867095Y-51211571D01*
X227960428Y-51211571D02*
X228103285Y-51259190D01*
X228150904Y-51306809D01*
X228198523Y-51402047D01*
X228198523Y-51544904D01*
X228150904Y-51640142D01*
X228103285Y-51687761D01*
X228008047Y-51735380D01*
X227627095Y-51735380D01*
X227627095Y-50735380D01*
X227960428Y-50735380D01*
X228055666Y-50783000D01*
X228103285Y-50830619D01*
X228150904Y-50925857D01*
X228150904Y-51021095D01*
X228103285Y-51116333D01*
X228055666Y-51163952D01*
X227960428Y-51211571D01*
X227627095Y-51211571D01*
X248470904Y-43061400D02*
X248375666Y-43013780D01*
X248232809Y-43013780D01*
X248089952Y-43061400D01*
X247994714Y-43156638D01*
X247947095Y-43251876D01*
X247899476Y-43442352D01*
X247899476Y-43585209D01*
X247947095Y-43775685D01*
X247994714Y-43870923D01*
X248089952Y-43966161D01*
X248232809Y-44013780D01*
X248328047Y-44013780D01*
X248470904Y-43966161D01*
X248518523Y-43918542D01*
X248518523Y-43585209D01*
X248328047Y-43585209D01*
X212958523Y-51735380D02*
X212625190Y-51259190D01*
X212387095Y-51735380D02*
X212387095Y-50735380D01*
X212768047Y-50735380D01*
X212863285Y-50783000D01*
X212910904Y-50830619D01*
X212958523Y-50925857D01*
X212958523Y-51068714D01*
X212910904Y-51163952D01*
X212863285Y-51211571D01*
X212768047Y-51259190D01*
X212387095Y-51259190D01*
X255900428Y-51211571D02*
X256043285Y-51259190D01*
X256090904Y-51306809D01*
X256138523Y-51402047D01*
X256138523Y-51544904D01*
X256090904Y-51640142D01*
X256043285Y-51687761D01*
X255948047Y-51735380D01*
X255567095Y-51735380D01*
X255567095Y-50735380D01*
X255900428Y-50735380D01*
X255995666Y-50783000D01*
X256043285Y-50830619D01*
X256090904Y-50925857D01*
X256090904Y-51021095D01*
X256043285Y-51116333D01*
X255995666Y-51163952D01*
X255900428Y-51211571D01*
X255567095Y-51211571D01*
X220530904Y-43061400D02*
X220435666Y-43013780D01*
X220292809Y-43013780D01*
X220149952Y-43061400D01*
X220054714Y-43156638D01*
X220007095Y-43251876D01*
X219959476Y-43442352D01*
X219959476Y-43585209D01*
X220007095Y-43775685D01*
X220054714Y-43870923D01*
X220149952Y-43966161D01*
X220292809Y-44013780D01*
X220388047Y-44013780D01*
X220530904Y-43966161D01*
X220578523Y-43918542D01*
X220578523Y-43585209D01*
X220388047Y-43585209D01*
X240898523Y-51735380D02*
X240565190Y-51259190D01*
X240327095Y-51735380D02*
X240327095Y-50735380D01*
X240708047Y-50735380D01*
X240803285Y-50783000D01*
X240850904Y-50830619D01*
X240898523Y-50925857D01*
X240898523Y-51068714D01*
X240850904Y-51163952D01*
X240803285Y-51211571D01*
X240708047Y-51259190D01*
X240327095Y-51259190D01*
X200020428Y-51211571D02*
X200163285Y-51259190D01*
X200210904Y-51306809D01*
X200258523Y-51402047D01*
X200258523Y-51544904D01*
X200210904Y-51640142D01*
X200163285Y-51687761D01*
X200068047Y-51735380D01*
X199687095Y-51735380D01*
X199687095Y-50735380D01*
X200020428Y-50735380D01*
X200115666Y-50783000D01*
X200163285Y-50830619D01*
X200210904Y-50925857D01*
X200210904Y-51021095D01*
X200163285Y-51116333D01*
X200115666Y-51163952D01*
X200020428Y-51211571D01*
X199687095Y-51211571D01*
X192590904Y-43061400D02*
X192495666Y-43013780D01*
X192352809Y-43013780D01*
X192209952Y-43061400D01*
X192114714Y-43156638D01*
X192067095Y-43251876D01*
X192019476Y-43442352D01*
X192019476Y-43585209D01*
X192067095Y-43775685D01*
X192114714Y-43870923D01*
X192209952Y-43966161D01*
X192352809Y-44013780D01*
X192448047Y-44013780D01*
X192590904Y-43966161D01*
X192638523Y-43918542D01*
X192638523Y-43585209D01*
X192448047Y-43585209D01*
X185018523Y-51735380D02*
X184685190Y-51259190D01*
X184447095Y-51735380D02*
X184447095Y-50735380D01*
X184828047Y-50735380D01*
X184923285Y-50783000D01*
X184970904Y-50830619D01*
X185018523Y-50925857D01*
X185018523Y-51068714D01*
X184970904Y-51163952D01*
X184923285Y-51211571D01*
X184828047Y-51259190D01*
X184447095Y-51259190D01*
X157078523Y-51735380D02*
X156745190Y-51259190D01*
X156507095Y-51735380D02*
X156507095Y-50735380D01*
X156888047Y-50735380D01*
X156983285Y-50783000D01*
X157030904Y-50830619D01*
X157078523Y-50925857D01*
X157078523Y-51068714D01*
X157030904Y-51163952D01*
X156983285Y-51211571D01*
X156888047Y-51259190D01*
X156507095Y-51259190D01*
X164650904Y-43061400D02*
X164555666Y-43013780D01*
X164412809Y-43013780D01*
X164269952Y-43061400D01*
X164174714Y-43156638D01*
X164127095Y-43251876D01*
X164079476Y-43442352D01*
X164079476Y-43585209D01*
X164127095Y-43775685D01*
X164174714Y-43870923D01*
X164269952Y-43966161D01*
X164412809Y-44013780D01*
X164508047Y-44013780D01*
X164650904Y-43966161D01*
X164698523Y-43918542D01*
X164698523Y-43585209D01*
X164508047Y-43585209D01*
X172080428Y-51211571D02*
X172223285Y-51259190D01*
X172270904Y-51306809D01*
X172318523Y-51402047D01*
X172318523Y-51544904D01*
X172270904Y-51640142D01*
X172223285Y-51687761D01*
X172128047Y-51735380D01*
X171747095Y-51735380D01*
X171747095Y-50735380D01*
X172080428Y-50735380D01*
X172175666Y-50783000D01*
X172223285Y-50830619D01*
X172270904Y-50925857D01*
X172270904Y-51021095D01*
X172223285Y-51116333D01*
X172175666Y-51163952D01*
X172080428Y-51211571D01*
X171747095Y-51211571D01*
X116200428Y-79151571D02*
X116343285Y-79199190D01*
X116390904Y-79246809D01*
X116438523Y-79342047D01*
X116438523Y-79484904D01*
X116390904Y-79580142D01*
X116343285Y-79627761D01*
X116248047Y-79675380D01*
X115867095Y-79675380D01*
X115867095Y-78675380D01*
X116200428Y-78675380D01*
X116295666Y-78723000D01*
X116343285Y-78770619D01*
X116390904Y-78865857D01*
X116390904Y-78961095D01*
X116343285Y-79056333D01*
X116295666Y-79103952D01*
X116200428Y-79151571D01*
X115867095Y-79151571D01*
X136710904Y-71001400D02*
X136615666Y-70953780D01*
X136472809Y-70953780D01*
X136329952Y-71001400D01*
X136234714Y-71096638D01*
X136187095Y-71191876D01*
X136139476Y-71382352D01*
X136139476Y-71525209D01*
X136187095Y-71715685D01*
X136234714Y-71810923D01*
X136329952Y-71906161D01*
X136472809Y-71953780D01*
X136568047Y-71953780D01*
X136710904Y-71906161D01*
X136758523Y-71858542D01*
X136758523Y-71525209D01*
X136568047Y-71525209D01*
X101198523Y-79675380D02*
X100865190Y-79199190D01*
X100627095Y-79675380D02*
X100627095Y-78675380D01*
X101008047Y-78675380D01*
X101103285Y-78723000D01*
X101150904Y-78770619D01*
X101198523Y-78865857D01*
X101198523Y-79008714D01*
X101150904Y-79103952D01*
X101103285Y-79151571D01*
X101008047Y-79199190D01*
X100627095Y-79199190D01*
X144140428Y-79151571D02*
X144283285Y-79199190D01*
X144330904Y-79246809D01*
X144378523Y-79342047D01*
X144378523Y-79484904D01*
X144330904Y-79580142D01*
X144283285Y-79627761D01*
X144188047Y-79675380D01*
X143807095Y-79675380D01*
X143807095Y-78675380D01*
X144140428Y-78675380D01*
X144235666Y-78723000D01*
X144283285Y-78770619D01*
X144330904Y-78865857D01*
X144330904Y-78961095D01*
X144283285Y-79056333D01*
X144235666Y-79103952D01*
X144140428Y-79151571D01*
X143807095Y-79151571D01*
X108770904Y-71001400D02*
X108675666Y-70953780D01*
X108532809Y-70953780D01*
X108389952Y-71001400D01*
X108294714Y-71096638D01*
X108247095Y-71191876D01*
X108199476Y-71382352D01*
X108199476Y-71525209D01*
X108247095Y-71715685D01*
X108294714Y-71810923D01*
X108389952Y-71906161D01*
X108532809Y-71953780D01*
X108628047Y-71953780D01*
X108770904Y-71906161D01*
X108818523Y-71858542D01*
X108818523Y-71525209D01*
X108628047Y-71525209D01*
X129138523Y-79675380D02*
X128805190Y-79199190D01*
X128567095Y-79675380D02*
X128567095Y-78675380D01*
X128948047Y-78675380D01*
X129043285Y-78723000D01*
X129090904Y-78770619D01*
X129138523Y-78865857D01*
X129138523Y-79008714D01*
X129090904Y-79103952D01*
X129043285Y-79151571D01*
X128948047Y-79199190D01*
X128567095Y-79199190D01*
X212958523Y-79675380D02*
X212625190Y-79199190D01*
X212387095Y-79675380D02*
X212387095Y-78675380D01*
X212768047Y-78675380D01*
X212863285Y-78723000D01*
X212910904Y-78770619D01*
X212958523Y-78865857D01*
X212958523Y-79008714D01*
X212910904Y-79103952D01*
X212863285Y-79151571D01*
X212768047Y-79199190D01*
X212387095Y-79199190D01*
X227960428Y-79151571D02*
X228103285Y-79199190D01*
X228150904Y-79246809D01*
X228198523Y-79342047D01*
X228198523Y-79484904D01*
X228150904Y-79580142D01*
X228103285Y-79627761D01*
X228008047Y-79675380D01*
X227627095Y-79675380D01*
X227627095Y-78675380D01*
X227960428Y-78675380D01*
X228055666Y-78723000D01*
X228103285Y-78770619D01*
X228150904Y-78865857D01*
X228150904Y-78961095D01*
X228103285Y-79056333D01*
X228055666Y-79103952D01*
X227960428Y-79151571D01*
X227627095Y-79151571D01*
X248470904Y-71001400D02*
X248375666Y-70953780D01*
X248232809Y-70953780D01*
X248089952Y-71001400D01*
X247994714Y-71096638D01*
X247947095Y-71191876D01*
X247899476Y-71382352D01*
X247899476Y-71525209D01*
X247947095Y-71715685D01*
X247994714Y-71810923D01*
X248089952Y-71906161D01*
X248232809Y-71953780D01*
X248328047Y-71953780D01*
X248470904Y-71906161D01*
X248518523Y-71858542D01*
X248518523Y-71525209D01*
X248328047Y-71525209D01*
X255900428Y-79151571D02*
X256043285Y-79199190D01*
X256090904Y-79246809D01*
X256138523Y-79342047D01*
X256138523Y-79484904D01*
X256090904Y-79580142D01*
X256043285Y-79627761D01*
X255948047Y-79675380D01*
X255567095Y-79675380D01*
X255567095Y-78675380D01*
X255900428Y-78675380D01*
X255995666Y-78723000D01*
X256043285Y-78770619D01*
X256090904Y-78865857D01*
X256090904Y-78961095D01*
X256043285Y-79056333D01*
X255995666Y-79103952D01*
X255900428Y-79151571D01*
X255567095Y-79151571D01*
X220530904Y-71001400D02*
X220435666Y-70953780D01*
X220292809Y-70953780D01*
X220149952Y-71001400D01*
X220054714Y-71096638D01*
X220007095Y-71191876D01*
X219959476Y-71382352D01*
X219959476Y-71525209D01*
X220007095Y-71715685D01*
X220054714Y-71810923D01*
X220149952Y-71906161D01*
X220292809Y-71953780D01*
X220388047Y-71953780D01*
X220530904Y-71906161D01*
X220578523Y-71858542D01*
X220578523Y-71525209D01*
X220388047Y-71525209D01*
X240898523Y-79675380D02*
X240565190Y-79199190D01*
X240327095Y-79675380D02*
X240327095Y-78675380D01*
X240708047Y-78675380D01*
X240803285Y-78723000D01*
X240850904Y-78770619D01*
X240898523Y-78865857D01*
X240898523Y-79008714D01*
X240850904Y-79103952D01*
X240803285Y-79151571D01*
X240708047Y-79199190D01*
X240327095Y-79199190D01*
X200020428Y-79151571D02*
X200163285Y-79199190D01*
X200210904Y-79246809D01*
X200258523Y-79342047D01*
X200258523Y-79484904D01*
X200210904Y-79580142D01*
X200163285Y-79627761D01*
X200068047Y-79675380D01*
X199687095Y-79675380D01*
X199687095Y-78675380D01*
X200020428Y-78675380D01*
X200115666Y-78723000D01*
X200163285Y-78770619D01*
X200210904Y-78865857D01*
X200210904Y-78961095D01*
X200163285Y-79056333D01*
X200115666Y-79103952D01*
X200020428Y-79151571D01*
X199687095Y-79151571D01*
X192590904Y-71001400D02*
X192495666Y-70953780D01*
X192352809Y-70953780D01*
X192209952Y-71001400D01*
X192114714Y-71096638D01*
X192067095Y-71191876D01*
X192019476Y-71382352D01*
X192019476Y-71525209D01*
X192067095Y-71715685D01*
X192114714Y-71810923D01*
X192209952Y-71906161D01*
X192352809Y-71953780D01*
X192448047Y-71953780D01*
X192590904Y-71906161D01*
X192638523Y-71858542D01*
X192638523Y-71525209D01*
X192448047Y-71525209D01*
X185018523Y-79675380D02*
X184685190Y-79199190D01*
X184447095Y-79675380D02*
X184447095Y-78675380D01*
X184828047Y-78675380D01*
X184923285Y-78723000D01*
X184970904Y-78770619D01*
X185018523Y-78865857D01*
X185018523Y-79008714D01*
X184970904Y-79103952D01*
X184923285Y-79151571D01*
X184828047Y-79199190D01*
X184447095Y-79199190D01*
X157078523Y-79675380D02*
X156745190Y-79199190D01*
X156507095Y-79675380D02*
X156507095Y-78675380D01*
X156888047Y-78675380D01*
X156983285Y-78723000D01*
X157030904Y-78770619D01*
X157078523Y-78865857D01*
X157078523Y-79008714D01*
X157030904Y-79103952D01*
X156983285Y-79151571D01*
X156888047Y-79199190D01*
X156507095Y-79199190D01*
X164650904Y-71001400D02*
X164555666Y-70953780D01*
X164412809Y-70953780D01*
X164269952Y-71001400D01*
X164174714Y-71096638D01*
X164127095Y-71191876D01*
X164079476Y-71382352D01*
X164079476Y-71525209D01*
X164127095Y-71715685D01*
X164174714Y-71810923D01*
X164269952Y-71906161D01*
X164412809Y-71953780D01*
X164508047Y-71953780D01*
X164650904Y-71906161D01*
X164698523Y-71858542D01*
X164698523Y-71525209D01*
X164508047Y-71525209D01*
X172080428Y-79151571D02*
X172223285Y-79199190D01*
X172270904Y-79246809D01*
X172318523Y-79342047D01*
X172318523Y-79484904D01*
X172270904Y-79580142D01*
X172223285Y-79627761D01*
X172128047Y-79675380D01*
X171747095Y-79675380D01*
X171747095Y-78675380D01*
X172080428Y-78675380D01*
X172175666Y-78723000D01*
X172223285Y-78770619D01*
X172270904Y-78865857D01*
X172270904Y-78961095D01*
X172223285Y-79056333D01*
X172175666Y-79103952D01*
X172080428Y-79151571D01*
X171747095Y-79151571D01*
X88260428Y-79151571D02*
X88403285Y-79199190D01*
X88450904Y-79246809D01*
X88498523Y-79342047D01*
X88498523Y-79484904D01*
X88450904Y-79580142D01*
X88403285Y-79627761D01*
X88308047Y-79675380D01*
X87927095Y-79675380D01*
X87927095Y-78675380D01*
X88260428Y-78675380D01*
X88355666Y-78723000D01*
X88403285Y-78770619D01*
X88450904Y-78865857D01*
X88450904Y-78961095D01*
X88403285Y-79056333D01*
X88355666Y-79103952D01*
X88260428Y-79151571D01*
X87927095Y-79151571D01*
X80830904Y-71001400D02*
X80735666Y-70953780D01*
X80592809Y-70953780D01*
X80449952Y-71001400D01*
X80354714Y-71096638D01*
X80307095Y-71191876D01*
X80259476Y-71382352D01*
X80259476Y-71525209D01*
X80307095Y-71715685D01*
X80354714Y-71810923D01*
X80449952Y-71906161D01*
X80592809Y-71953780D01*
X80688047Y-71953780D01*
X80830904Y-71906161D01*
X80878523Y-71858542D01*
X80878523Y-71525209D01*
X80688047Y-71525209D01*
X73258523Y-79675380D02*
X72925190Y-79199190D01*
X72687095Y-79675380D02*
X72687095Y-78675380D01*
X73068047Y-78675380D01*
X73163285Y-78723000D01*
X73210904Y-78770619D01*
X73258523Y-78865857D01*
X73258523Y-79008714D01*
X73210904Y-79103952D01*
X73163285Y-79151571D01*
X73068047Y-79199190D01*
X72687095Y-79199190D01*
X45318523Y-79675380D02*
X44985190Y-79199190D01*
X44747095Y-79675380D02*
X44747095Y-78675380D01*
X45128047Y-78675380D01*
X45223285Y-78723000D01*
X45270904Y-78770619D01*
X45318523Y-78865857D01*
X45318523Y-79008714D01*
X45270904Y-79103952D01*
X45223285Y-79151571D01*
X45128047Y-79199190D01*
X44747095Y-79199190D01*
X52890904Y-71001400D02*
X52795666Y-70953780D01*
X52652809Y-70953780D01*
X52509952Y-71001400D01*
X52414714Y-71096638D01*
X52367095Y-71191876D01*
X52319476Y-71382352D01*
X52319476Y-71525209D01*
X52367095Y-71715685D01*
X52414714Y-71810923D01*
X52509952Y-71906161D01*
X52652809Y-71953780D01*
X52748047Y-71953780D01*
X52890904Y-71906161D01*
X52938523Y-71858542D01*
X52938523Y-71525209D01*
X52748047Y-71525209D01*
X60320428Y-79151571D02*
X60463285Y-79199190D01*
X60510904Y-79246809D01*
X60558523Y-79342047D01*
X60558523Y-79484904D01*
X60510904Y-79580142D01*
X60463285Y-79627761D01*
X60368047Y-79675380D01*
X59987095Y-79675380D01*
X59987095Y-78675380D01*
X60320428Y-78675380D01*
X60415666Y-78723000D01*
X60463285Y-78770619D01*
X60510904Y-78865857D01*
X60510904Y-78961095D01*
X60463285Y-79056333D01*
X60415666Y-79103952D01*
X60320428Y-79151571D01*
X59987095Y-79151571D01*
X52890904Y-126881400D02*
X52795666Y-126833780D01*
X52652809Y-126833780D01*
X52509952Y-126881400D01*
X52414714Y-126976638D01*
X52367095Y-127071876D01*
X52319476Y-127262352D01*
X52319476Y-127405209D01*
X52367095Y-127595685D01*
X52414714Y-127690923D01*
X52509952Y-127786161D01*
X52652809Y-127833780D01*
X52748047Y-127833780D01*
X52890904Y-127786161D01*
X52938523Y-127738542D01*
X52938523Y-127405209D01*
X52748047Y-127405209D01*
X60320428Y-135031571D02*
X60463285Y-135079190D01*
X60510904Y-135126809D01*
X60558523Y-135222047D01*
X60558523Y-135364904D01*
X60510904Y-135460142D01*
X60463285Y-135507761D01*
X60368047Y-135555380D01*
X59987095Y-135555380D01*
X59987095Y-134555380D01*
X60320428Y-134555380D01*
X60415666Y-134603000D01*
X60463285Y-134650619D01*
X60510904Y-134745857D01*
X60510904Y-134841095D01*
X60463285Y-134936333D01*
X60415666Y-134983952D01*
X60320428Y-135031571D01*
X59987095Y-135031571D01*
X116200428Y-107091571D02*
X116343285Y-107139190D01*
X116390904Y-107186809D01*
X116438523Y-107282047D01*
X116438523Y-107424904D01*
X116390904Y-107520142D01*
X116343285Y-107567761D01*
X116248047Y-107615380D01*
X115867095Y-107615380D01*
X115867095Y-106615380D01*
X116200428Y-106615380D01*
X116295666Y-106663000D01*
X116343285Y-106710619D01*
X116390904Y-106805857D01*
X116390904Y-106901095D01*
X116343285Y-106996333D01*
X116295666Y-107043952D01*
X116200428Y-107091571D01*
X115867095Y-107091571D01*
X136710904Y-98941400D02*
X136615666Y-98893780D01*
X136472809Y-98893780D01*
X136329952Y-98941400D01*
X136234714Y-99036638D01*
X136187095Y-99131876D01*
X136139476Y-99322352D01*
X136139476Y-99465209D01*
X136187095Y-99655685D01*
X136234714Y-99750923D01*
X136329952Y-99846161D01*
X136472809Y-99893780D01*
X136568047Y-99893780D01*
X136710904Y-99846161D01*
X136758523Y-99798542D01*
X136758523Y-99465209D01*
X136568047Y-99465209D01*
X101198523Y-107615380D02*
X100865190Y-107139190D01*
X100627095Y-107615380D02*
X100627095Y-106615380D01*
X101008047Y-106615380D01*
X101103285Y-106663000D01*
X101150904Y-106710619D01*
X101198523Y-106805857D01*
X101198523Y-106948714D01*
X101150904Y-107043952D01*
X101103285Y-107091571D01*
X101008047Y-107139190D01*
X100627095Y-107139190D01*
X144140428Y-107091571D02*
X144283285Y-107139190D01*
X144330904Y-107186809D01*
X144378523Y-107282047D01*
X144378523Y-107424904D01*
X144330904Y-107520142D01*
X144283285Y-107567761D01*
X144188047Y-107615380D01*
X143807095Y-107615380D01*
X143807095Y-106615380D01*
X144140428Y-106615380D01*
X144235666Y-106663000D01*
X144283285Y-106710619D01*
X144330904Y-106805857D01*
X144330904Y-106901095D01*
X144283285Y-106996333D01*
X144235666Y-107043952D01*
X144140428Y-107091571D01*
X143807095Y-107091571D01*
X108770904Y-98941400D02*
X108675666Y-98893780D01*
X108532809Y-98893780D01*
X108389952Y-98941400D01*
X108294714Y-99036638D01*
X108247095Y-99131876D01*
X108199476Y-99322352D01*
X108199476Y-99465209D01*
X108247095Y-99655685D01*
X108294714Y-99750923D01*
X108389952Y-99846161D01*
X108532809Y-99893780D01*
X108628047Y-99893780D01*
X108770904Y-99846161D01*
X108818523Y-99798542D01*
X108818523Y-99465209D01*
X108628047Y-99465209D01*
X129138523Y-107615380D02*
X128805190Y-107139190D01*
X128567095Y-107615380D02*
X128567095Y-106615380D01*
X128948047Y-106615380D01*
X129043285Y-106663000D01*
X129090904Y-106710619D01*
X129138523Y-106805857D01*
X129138523Y-106948714D01*
X129090904Y-107043952D01*
X129043285Y-107091571D01*
X128948047Y-107139190D01*
X128567095Y-107139190D01*
X88260428Y-135031571D02*
X88403285Y-135079190D01*
X88450904Y-135126809D01*
X88498523Y-135222047D01*
X88498523Y-135364904D01*
X88450904Y-135460142D01*
X88403285Y-135507761D01*
X88308047Y-135555380D01*
X87927095Y-135555380D01*
X87927095Y-134555380D01*
X88260428Y-134555380D01*
X88355666Y-134603000D01*
X88403285Y-134650619D01*
X88450904Y-134745857D01*
X88450904Y-134841095D01*
X88403285Y-134936333D01*
X88355666Y-134983952D01*
X88260428Y-135031571D01*
X87927095Y-135031571D01*
X80830904Y-126881400D02*
X80735666Y-126833780D01*
X80592809Y-126833780D01*
X80449952Y-126881400D01*
X80354714Y-126976638D01*
X80307095Y-127071876D01*
X80259476Y-127262352D01*
X80259476Y-127405209D01*
X80307095Y-127595685D01*
X80354714Y-127690923D01*
X80449952Y-127786161D01*
X80592809Y-127833780D01*
X80688047Y-127833780D01*
X80830904Y-127786161D01*
X80878523Y-127738542D01*
X80878523Y-127405209D01*
X80688047Y-127405209D01*
X164650904Y-126881400D02*
X164555666Y-126833780D01*
X164412809Y-126833780D01*
X164269952Y-126881400D01*
X164174714Y-126976638D01*
X164127095Y-127071876D01*
X164079476Y-127262352D01*
X164079476Y-127405209D01*
X164127095Y-127595685D01*
X164174714Y-127690923D01*
X164269952Y-127786161D01*
X164412809Y-127833780D01*
X164508047Y-127833780D01*
X164650904Y-127786161D01*
X164698523Y-127738542D01*
X164698523Y-127405209D01*
X164508047Y-127405209D01*
X45318523Y-135555380D02*
X44985190Y-135079190D01*
X44747095Y-135555380D02*
X44747095Y-134555380D01*
X45128047Y-134555380D01*
X45223285Y-134603000D01*
X45270904Y-134650619D01*
X45318523Y-134745857D01*
X45318523Y-134888714D01*
X45270904Y-134983952D01*
X45223285Y-135031571D01*
X45128047Y-135079190D01*
X44747095Y-135079190D01*
X172080428Y-135031571D02*
X172223285Y-135079190D01*
X172270904Y-135126809D01*
X172318523Y-135222047D01*
X172318523Y-135364904D01*
X172270904Y-135460142D01*
X172223285Y-135507761D01*
X172128047Y-135555380D01*
X171747095Y-135555380D01*
X171747095Y-134555380D01*
X172080428Y-134555380D01*
X172175666Y-134603000D01*
X172223285Y-134650619D01*
X172270904Y-134745857D01*
X172270904Y-134841095D01*
X172223285Y-134936333D01*
X172175666Y-134983952D01*
X172080428Y-135031571D01*
X171747095Y-135031571D01*
X73258523Y-135555380D02*
X72925190Y-135079190D01*
X72687095Y-135555380D02*
X72687095Y-134555380D01*
X73068047Y-134555380D01*
X73163285Y-134603000D01*
X73210904Y-134650619D01*
X73258523Y-134745857D01*
X73258523Y-134888714D01*
X73210904Y-134983952D01*
X73163285Y-135031571D01*
X73068047Y-135079190D01*
X72687095Y-135079190D01*
X157078523Y-135555380D02*
X156745190Y-135079190D01*
X156507095Y-135555380D02*
X156507095Y-134555380D01*
X156888047Y-134555380D01*
X156983285Y-134603000D01*
X157030904Y-134650619D01*
X157078523Y-134745857D01*
X157078523Y-134888714D01*
X157030904Y-134983952D01*
X156983285Y-135031571D01*
X156888047Y-135079190D01*
X156507095Y-135079190D01*
X212958523Y-107615380D02*
X212625190Y-107139190D01*
X212387095Y-107615380D02*
X212387095Y-106615380D01*
X212768047Y-106615380D01*
X212863285Y-106663000D01*
X212910904Y-106710619D01*
X212958523Y-106805857D01*
X212958523Y-106948714D01*
X212910904Y-107043952D01*
X212863285Y-107091571D01*
X212768047Y-107139190D01*
X212387095Y-107139190D01*
X227960428Y-107091571D02*
X228103285Y-107139190D01*
X228150904Y-107186809D01*
X228198523Y-107282047D01*
X228198523Y-107424904D01*
X228150904Y-107520142D01*
X228103285Y-107567761D01*
X228008047Y-107615380D01*
X227627095Y-107615380D01*
X227627095Y-106615380D01*
X227960428Y-106615380D01*
X228055666Y-106663000D01*
X228103285Y-106710619D01*
X228150904Y-106805857D01*
X228150904Y-106901095D01*
X228103285Y-106996333D01*
X228055666Y-107043952D01*
X227960428Y-107091571D01*
X227627095Y-107091571D01*
X248470904Y-98941400D02*
X248375666Y-98893780D01*
X248232809Y-98893780D01*
X248089952Y-98941400D01*
X247994714Y-99036638D01*
X247947095Y-99131876D01*
X247899476Y-99322352D01*
X247899476Y-99465209D01*
X247947095Y-99655685D01*
X247994714Y-99750923D01*
X248089952Y-99846161D01*
X248232809Y-99893780D01*
X248328047Y-99893780D01*
X248470904Y-99846161D01*
X248518523Y-99798542D01*
X248518523Y-99465209D01*
X248328047Y-99465209D01*
X255900428Y-107091571D02*
X256043285Y-107139190D01*
X256090904Y-107186809D01*
X256138523Y-107282047D01*
X256138523Y-107424904D01*
X256090904Y-107520142D01*
X256043285Y-107567761D01*
X255948047Y-107615380D01*
X255567095Y-107615380D01*
X255567095Y-106615380D01*
X255900428Y-106615380D01*
X255995666Y-106663000D01*
X256043285Y-106710619D01*
X256090904Y-106805857D01*
X256090904Y-106901095D01*
X256043285Y-106996333D01*
X255995666Y-107043952D01*
X255900428Y-107091571D01*
X255567095Y-107091571D01*
X220530904Y-98941400D02*
X220435666Y-98893780D01*
X220292809Y-98893780D01*
X220149952Y-98941400D01*
X220054714Y-99036638D01*
X220007095Y-99131876D01*
X219959476Y-99322352D01*
X219959476Y-99465209D01*
X220007095Y-99655685D01*
X220054714Y-99750923D01*
X220149952Y-99846161D01*
X220292809Y-99893780D01*
X220388047Y-99893780D01*
X220530904Y-99846161D01*
X220578523Y-99798542D01*
X220578523Y-99465209D01*
X220388047Y-99465209D01*
X240898523Y-107615380D02*
X240565190Y-107139190D01*
X240327095Y-107615380D02*
X240327095Y-106615380D01*
X240708047Y-106615380D01*
X240803285Y-106663000D01*
X240850904Y-106710619D01*
X240898523Y-106805857D01*
X240898523Y-106948714D01*
X240850904Y-107043952D01*
X240803285Y-107091571D01*
X240708047Y-107139190D01*
X240327095Y-107139190D01*
X200020428Y-107091571D02*
X200163285Y-107139190D01*
X200210904Y-107186809D01*
X200258523Y-107282047D01*
X200258523Y-107424904D01*
X200210904Y-107520142D01*
X200163285Y-107567761D01*
X200068047Y-107615380D01*
X199687095Y-107615380D01*
X199687095Y-106615380D01*
X200020428Y-106615380D01*
X200115666Y-106663000D01*
X200163285Y-106710619D01*
X200210904Y-106805857D01*
X200210904Y-106901095D01*
X200163285Y-106996333D01*
X200115666Y-107043952D01*
X200020428Y-107091571D01*
X199687095Y-107091571D01*
X192590904Y-98941400D02*
X192495666Y-98893780D01*
X192352809Y-98893780D01*
X192209952Y-98941400D01*
X192114714Y-99036638D01*
X192067095Y-99131876D01*
X192019476Y-99322352D01*
X192019476Y-99465209D01*
X192067095Y-99655685D01*
X192114714Y-99750923D01*
X192209952Y-99846161D01*
X192352809Y-99893780D01*
X192448047Y-99893780D01*
X192590904Y-99846161D01*
X192638523Y-99798542D01*
X192638523Y-99465209D01*
X192448047Y-99465209D01*
X185018523Y-107615380D02*
X184685190Y-107139190D01*
X184447095Y-107615380D02*
X184447095Y-106615380D01*
X184828047Y-106615380D01*
X184923285Y-106663000D01*
X184970904Y-106710619D01*
X185018523Y-106805857D01*
X185018523Y-106948714D01*
X184970904Y-107043952D01*
X184923285Y-107091571D01*
X184828047Y-107139190D01*
X184447095Y-107139190D01*
X157078523Y-107615380D02*
X156745190Y-107139190D01*
X156507095Y-107615380D02*
X156507095Y-106615380D01*
X156888047Y-106615380D01*
X156983285Y-106663000D01*
X157030904Y-106710619D01*
X157078523Y-106805857D01*
X157078523Y-106948714D01*
X157030904Y-107043952D01*
X156983285Y-107091571D01*
X156888047Y-107139190D01*
X156507095Y-107139190D01*
X164650904Y-98941400D02*
X164555666Y-98893780D01*
X164412809Y-98893780D01*
X164269952Y-98941400D01*
X164174714Y-99036638D01*
X164127095Y-99131876D01*
X164079476Y-99322352D01*
X164079476Y-99465209D01*
X164127095Y-99655685D01*
X164174714Y-99750923D01*
X164269952Y-99846161D01*
X164412809Y-99893780D01*
X164508047Y-99893780D01*
X164650904Y-99846161D01*
X164698523Y-99798542D01*
X164698523Y-99465209D01*
X164508047Y-99465209D01*
X172080428Y-107091571D02*
X172223285Y-107139190D01*
X172270904Y-107186809D01*
X172318523Y-107282047D01*
X172318523Y-107424904D01*
X172270904Y-107520142D01*
X172223285Y-107567761D01*
X172128047Y-107615380D01*
X171747095Y-107615380D01*
X171747095Y-106615380D01*
X172080428Y-106615380D01*
X172175666Y-106663000D01*
X172223285Y-106710619D01*
X172270904Y-106805857D01*
X172270904Y-106901095D01*
X172223285Y-106996333D01*
X172175666Y-107043952D01*
X172080428Y-107091571D01*
X171747095Y-107091571D01*
X116200428Y-135031571D02*
X116343285Y-135079190D01*
X116390904Y-135126809D01*
X116438523Y-135222047D01*
X116438523Y-135364904D01*
X116390904Y-135460142D01*
X116343285Y-135507761D01*
X116248047Y-135555380D01*
X115867095Y-135555380D01*
X115867095Y-134555380D01*
X116200428Y-134555380D01*
X116295666Y-134603000D01*
X116343285Y-134650619D01*
X116390904Y-134745857D01*
X116390904Y-134841095D01*
X116343285Y-134936333D01*
X116295666Y-134983952D01*
X116200428Y-135031571D01*
X115867095Y-135031571D01*
X136710904Y-126881400D02*
X136615666Y-126833780D01*
X136472809Y-126833780D01*
X136329952Y-126881400D01*
X136234714Y-126976638D01*
X136187095Y-127071876D01*
X136139476Y-127262352D01*
X136139476Y-127405209D01*
X136187095Y-127595685D01*
X136234714Y-127690923D01*
X136329952Y-127786161D01*
X136472809Y-127833780D01*
X136568047Y-127833780D01*
X136710904Y-127786161D01*
X136758523Y-127738542D01*
X136758523Y-127405209D01*
X136568047Y-127405209D01*
X101198523Y-135555380D02*
X100865190Y-135079190D01*
X100627095Y-135555380D02*
X100627095Y-134555380D01*
X101008047Y-134555380D01*
X101103285Y-134603000D01*
X101150904Y-134650619D01*
X101198523Y-134745857D01*
X101198523Y-134888714D01*
X101150904Y-134983952D01*
X101103285Y-135031571D01*
X101008047Y-135079190D01*
X100627095Y-135079190D01*
X144140428Y-135031571D02*
X144283285Y-135079190D01*
X144330904Y-135126809D01*
X144378523Y-135222047D01*
X144378523Y-135364904D01*
X144330904Y-135460142D01*
X144283285Y-135507761D01*
X144188047Y-135555380D01*
X143807095Y-135555380D01*
X143807095Y-134555380D01*
X144140428Y-134555380D01*
X144235666Y-134603000D01*
X144283285Y-134650619D01*
X144330904Y-134745857D01*
X144330904Y-134841095D01*
X144283285Y-134936333D01*
X144235666Y-134983952D01*
X144140428Y-135031571D01*
X143807095Y-135031571D01*
X108770904Y-126881400D02*
X108675666Y-126833780D01*
X108532809Y-126833780D01*
X108389952Y-126881400D01*
X108294714Y-126976638D01*
X108247095Y-127071876D01*
X108199476Y-127262352D01*
X108199476Y-127405209D01*
X108247095Y-127595685D01*
X108294714Y-127690923D01*
X108389952Y-127786161D01*
X108532809Y-127833780D01*
X108628047Y-127833780D01*
X108770904Y-127786161D01*
X108818523Y-127738542D01*
X108818523Y-127405209D01*
X108628047Y-127405209D01*
X129138523Y-135555380D02*
X128805190Y-135079190D01*
X128567095Y-135555380D02*
X128567095Y-134555380D01*
X128948047Y-134555380D01*
X129043285Y-134603000D01*
X129090904Y-134650619D01*
X129138523Y-134745857D01*
X129138523Y-134888714D01*
X129090904Y-134983952D01*
X129043285Y-135031571D01*
X128948047Y-135079190D01*
X128567095Y-135079190D01*
X212958523Y-135555380D02*
X212625190Y-135079190D01*
X212387095Y-135555380D02*
X212387095Y-134555380D01*
X212768047Y-134555380D01*
X212863285Y-134603000D01*
X212910904Y-134650619D01*
X212958523Y-134745857D01*
X212958523Y-134888714D01*
X212910904Y-134983952D01*
X212863285Y-135031571D01*
X212768047Y-135079190D01*
X212387095Y-135079190D01*
X227960428Y-135031571D02*
X228103285Y-135079190D01*
X228150904Y-135126809D01*
X228198523Y-135222047D01*
X228198523Y-135364904D01*
X228150904Y-135460142D01*
X228103285Y-135507761D01*
X228008047Y-135555380D01*
X227627095Y-135555380D01*
X227627095Y-134555380D01*
X227960428Y-134555380D01*
X228055666Y-134603000D01*
X228103285Y-134650619D01*
X228150904Y-134745857D01*
X228150904Y-134841095D01*
X228103285Y-134936333D01*
X228055666Y-134983952D01*
X227960428Y-135031571D01*
X227627095Y-135031571D01*
X248470904Y-126881400D02*
X248375666Y-126833780D01*
X248232809Y-126833780D01*
X248089952Y-126881400D01*
X247994714Y-126976638D01*
X247947095Y-127071876D01*
X247899476Y-127262352D01*
X247899476Y-127405209D01*
X247947095Y-127595685D01*
X247994714Y-127690923D01*
X248089952Y-127786161D01*
X248232809Y-127833780D01*
X248328047Y-127833780D01*
X248470904Y-127786161D01*
X248518523Y-127738542D01*
X248518523Y-127405209D01*
X248328047Y-127405209D01*
X255900428Y-135031571D02*
X256043285Y-135079190D01*
X256090904Y-135126809D01*
X256138523Y-135222047D01*
X256138523Y-135364904D01*
X256090904Y-135460142D01*
X256043285Y-135507761D01*
X255948047Y-135555380D01*
X255567095Y-135555380D01*
X255567095Y-134555380D01*
X255900428Y-134555380D01*
X255995666Y-134603000D01*
X256043285Y-134650619D01*
X256090904Y-134745857D01*
X256090904Y-134841095D01*
X256043285Y-134936333D01*
X255995666Y-134983952D01*
X255900428Y-135031571D01*
X255567095Y-135031571D01*
X220530904Y-126881400D02*
X220435666Y-126833780D01*
X220292809Y-126833780D01*
X220149952Y-126881400D01*
X220054714Y-126976638D01*
X220007095Y-127071876D01*
X219959476Y-127262352D01*
X219959476Y-127405209D01*
X220007095Y-127595685D01*
X220054714Y-127690923D01*
X220149952Y-127786161D01*
X220292809Y-127833780D01*
X220388047Y-127833780D01*
X220530904Y-127786161D01*
X220578523Y-127738542D01*
X220578523Y-127405209D01*
X220388047Y-127405209D01*
X240898523Y-135555380D02*
X240565190Y-135079190D01*
X240327095Y-135555380D02*
X240327095Y-134555380D01*
X240708047Y-134555380D01*
X240803285Y-134603000D01*
X240850904Y-134650619D01*
X240898523Y-134745857D01*
X240898523Y-134888714D01*
X240850904Y-134983952D01*
X240803285Y-135031571D01*
X240708047Y-135079190D01*
X240327095Y-135079190D01*
X185018523Y-135555380D02*
X184685190Y-135079190D01*
X184447095Y-135555380D02*
X184447095Y-134555380D01*
X184828047Y-134555380D01*
X184923285Y-134603000D01*
X184970904Y-134650619D01*
X185018523Y-134745857D01*
X185018523Y-134888714D01*
X184970904Y-134983952D01*
X184923285Y-135031571D01*
X184828047Y-135079190D01*
X184447095Y-135079190D01*
X192590904Y-126881400D02*
X192495666Y-126833780D01*
X192352809Y-126833780D01*
X192209952Y-126881400D01*
X192114714Y-126976638D01*
X192067095Y-127071876D01*
X192019476Y-127262352D01*
X192019476Y-127405209D01*
X192067095Y-127595685D01*
X192114714Y-127690923D01*
X192209952Y-127786161D01*
X192352809Y-127833780D01*
X192448047Y-127833780D01*
X192590904Y-127786161D01*
X192638523Y-127738542D01*
X192638523Y-127405209D01*
X192448047Y-127405209D01*
X200020428Y-135031571D02*
X200163285Y-135079190D01*
X200210904Y-135126809D01*
X200258523Y-135222047D01*
X200258523Y-135364904D01*
X200210904Y-135460142D01*
X200163285Y-135507761D01*
X200068047Y-135555380D01*
X199687095Y-135555380D01*
X199687095Y-134555380D01*
X200020428Y-134555380D01*
X200115666Y-134603000D01*
X200163285Y-134650619D01*
X200210904Y-134745857D01*
X200210904Y-134841095D01*
X200163285Y-134936333D01*
X200115666Y-134983952D01*
X200020428Y-135031571D01*
X199687095Y-135031571D01*
X88260428Y-107091571D02*
X88403285Y-107139190D01*
X88450904Y-107186809D01*
X88498523Y-107282047D01*
X88498523Y-107424904D01*
X88450904Y-107520142D01*
X88403285Y-107567761D01*
X88308047Y-107615380D01*
X87927095Y-107615380D01*
X87927095Y-106615380D01*
X88260428Y-106615380D01*
X88355666Y-106663000D01*
X88403285Y-106710619D01*
X88450904Y-106805857D01*
X88450904Y-106901095D01*
X88403285Y-106996333D01*
X88355666Y-107043952D01*
X88260428Y-107091571D01*
X87927095Y-107091571D01*
X80830904Y-98941400D02*
X80735666Y-98893780D01*
X80592809Y-98893780D01*
X80449952Y-98941400D01*
X80354714Y-99036638D01*
X80307095Y-99131876D01*
X80259476Y-99322352D01*
X80259476Y-99465209D01*
X80307095Y-99655685D01*
X80354714Y-99750923D01*
X80449952Y-99846161D01*
X80592809Y-99893780D01*
X80688047Y-99893780D01*
X80830904Y-99846161D01*
X80878523Y-99798542D01*
X80878523Y-99465209D01*
X80688047Y-99465209D01*
X73258523Y-107615380D02*
X72925190Y-107139190D01*
X72687095Y-107615380D02*
X72687095Y-106615380D01*
X73068047Y-106615380D01*
X73163285Y-106663000D01*
X73210904Y-106710619D01*
X73258523Y-106805857D01*
X73258523Y-106948714D01*
X73210904Y-107043952D01*
X73163285Y-107091571D01*
X73068047Y-107139190D01*
X72687095Y-107139190D01*
X45318523Y-107615380D02*
X44985190Y-107139190D01*
X44747095Y-107615380D02*
X44747095Y-106615380D01*
X45128047Y-106615380D01*
X45223285Y-106663000D01*
X45270904Y-106710619D01*
X45318523Y-106805857D01*
X45318523Y-106948714D01*
X45270904Y-107043952D01*
X45223285Y-107091571D01*
X45128047Y-107139190D01*
X44747095Y-107139190D01*
X52890904Y-98941400D02*
X52795666Y-98893780D01*
X52652809Y-98893780D01*
X52509952Y-98941400D01*
X52414714Y-99036638D01*
X52367095Y-99131876D01*
X52319476Y-99322352D01*
X52319476Y-99465209D01*
X52367095Y-99655685D01*
X52414714Y-99750923D01*
X52509952Y-99846161D01*
X52652809Y-99893780D01*
X52748047Y-99893780D01*
X52890904Y-99846161D01*
X52938523Y-99798542D01*
X52938523Y-99465209D01*
X52748047Y-99465209D01*
X60320428Y-107091571D02*
X60463285Y-107139190D01*
X60510904Y-107186809D01*
X60558523Y-107282047D01*
X60558523Y-107424904D01*
X60510904Y-107520142D01*
X60463285Y-107567761D01*
X60368047Y-107615380D01*
X59987095Y-107615380D01*
X59987095Y-106615380D01*
X60320428Y-106615380D01*
X60415666Y-106663000D01*
X60463285Y-106710619D01*
X60510904Y-106805857D01*
X60510904Y-106901095D01*
X60463285Y-106996333D01*
X60415666Y-107043952D01*
X60320428Y-107091571D01*
X59987095Y-107091571D01*
X45318523Y-163495380D02*
X44985190Y-163019190D01*
X44747095Y-163495380D02*
X44747095Y-162495380D01*
X45128047Y-162495380D01*
X45223285Y-162543000D01*
X45270904Y-162590619D01*
X45318523Y-162685857D01*
X45318523Y-162828714D01*
X45270904Y-162923952D01*
X45223285Y-162971571D01*
X45128047Y-163019190D01*
X44747095Y-163019190D01*
X52890904Y-154821400D02*
X52795666Y-154773780D01*
X52652809Y-154773780D01*
X52509952Y-154821400D01*
X52414714Y-154916638D01*
X52367095Y-155011876D01*
X52319476Y-155202352D01*
X52319476Y-155345209D01*
X52367095Y-155535685D01*
X52414714Y-155630923D01*
X52509952Y-155726161D01*
X52652809Y-155773780D01*
X52748047Y-155773780D01*
X52890904Y-155726161D01*
X52938523Y-155678542D01*
X52938523Y-155345209D01*
X52748047Y-155345209D01*
X60320428Y-162971571D02*
X60463285Y-163019190D01*
X60510904Y-163066809D01*
X60558523Y-163162047D01*
X60558523Y-163304904D01*
X60510904Y-163400142D01*
X60463285Y-163447761D01*
X60368047Y-163495380D01*
X59987095Y-163495380D01*
X59987095Y-162495380D01*
X60320428Y-162495380D01*
X60415666Y-162543000D01*
X60463285Y-162590619D01*
X60510904Y-162685857D01*
X60510904Y-162781095D01*
X60463285Y-162876333D01*
X60415666Y-162923952D01*
X60320428Y-162971571D01*
X59987095Y-162971571D01*
X73258523Y-163495380D02*
X72925190Y-163019190D01*
X72687095Y-163495380D02*
X72687095Y-162495380D01*
X73068047Y-162495380D01*
X73163285Y-162543000D01*
X73210904Y-162590619D01*
X73258523Y-162685857D01*
X73258523Y-162828714D01*
X73210904Y-162923952D01*
X73163285Y-162971571D01*
X73068047Y-163019190D01*
X72687095Y-163019190D01*
X80830904Y-154821400D02*
X80735666Y-154773780D01*
X80592809Y-154773780D01*
X80449952Y-154821400D01*
X80354714Y-154916638D01*
X80307095Y-155011876D01*
X80259476Y-155202352D01*
X80259476Y-155345209D01*
X80307095Y-155535685D01*
X80354714Y-155630923D01*
X80449952Y-155726161D01*
X80592809Y-155773780D01*
X80688047Y-155773780D01*
X80830904Y-155726161D01*
X80878523Y-155678542D01*
X80878523Y-155345209D01*
X80688047Y-155345209D01*
X88260428Y-162971571D02*
X88403285Y-163019190D01*
X88450904Y-163066809D01*
X88498523Y-163162047D01*
X88498523Y-163304904D01*
X88450904Y-163400142D01*
X88403285Y-163447761D01*
X88308047Y-163495380D01*
X87927095Y-163495380D01*
X87927095Y-162495380D01*
X88260428Y-162495380D01*
X88355666Y-162543000D01*
X88403285Y-162590619D01*
X88450904Y-162685857D01*
X88450904Y-162781095D01*
X88403285Y-162876333D01*
X88355666Y-162923952D01*
X88260428Y-162971571D01*
X87927095Y-162971571D01*
X144140428Y-162971571D02*
X144283285Y-163019190D01*
X144330904Y-163066809D01*
X144378523Y-163162047D01*
X144378523Y-163304904D01*
X144330904Y-163400142D01*
X144283285Y-163447761D01*
X144188047Y-163495380D01*
X143807095Y-163495380D01*
X143807095Y-162495380D01*
X144140428Y-162495380D01*
X144235666Y-162543000D01*
X144283285Y-162590619D01*
X144330904Y-162685857D01*
X144330904Y-162781095D01*
X144283285Y-162876333D01*
X144235666Y-162923952D01*
X144140428Y-162971571D01*
X143807095Y-162971571D01*
X136710904Y-154821400D02*
X136615666Y-154773780D01*
X136472809Y-154773780D01*
X136329952Y-154821400D01*
X136234714Y-154916638D01*
X136187095Y-155011876D01*
X136139476Y-155202352D01*
X136139476Y-155345209D01*
X136187095Y-155535685D01*
X136234714Y-155630923D01*
X136329952Y-155726161D01*
X136472809Y-155773780D01*
X136568047Y-155773780D01*
X136710904Y-155726161D01*
X136758523Y-155678542D01*
X136758523Y-155345209D01*
X136568047Y-155345209D01*
X129138523Y-163495380D02*
X128805190Y-163019190D01*
X128567095Y-163495380D02*
X128567095Y-162495380D01*
X128948047Y-162495380D01*
X129043285Y-162543000D01*
X129090904Y-162590619D01*
X129138523Y-162685857D01*
X129138523Y-162828714D01*
X129090904Y-162923952D01*
X129043285Y-162971571D01*
X128948047Y-163019190D01*
X128567095Y-163019190D01*
X101198523Y-163495380D02*
X100865190Y-163019190D01*
X100627095Y-163495380D02*
X100627095Y-162495380D01*
X101008047Y-162495380D01*
X101103285Y-162543000D01*
X101150904Y-162590619D01*
X101198523Y-162685857D01*
X101198523Y-162828714D01*
X101150904Y-162923952D01*
X101103285Y-162971571D01*
X101008047Y-163019190D01*
X100627095Y-163019190D01*
X108770904Y-154821400D02*
X108675666Y-154773780D01*
X108532809Y-154773780D01*
X108389952Y-154821400D01*
X108294714Y-154916638D01*
X108247095Y-155011876D01*
X108199476Y-155202352D01*
X108199476Y-155345209D01*
X108247095Y-155535685D01*
X108294714Y-155630923D01*
X108389952Y-155726161D01*
X108532809Y-155773780D01*
X108628047Y-155773780D01*
X108770904Y-155726161D01*
X108818523Y-155678542D01*
X108818523Y-155345209D01*
X108628047Y-155345209D01*
X116200428Y-162971571D02*
X116343285Y-163019190D01*
X116390904Y-163066809D01*
X116438523Y-163162047D01*
X116438523Y-163304904D01*
X116390904Y-163400142D01*
X116343285Y-163447761D01*
X116248047Y-163495380D01*
X115867095Y-163495380D01*
X115867095Y-162495380D01*
X116200428Y-162495380D01*
X116295666Y-162543000D01*
X116343285Y-162590619D01*
X116390904Y-162685857D01*
X116390904Y-162781095D01*
X116343285Y-162876333D01*
X116295666Y-162923952D01*
X116200428Y-162971571D01*
X115867095Y-162971571D01*
X227960428Y-162971571D02*
X228103285Y-163019190D01*
X228150904Y-163066809D01*
X228198523Y-163162047D01*
X228198523Y-163304904D01*
X228150904Y-163400142D01*
X228103285Y-163447761D01*
X228008047Y-163495380D01*
X227627095Y-163495380D01*
X227627095Y-162495380D01*
X227960428Y-162495380D01*
X228055666Y-162543000D01*
X228103285Y-162590619D01*
X228150904Y-162685857D01*
X228150904Y-162781095D01*
X228103285Y-162876333D01*
X228055666Y-162923952D01*
X227960428Y-162971571D01*
X227627095Y-162971571D01*
X248470904Y-154821400D02*
X248375666Y-154773780D01*
X248232809Y-154773780D01*
X248089952Y-154821400D01*
X247994714Y-154916638D01*
X247947095Y-155011876D01*
X247899476Y-155202352D01*
X247899476Y-155345209D01*
X247947095Y-155535685D01*
X247994714Y-155630923D01*
X248089952Y-155726161D01*
X248232809Y-155773780D01*
X248328047Y-155773780D01*
X248470904Y-155726161D01*
X248518523Y-155678542D01*
X248518523Y-155345209D01*
X248328047Y-155345209D01*
X212958523Y-163495380D02*
X212625190Y-163019190D01*
X212387095Y-163495380D02*
X212387095Y-162495380D01*
X212768047Y-162495380D01*
X212863285Y-162543000D01*
X212910904Y-162590619D01*
X212958523Y-162685857D01*
X212958523Y-162828714D01*
X212910904Y-162923952D01*
X212863285Y-162971571D01*
X212768047Y-163019190D01*
X212387095Y-163019190D01*
X255900428Y-162971571D02*
X256043285Y-163019190D01*
X256090904Y-163066809D01*
X256138523Y-163162047D01*
X256138523Y-163304904D01*
X256090904Y-163400142D01*
X256043285Y-163447761D01*
X255948047Y-163495380D01*
X255567095Y-163495380D01*
X255567095Y-162495380D01*
X255900428Y-162495380D01*
X255995666Y-162543000D01*
X256043285Y-162590619D01*
X256090904Y-162685857D01*
X256090904Y-162781095D01*
X256043285Y-162876333D01*
X255995666Y-162923952D01*
X255900428Y-162971571D01*
X255567095Y-162971571D01*
X220530904Y-154821400D02*
X220435666Y-154773780D01*
X220292809Y-154773780D01*
X220149952Y-154821400D01*
X220054714Y-154916638D01*
X220007095Y-155011876D01*
X219959476Y-155202352D01*
X219959476Y-155345209D01*
X220007095Y-155535685D01*
X220054714Y-155630923D01*
X220149952Y-155726161D01*
X220292809Y-155773780D01*
X220388047Y-155773780D01*
X220530904Y-155726161D01*
X220578523Y-155678542D01*
X220578523Y-155345209D01*
X220388047Y-155345209D01*
X240898523Y-163495380D02*
X240565190Y-163019190D01*
X240327095Y-163495380D02*
X240327095Y-162495380D01*
X240708047Y-162495380D01*
X240803285Y-162543000D01*
X240850904Y-162590619D01*
X240898523Y-162685857D01*
X240898523Y-162828714D01*
X240850904Y-162923952D01*
X240803285Y-162971571D01*
X240708047Y-163019190D01*
X240327095Y-163019190D01*
X200020428Y-162971571D02*
X200163285Y-163019190D01*
X200210904Y-163066809D01*
X200258523Y-163162047D01*
X200258523Y-163304904D01*
X200210904Y-163400142D01*
X200163285Y-163447761D01*
X200068047Y-163495380D01*
X199687095Y-163495380D01*
X199687095Y-162495380D01*
X200020428Y-162495380D01*
X200115666Y-162543000D01*
X200163285Y-162590619D01*
X200210904Y-162685857D01*
X200210904Y-162781095D01*
X200163285Y-162876333D01*
X200115666Y-162923952D01*
X200020428Y-162971571D01*
X199687095Y-162971571D01*
X192590904Y-154821400D02*
X192495666Y-154773780D01*
X192352809Y-154773780D01*
X192209952Y-154821400D01*
X192114714Y-154916638D01*
X192067095Y-155011876D01*
X192019476Y-155202352D01*
X192019476Y-155345209D01*
X192067095Y-155535685D01*
X192114714Y-155630923D01*
X192209952Y-155726161D01*
X192352809Y-155773780D01*
X192448047Y-155773780D01*
X192590904Y-155726161D01*
X192638523Y-155678542D01*
X192638523Y-155345209D01*
X192448047Y-155345209D01*
X185018523Y-163495380D02*
X184685190Y-163019190D01*
X184447095Y-163495380D02*
X184447095Y-162495380D01*
X184828047Y-162495380D01*
X184923285Y-162543000D01*
X184970904Y-162590619D01*
X185018523Y-162685857D01*
X185018523Y-162828714D01*
X184970904Y-162923952D01*
X184923285Y-162971571D01*
X184828047Y-163019190D01*
X184447095Y-163019190D01*
X157078523Y-163495380D02*
X156745190Y-163019190D01*
X156507095Y-163495380D02*
X156507095Y-162495380D01*
X156888047Y-162495380D01*
X156983285Y-162543000D01*
X157030904Y-162590619D01*
X157078523Y-162685857D01*
X157078523Y-162828714D01*
X157030904Y-162923952D01*
X156983285Y-162971571D01*
X156888047Y-163019190D01*
X156507095Y-163019190D01*
X164650904Y-154821400D02*
X164555666Y-154773780D01*
X164412809Y-154773780D01*
X164269952Y-154821400D01*
X164174714Y-154916638D01*
X164127095Y-155011876D01*
X164079476Y-155202352D01*
X164079476Y-155345209D01*
X164127095Y-155535685D01*
X164174714Y-155630923D01*
X164269952Y-155726161D01*
X164412809Y-155773780D01*
X164508047Y-155773780D01*
X164650904Y-155726161D01*
X164698523Y-155678542D01*
X164698523Y-155345209D01*
X164508047Y-155345209D01*
X172080428Y-162971571D02*
X172223285Y-163019190D01*
X172270904Y-163066809D01*
X172318523Y-163162047D01*
X172318523Y-163304904D01*
X172270904Y-163400142D01*
X172223285Y-163447761D01*
X172128047Y-163495380D01*
X171747095Y-163495380D01*
X171747095Y-162495380D01*
X172080428Y-162495380D01*
X172175666Y-162543000D01*
X172223285Y-162590619D01*
X172270904Y-162685857D01*
X172270904Y-162781095D01*
X172223285Y-162876333D01*
X172175666Y-162923952D01*
X172080428Y-162971571D01*
X171747095Y-162971571D01*
X116200428Y-190911571D02*
X116343285Y-190959190D01*
X116390904Y-191006809D01*
X116438523Y-191102047D01*
X116438523Y-191244904D01*
X116390904Y-191340142D01*
X116343285Y-191387761D01*
X116248047Y-191435380D01*
X115867095Y-191435380D01*
X115867095Y-190435380D01*
X116200428Y-190435380D01*
X116295666Y-190483000D01*
X116343285Y-190530619D01*
X116390904Y-190625857D01*
X116390904Y-190721095D01*
X116343285Y-190816333D01*
X116295666Y-190863952D01*
X116200428Y-190911571D01*
X115867095Y-190911571D01*
X136710904Y-182761400D02*
X136615666Y-182713780D01*
X136472809Y-182713780D01*
X136329952Y-182761400D01*
X136234714Y-182856638D01*
X136187095Y-182951876D01*
X136139476Y-183142352D01*
X136139476Y-183285209D01*
X136187095Y-183475685D01*
X136234714Y-183570923D01*
X136329952Y-183666161D01*
X136472809Y-183713780D01*
X136568047Y-183713780D01*
X136710904Y-183666161D01*
X136758523Y-183618542D01*
X136758523Y-183285209D01*
X136568047Y-183285209D01*
X101198523Y-191435380D02*
X100865190Y-190959190D01*
X100627095Y-191435380D02*
X100627095Y-190435380D01*
X101008047Y-190435380D01*
X101103285Y-190483000D01*
X101150904Y-190530619D01*
X101198523Y-190625857D01*
X101198523Y-190768714D01*
X101150904Y-190863952D01*
X101103285Y-190911571D01*
X101008047Y-190959190D01*
X100627095Y-190959190D01*
X144140428Y-190911571D02*
X144283285Y-190959190D01*
X144330904Y-191006809D01*
X144378523Y-191102047D01*
X144378523Y-191244904D01*
X144330904Y-191340142D01*
X144283285Y-191387761D01*
X144188047Y-191435380D01*
X143807095Y-191435380D01*
X143807095Y-190435380D01*
X144140428Y-190435380D01*
X144235666Y-190483000D01*
X144283285Y-190530619D01*
X144330904Y-190625857D01*
X144330904Y-190721095D01*
X144283285Y-190816333D01*
X144235666Y-190863952D01*
X144140428Y-190911571D01*
X143807095Y-190911571D01*
X108770904Y-182761400D02*
X108675666Y-182713780D01*
X108532809Y-182713780D01*
X108389952Y-182761400D01*
X108294714Y-182856638D01*
X108247095Y-182951876D01*
X108199476Y-183142352D01*
X108199476Y-183285209D01*
X108247095Y-183475685D01*
X108294714Y-183570923D01*
X108389952Y-183666161D01*
X108532809Y-183713780D01*
X108628047Y-183713780D01*
X108770904Y-183666161D01*
X108818523Y-183618542D01*
X108818523Y-183285209D01*
X108628047Y-183285209D01*
X129138523Y-191435380D02*
X128805190Y-190959190D01*
X128567095Y-191435380D02*
X128567095Y-190435380D01*
X128948047Y-190435380D01*
X129043285Y-190483000D01*
X129090904Y-190530619D01*
X129138523Y-190625857D01*
X129138523Y-190768714D01*
X129090904Y-190863952D01*
X129043285Y-190911571D01*
X128948047Y-190959190D01*
X128567095Y-190959190D01*
X212958523Y-191435380D02*
X212625190Y-190959190D01*
X212387095Y-191435380D02*
X212387095Y-190435380D01*
X212768047Y-190435380D01*
X212863285Y-190483000D01*
X212910904Y-190530619D01*
X212958523Y-190625857D01*
X212958523Y-190768714D01*
X212910904Y-190863952D01*
X212863285Y-190911571D01*
X212768047Y-190959190D01*
X212387095Y-190959190D01*
X227960428Y-190911571D02*
X228103285Y-190959190D01*
X228150904Y-191006809D01*
X228198523Y-191102047D01*
X228198523Y-191244904D01*
X228150904Y-191340142D01*
X228103285Y-191387761D01*
X228008047Y-191435380D01*
X227627095Y-191435380D01*
X227627095Y-190435380D01*
X227960428Y-190435380D01*
X228055666Y-190483000D01*
X228103285Y-190530619D01*
X228150904Y-190625857D01*
X228150904Y-190721095D01*
X228103285Y-190816333D01*
X228055666Y-190863952D01*
X227960428Y-190911571D01*
X227627095Y-190911571D01*
X248470904Y-182761400D02*
X248375666Y-182713780D01*
X248232809Y-182713780D01*
X248089952Y-182761400D01*
X247994714Y-182856638D01*
X247947095Y-182951876D01*
X247899476Y-183142352D01*
X247899476Y-183285209D01*
X247947095Y-183475685D01*
X247994714Y-183570923D01*
X248089952Y-183666161D01*
X248232809Y-183713780D01*
X248328047Y-183713780D01*
X248470904Y-183666161D01*
X248518523Y-183618542D01*
X248518523Y-183285209D01*
X248328047Y-183285209D01*
X255900428Y-190911571D02*
X256043285Y-190959190D01*
X256090904Y-191006809D01*
X256138523Y-191102047D01*
X256138523Y-191244904D01*
X256090904Y-191340142D01*
X256043285Y-191387761D01*
X255948047Y-191435380D01*
X255567095Y-191435380D01*
X255567095Y-190435380D01*
X255900428Y-190435380D01*
X255995666Y-190483000D01*
X256043285Y-190530619D01*
X256090904Y-190625857D01*
X256090904Y-190721095D01*
X256043285Y-190816333D01*
X255995666Y-190863952D01*
X255900428Y-190911571D01*
X255567095Y-190911571D01*
X220530904Y-182761400D02*
X220435666Y-182713780D01*
X220292809Y-182713780D01*
X220149952Y-182761400D01*
X220054714Y-182856638D01*
X220007095Y-182951876D01*
X219959476Y-183142352D01*
X219959476Y-183285209D01*
X220007095Y-183475685D01*
X220054714Y-183570923D01*
X220149952Y-183666161D01*
X220292809Y-183713780D01*
X220388047Y-183713780D01*
X220530904Y-183666161D01*
X220578523Y-183618542D01*
X220578523Y-183285209D01*
X220388047Y-183285209D01*
X240898523Y-191435380D02*
X240565190Y-190959190D01*
X240327095Y-191435380D02*
X240327095Y-190435380D01*
X240708047Y-190435380D01*
X240803285Y-190483000D01*
X240850904Y-190530619D01*
X240898523Y-190625857D01*
X240898523Y-190768714D01*
X240850904Y-190863952D01*
X240803285Y-190911571D01*
X240708047Y-190959190D01*
X240327095Y-190959190D01*
X200020428Y-190911571D02*
X200163285Y-190959190D01*
X200210904Y-191006809D01*
X200258523Y-191102047D01*
X200258523Y-191244904D01*
X200210904Y-191340142D01*
X200163285Y-191387761D01*
X200068047Y-191435380D01*
X199687095Y-191435380D01*
X199687095Y-190435380D01*
X200020428Y-190435380D01*
X200115666Y-190483000D01*
X200163285Y-190530619D01*
X200210904Y-190625857D01*
X200210904Y-190721095D01*
X200163285Y-190816333D01*
X200115666Y-190863952D01*
X200020428Y-190911571D01*
X199687095Y-190911571D01*
X192590904Y-182761400D02*
X192495666Y-182713780D01*
X192352809Y-182713780D01*
X192209952Y-182761400D01*
X192114714Y-182856638D01*
X192067095Y-182951876D01*
X192019476Y-183142352D01*
X192019476Y-183285209D01*
X192067095Y-183475685D01*
X192114714Y-183570923D01*
X192209952Y-183666161D01*
X192352809Y-183713780D01*
X192448047Y-183713780D01*
X192590904Y-183666161D01*
X192638523Y-183618542D01*
X192638523Y-183285209D01*
X192448047Y-183285209D01*
X185018523Y-191435380D02*
X184685190Y-190959190D01*
X184447095Y-191435380D02*
X184447095Y-190435380D01*
X184828047Y-190435380D01*
X184923285Y-190483000D01*
X184970904Y-190530619D01*
X185018523Y-190625857D01*
X185018523Y-190768714D01*
X184970904Y-190863952D01*
X184923285Y-190911571D01*
X184828047Y-190959190D01*
X184447095Y-190959190D01*
X157078523Y-191435380D02*
X156745190Y-190959190D01*
X156507095Y-191435380D02*
X156507095Y-190435380D01*
X156888047Y-190435380D01*
X156983285Y-190483000D01*
X157030904Y-190530619D01*
X157078523Y-190625857D01*
X157078523Y-190768714D01*
X157030904Y-190863952D01*
X156983285Y-190911571D01*
X156888047Y-190959190D01*
X156507095Y-190959190D01*
X164650904Y-182761400D02*
X164555666Y-182713780D01*
X164412809Y-182713780D01*
X164269952Y-182761400D01*
X164174714Y-182856638D01*
X164127095Y-182951876D01*
X164079476Y-183142352D01*
X164079476Y-183285209D01*
X164127095Y-183475685D01*
X164174714Y-183570923D01*
X164269952Y-183666161D01*
X164412809Y-183713780D01*
X164508047Y-183713780D01*
X164650904Y-183666161D01*
X164698523Y-183618542D01*
X164698523Y-183285209D01*
X164508047Y-183285209D01*
X172080428Y-190911571D02*
X172223285Y-190959190D01*
X172270904Y-191006809D01*
X172318523Y-191102047D01*
X172318523Y-191244904D01*
X172270904Y-191340142D01*
X172223285Y-191387761D01*
X172128047Y-191435380D01*
X171747095Y-191435380D01*
X171747095Y-190435380D01*
X172080428Y-190435380D01*
X172175666Y-190483000D01*
X172223285Y-190530619D01*
X172270904Y-190625857D01*
X172270904Y-190721095D01*
X172223285Y-190816333D01*
X172175666Y-190863952D01*
X172080428Y-190911571D01*
X171747095Y-190911571D01*
X88260428Y-190911571D02*
X88403285Y-190959190D01*
X88450904Y-191006809D01*
X88498523Y-191102047D01*
X88498523Y-191244904D01*
X88450904Y-191340142D01*
X88403285Y-191387761D01*
X88308047Y-191435380D01*
X87927095Y-191435380D01*
X87927095Y-190435380D01*
X88260428Y-190435380D01*
X88355666Y-190483000D01*
X88403285Y-190530619D01*
X88450904Y-190625857D01*
X88450904Y-190721095D01*
X88403285Y-190816333D01*
X88355666Y-190863952D01*
X88260428Y-190911571D01*
X87927095Y-190911571D01*
X80830904Y-182761400D02*
X80735666Y-182713780D01*
X80592809Y-182713780D01*
X80449952Y-182761400D01*
X80354714Y-182856638D01*
X80307095Y-182951876D01*
X80259476Y-183142352D01*
X80259476Y-183285209D01*
X80307095Y-183475685D01*
X80354714Y-183570923D01*
X80449952Y-183666161D01*
X80592809Y-183713780D01*
X80688047Y-183713780D01*
X80830904Y-183666161D01*
X80878523Y-183618542D01*
X80878523Y-183285209D01*
X80688047Y-183285209D01*
X73258523Y-191435380D02*
X72925190Y-190959190D01*
X72687095Y-191435380D02*
X72687095Y-190435380D01*
X73068047Y-190435380D01*
X73163285Y-190483000D01*
X73210904Y-190530619D01*
X73258523Y-190625857D01*
X73258523Y-190768714D01*
X73210904Y-190863952D01*
X73163285Y-190911571D01*
X73068047Y-190959190D01*
X72687095Y-190959190D01*
X45318523Y-191435380D02*
X44985190Y-190959190D01*
X44747095Y-191435380D02*
X44747095Y-190435380D01*
X45128047Y-190435380D01*
X45223285Y-190483000D01*
X45270904Y-190530619D01*
X45318523Y-190625857D01*
X45318523Y-190768714D01*
X45270904Y-190863952D01*
X45223285Y-190911571D01*
X45128047Y-190959190D01*
X44747095Y-190959190D01*
X52890904Y-182761400D02*
X52795666Y-182713780D01*
X52652809Y-182713780D01*
X52509952Y-182761400D01*
X52414714Y-182856638D01*
X52367095Y-182951876D01*
X52319476Y-183142352D01*
X52319476Y-183285209D01*
X52367095Y-183475685D01*
X52414714Y-183570923D01*
X52509952Y-183666161D01*
X52652809Y-183713780D01*
X52748047Y-183713780D01*
X52890904Y-183666161D01*
X52938523Y-183618542D01*
X52938523Y-183285209D01*
X52748047Y-183285209D01*
X60320428Y-190911571D02*
X60463285Y-190959190D01*
X60510904Y-191006809D01*
X60558523Y-191102047D01*
X60558523Y-191244904D01*
X60510904Y-191340142D01*
X60463285Y-191387761D01*
X60368047Y-191435380D01*
X59987095Y-191435380D01*
X59987095Y-190435380D01*
X60320428Y-190435380D01*
X60415666Y-190483000D01*
X60463285Y-190530619D01*
X60510904Y-190625857D01*
X60510904Y-190721095D01*
X60463285Y-190816333D01*
X60415666Y-190863952D01*
X60320428Y-190911571D01*
X59987095Y-190911571D01*
X52890904Y-238641400D02*
X52795666Y-238593780D01*
X52652809Y-238593780D01*
X52509952Y-238641400D01*
X52414714Y-238736638D01*
X52367095Y-238831876D01*
X52319476Y-239022352D01*
X52319476Y-239165209D01*
X52367095Y-239355685D01*
X52414714Y-239450923D01*
X52509952Y-239546161D01*
X52652809Y-239593780D01*
X52748047Y-239593780D01*
X52890904Y-239546161D01*
X52938523Y-239498542D01*
X52938523Y-239165209D01*
X52748047Y-239165209D01*
X60320428Y-246791571D02*
X60463285Y-246839190D01*
X60510904Y-246886809D01*
X60558523Y-246982047D01*
X60558523Y-247124904D01*
X60510904Y-247220142D01*
X60463285Y-247267761D01*
X60368047Y-247315380D01*
X59987095Y-247315380D01*
X59987095Y-246315380D01*
X60320428Y-246315380D01*
X60415666Y-246363000D01*
X60463285Y-246410619D01*
X60510904Y-246505857D01*
X60510904Y-246601095D01*
X60463285Y-246696333D01*
X60415666Y-246743952D01*
X60320428Y-246791571D01*
X59987095Y-246791571D01*
X116200428Y-218851571D02*
X116343285Y-218899190D01*
X116390904Y-218946809D01*
X116438523Y-219042047D01*
X116438523Y-219184904D01*
X116390904Y-219280142D01*
X116343285Y-219327761D01*
X116248047Y-219375380D01*
X115867095Y-219375380D01*
X115867095Y-218375380D01*
X116200428Y-218375380D01*
X116295666Y-218423000D01*
X116343285Y-218470619D01*
X116390904Y-218565857D01*
X116390904Y-218661095D01*
X116343285Y-218756333D01*
X116295666Y-218803952D01*
X116200428Y-218851571D01*
X115867095Y-218851571D01*
X136710904Y-210701400D02*
X136615666Y-210653780D01*
X136472809Y-210653780D01*
X136329952Y-210701400D01*
X136234714Y-210796638D01*
X136187095Y-210891876D01*
X136139476Y-211082352D01*
X136139476Y-211225209D01*
X136187095Y-211415685D01*
X136234714Y-211510923D01*
X136329952Y-211606161D01*
X136472809Y-211653780D01*
X136568047Y-211653780D01*
X136710904Y-211606161D01*
X136758523Y-211558542D01*
X136758523Y-211225209D01*
X136568047Y-211225209D01*
X101198523Y-219375380D02*
X100865190Y-218899190D01*
X100627095Y-219375380D02*
X100627095Y-218375380D01*
X101008047Y-218375380D01*
X101103285Y-218423000D01*
X101150904Y-218470619D01*
X101198523Y-218565857D01*
X101198523Y-218708714D01*
X101150904Y-218803952D01*
X101103285Y-218851571D01*
X101008047Y-218899190D01*
X100627095Y-218899190D01*
X164650904Y-238641400D02*
X164555666Y-238593780D01*
X164412809Y-238593780D01*
X164269952Y-238641400D01*
X164174714Y-238736638D01*
X164127095Y-238831876D01*
X164079476Y-239022352D01*
X164079476Y-239165209D01*
X164127095Y-239355685D01*
X164174714Y-239450923D01*
X164269952Y-239546161D01*
X164412809Y-239593780D01*
X164508047Y-239593780D01*
X164650904Y-239546161D01*
X164698523Y-239498542D01*
X164698523Y-239165209D01*
X164508047Y-239165209D01*
X80830904Y-238641400D02*
X80735666Y-238593780D01*
X80592809Y-238593780D01*
X80449952Y-238641400D01*
X80354714Y-238736638D01*
X80307095Y-238831876D01*
X80259476Y-239022352D01*
X80259476Y-239165209D01*
X80307095Y-239355685D01*
X80354714Y-239450923D01*
X80449952Y-239546161D01*
X80592809Y-239593780D01*
X80688047Y-239593780D01*
X80830904Y-239546161D01*
X80878523Y-239498542D01*
X80878523Y-239165209D01*
X80688047Y-239165209D01*
X88260428Y-246791571D02*
X88403285Y-246839190D01*
X88450904Y-246886809D01*
X88498523Y-246982047D01*
X88498523Y-247124904D01*
X88450904Y-247220142D01*
X88403285Y-247267761D01*
X88308047Y-247315380D01*
X87927095Y-247315380D01*
X87927095Y-246315380D01*
X88260428Y-246315380D01*
X88355666Y-246363000D01*
X88403285Y-246410619D01*
X88450904Y-246505857D01*
X88450904Y-246601095D01*
X88403285Y-246696333D01*
X88355666Y-246743952D01*
X88260428Y-246791571D01*
X87927095Y-246791571D01*
X45318523Y-247315380D02*
X44985190Y-246839190D01*
X44747095Y-247315380D02*
X44747095Y-246315380D01*
X45128047Y-246315380D01*
X45223285Y-246363000D01*
X45270904Y-246410619D01*
X45318523Y-246505857D01*
X45318523Y-246648714D01*
X45270904Y-246743952D01*
X45223285Y-246791571D01*
X45128047Y-246839190D01*
X44747095Y-246839190D01*
X172080428Y-246791571D02*
X172223285Y-246839190D01*
X172270904Y-246886809D01*
X172318523Y-246982047D01*
X172318523Y-247124904D01*
X172270904Y-247220142D01*
X172223285Y-247267761D01*
X172128047Y-247315380D01*
X171747095Y-247315380D01*
X171747095Y-246315380D01*
X172080428Y-246315380D01*
X172175666Y-246363000D01*
X172223285Y-246410619D01*
X172270904Y-246505857D01*
X172270904Y-246601095D01*
X172223285Y-246696333D01*
X172175666Y-246743952D01*
X172080428Y-246791571D01*
X171747095Y-246791571D01*
X73258523Y-247315380D02*
X72925190Y-246839190D01*
X72687095Y-247315380D02*
X72687095Y-246315380D01*
X73068047Y-246315380D01*
X73163285Y-246363000D01*
X73210904Y-246410619D01*
X73258523Y-246505857D01*
X73258523Y-246648714D01*
X73210904Y-246743952D01*
X73163285Y-246791571D01*
X73068047Y-246839190D01*
X72687095Y-246839190D01*
X157078523Y-247315380D02*
X156745190Y-246839190D01*
X156507095Y-247315380D02*
X156507095Y-246315380D01*
X156888047Y-246315380D01*
X156983285Y-246363000D01*
X157030904Y-246410619D01*
X157078523Y-246505857D01*
X157078523Y-246648714D01*
X157030904Y-246743952D01*
X156983285Y-246791571D01*
X156888047Y-246839190D01*
X156507095Y-246839190D01*
X212958523Y-219375380D02*
X212625190Y-218899190D01*
X212387095Y-219375380D02*
X212387095Y-218375380D01*
X212768047Y-218375380D01*
X212863285Y-218423000D01*
X212910904Y-218470619D01*
X212958523Y-218565857D01*
X212958523Y-218708714D01*
X212910904Y-218803952D01*
X212863285Y-218851571D01*
X212768047Y-218899190D01*
X212387095Y-218899190D01*
X227960428Y-218851571D02*
X228103285Y-218899190D01*
X228150904Y-218946809D01*
X228198523Y-219042047D01*
X228198523Y-219184904D01*
X228150904Y-219280142D01*
X228103285Y-219327761D01*
X228008047Y-219375380D01*
X227627095Y-219375380D01*
X227627095Y-218375380D01*
X227960428Y-218375380D01*
X228055666Y-218423000D01*
X228103285Y-218470619D01*
X228150904Y-218565857D01*
X228150904Y-218661095D01*
X228103285Y-218756333D01*
X228055666Y-218803952D01*
X227960428Y-218851571D01*
X227627095Y-218851571D01*
X248470904Y-210701400D02*
X248375666Y-210653780D01*
X248232809Y-210653780D01*
X248089952Y-210701400D01*
X247994714Y-210796638D01*
X247947095Y-210891876D01*
X247899476Y-211082352D01*
X247899476Y-211225209D01*
X247947095Y-211415685D01*
X247994714Y-211510923D01*
X248089952Y-211606161D01*
X248232809Y-211653780D01*
X248328047Y-211653780D01*
X248470904Y-211606161D01*
X248518523Y-211558542D01*
X248518523Y-211225209D01*
X248328047Y-211225209D01*
X255900428Y-218851571D02*
X256043285Y-218899190D01*
X256090904Y-218946809D01*
X256138523Y-219042047D01*
X256138523Y-219184904D01*
X256090904Y-219280142D01*
X256043285Y-219327761D01*
X255948047Y-219375380D01*
X255567095Y-219375380D01*
X255567095Y-218375380D01*
X255900428Y-218375380D01*
X255995666Y-218423000D01*
X256043285Y-218470619D01*
X256090904Y-218565857D01*
X256090904Y-218661095D01*
X256043285Y-218756333D01*
X255995666Y-218803952D01*
X255900428Y-218851571D01*
X255567095Y-218851571D01*
X220530904Y-210701400D02*
X220435666Y-210653780D01*
X220292809Y-210653780D01*
X220149952Y-210701400D01*
X220054714Y-210796638D01*
X220007095Y-210891876D01*
X219959476Y-211082352D01*
X219959476Y-211225209D01*
X220007095Y-211415685D01*
X220054714Y-211510923D01*
X220149952Y-211606161D01*
X220292809Y-211653780D01*
X220388047Y-211653780D01*
X220530904Y-211606161D01*
X220578523Y-211558542D01*
X220578523Y-211225209D01*
X220388047Y-211225209D01*
X240898523Y-219375380D02*
X240565190Y-218899190D01*
X240327095Y-219375380D02*
X240327095Y-218375380D01*
X240708047Y-218375380D01*
X240803285Y-218423000D01*
X240850904Y-218470619D01*
X240898523Y-218565857D01*
X240898523Y-218708714D01*
X240850904Y-218803952D01*
X240803285Y-218851571D01*
X240708047Y-218899190D01*
X240327095Y-218899190D01*
X200020428Y-218851571D02*
X200163285Y-218899190D01*
X200210904Y-218946809D01*
X200258523Y-219042047D01*
X200258523Y-219184904D01*
X200210904Y-219280142D01*
X200163285Y-219327761D01*
X200068047Y-219375380D01*
X199687095Y-219375380D01*
X199687095Y-218375380D01*
X200020428Y-218375380D01*
X200115666Y-218423000D01*
X200163285Y-218470619D01*
X200210904Y-218565857D01*
X200210904Y-218661095D01*
X200163285Y-218756333D01*
X200115666Y-218803952D01*
X200020428Y-218851571D01*
X199687095Y-218851571D01*
X192590904Y-210701400D02*
X192495666Y-210653780D01*
X192352809Y-210653780D01*
X192209952Y-210701400D01*
X192114714Y-210796638D01*
X192067095Y-210891876D01*
X192019476Y-211082352D01*
X192019476Y-211225209D01*
X192067095Y-211415685D01*
X192114714Y-211510923D01*
X192209952Y-211606161D01*
X192352809Y-211653780D01*
X192448047Y-211653780D01*
X192590904Y-211606161D01*
X192638523Y-211558542D01*
X192638523Y-211225209D01*
X192448047Y-211225209D01*
X185018523Y-219375380D02*
X184685190Y-218899190D01*
X184447095Y-219375380D02*
X184447095Y-218375380D01*
X184828047Y-218375380D01*
X184923285Y-218423000D01*
X184970904Y-218470619D01*
X185018523Y-218565857D01*
X185018523Y-218708714D01*
X184970904Y-218803952D01*
X184923285Y-218851571D01*
X184828047Y-218899190D01*
X184447095Y-218899190D01*
X157078523Y-219375380D02*
X156745190Y-218899190D01*
X156507095Y-219375380D02*
X156507095Y-218375380D01*
X156888047Y-218375380D01*
X156983285Y-218423000D01*
X157030904Y-218470619D01*
X157078523Y-218565857D01*
X157078523Y-218708714D01*
X157030904Y-218803952D01*
X156983285Y-218851571D01*
X156888047Y-218899190D01*
X156507095Y-218899190D01*
X164650904Y-210701400D02*
X164555666Y-210653780D01*
X164412809Y-210653780D01*
X164269952Y-210701400D01*
X164174714Y-210796638D01*
X164127095Y-210891876D01*
X164079476Y-211082352D01*
X164079476Y-211225209D01*
X164127095Y-211415685D01*
X164174714Y-211510923D01*
X164269952Y-211606161D01*
X164412809Y-211653780D01*
X164508047Y-211653780D01*
X164650904Y-211606161D01*
X164698523Y-211558542D01*
X164698523Y-211225209D01*
X164508047Y-211225209D01*
X172080428Y-218851571D02*
X172223285Y-218899190D01*
X172270904Y-218946809D01*
X172318523Y-219042047D01*
X172318523Y-219184904D01*
X172270904Y-219280142D01*
X172223285Y-219327761D01*
X172128047Y-219375380D01*
X171747095Y-219375380D01*
X171747095Y-218375380D01*
X172080428Y-218375380D01*
X172175666Y-218423000D01*
X172223285Y-218470619D01*
X172270904Y-218565857D01*
X172270904Y-218661095D01*
X172223285Y-218756333D01*
X172175666Y-218803952D01*
X172080428Y-218851571D01*
X171747095Y-218851571D01*
X116200428Y-246791571D02*
X116343285Y-246839190D01*
X116390904Y-246886809D01*
X116438523Y-246982047D01*
X116438523Y-247124904D01*
X116390904Y-247220142D01*
X116343285Y-247267761D01*
X116248047Y-247315380D01*
X115867095Y-247315380D01*
X115867095Y-246315380D01*
X116200428Y-246315380D01*
X116295666Y-246363000D01*
X116343285Y-246410619D01*
X116390904Y-246505857D01*
X116390904Y-246601095D01*
X116343285Y-246696333D01*
X116295666Y-246743952D01*
X116200428Y-246791571D01*
X115867095Y-246791571D01*
X136710904Y-238641400D02*
X136615666Y-238593780D01*
X136472809Y-238593780D01*
X136329952Y-238641400D01*
X136234714Y-238736638D01*
X136187095Y-238831876D01*
X136139476Y-239022352D01*
X136139476Y-239165209D01*
X136187095Y-239355685D01*
X136234714Y-239450923D01*
X136329952Y-239546161D01*
X136472809Y-239593780D01*
X136568047Y-239593780D01*
X136710904Y-239546161D01*
X136758523Y-239498542D01*
X136758523Y-239165209D01*
X136568047Y-239165209D01*
X101198523Y-247315380D02*
X100865190Y-246839190D01*
X100627095Y-247315380D02*
X100627095Y-246315380D01*
X101008047Y-246315380D01*
X101103285Y-246363000D01*
X101150904Y-246410619D01*
X101198523Y-246505857D01*
X101198523Y-246648714D01*
X101150904Y-246743952D01*
X101103285Y-246791571D01*
X101008047Y-246839190D01*
X100627095Y-246839190D01*
X144140428Y-246791571D02*
X144283285Y-246839190D01*
X144330904Y-246886809D01*
X144378523Y-246982047D01*
X144378523Y-247124904D01*
X144330904Y-247220142D01*
X144283285Y-247267761D01*
X144188047Y-247315380D01*
X143807095Y-247315380D01*
X143807095Y-246315380D01*
X144140428Y-246315380D01*
X144235666Y-246363000D01*
X144283285Y-246410619D01*
X144330904Y-246505857D01*
X144330904Y-246601095D01*
X144283285Y-246696333D01*
X144235666Y-246743952D01*
X144140428Y-246791571D01*
X143807095Y-246791571D01*
X108770904Y-238641400D02*
X108675666Y-238593780D01*
X108532809Y-238593780D01*
X108389952Y-238641400D01*
X108294714Y-238736638D01*
X108247095Y-238831876D01*
X108199476Y-239022352D01*
X108199476Y-239165209D01*
X108247095Y-239355685D01*
X108294714Y-239450923D01*
X108389952Y-239546161D01*
X108532809Y-239593780D01*
X108628047Y-239593780D01*
X108770904Y-239546161D01*
X108818523Y-239498542D01*
X108818523Y-239165209D01*
X108628047Y-239165209D01*
X129138523Y-247315380D02*
X128805190Y-246839190D01*
X128567095Y-247315380D02*
X128567095Y-246315380D01*
X128948047Y-246315380D01*
X129043285Y-246363000D01*
X129090904Y-246410619D01*
X129138523Y-246505857D01*
X129138523Y-246648714D01*
X129090904Y-246743952D01*
X129043285Y-246791571D01*
X128948047Y-246839190D01*
X128567095Y-246839190D01*
X212958523Y-247315380D02*
X212625190Y-246839190D01*
X212387095Y-247315380D02*
X212387095Y-246315380D01*
X212768047Y-246315380D01*
X212863285Y-246363000D01*
X212910904Y-246410619D01*
X212958523Y-246505857D01*
X212958523Y-246648714D01*
X212910904Y-246743952D01*
X212863285Y-246791571D01*
X212768047Y-246839190D01*
X212387095Y-246839190D01*
X227960428Y-246791571D02*
X228103285Y-246839190D01*
X228150904Y-246886809D01*
X228198523Y-246982047D01*
X228198523Y-247124904D01*
X228150904Y-247220142D01*
X228103285Y-247267761D01*
X228008047Y-247315380D01*
X227627095Y-247315380D01*
X227627095Y-246315380D01*
X227960428Y-246315380D01*
X228055666Y-246363000D01*
X228103285Y-246410619D01*
X228150904Y-246505857D01*
X228150904Y-246601095D01*
X228103285Y-246696333D01*
X228055666Y-246743952D01*
X227960428Y-246791571D01*
X227627095Y-246791571D01*
X248470904Y-238641400D02*
X248375666Y-238593780D01*
X248232809Y-238593780D01*
X248089952Y-238641400D01*
X247994714Y-238736638D01*
X247947095Y-238831876D01*
X247899476Y-239022352D01*
X247899476Y-239165209D01*
X247947095Y-239355685D01*
X247994714Y-239450923D01*
X248089952Y-239546161D01*
X248232809Y-239593780D01*
X248328047Y-239593780D01*
X248470904Y-239546161D01*
X248518523Y-239498542D01*
X248518523Y-239165209D01*
X248328047Y-239165209D01*
X255900428Y-246791571D02*
X256043285Y-246839190D01*
X256090904Y-246886809D01*
X256138523Y-246982047D01*
X256138523Y-247124904D01*
X256090904Y-247220142D01*
X256043285Y-247267761D01*
X255948047Y-247315380D01*
X255567095Y-247315380D01*
X255567095Y-246315380D01*
X255900428Y-246315380D01*
X255995666Y-246363000D01*
X256043285Y-246410619D01*
X256090904Y-246505857D01*
X256090904Y-246601095D01*
X256043285Y-246696333D01*
X255995666Y-246743952D01*
X255900428Y-246791571D01*
X255567095Y-246791571D01*
X220530904Y-238641400D02*
X220435666Y-238593780D01*
X220292809Y-238593780D01*
X220149952Y-238641400D01*
X220054714Y-238736638D01*
X220007095Y-238831876D01*
X219959476Y-239022352D01*
X219959476Y-239165209D01*
X220007095Y-239355685D01*
X220054714Y-239450923D01*
X220149952Y-239546161D01*
X220292809Y-239593780D01*
X220388047Y-239593780D01*
X220530904Y-239546161D01*
X220578523Y-239498542D01*
X220578523Y-239165209D01*
X220388047Y-239165209D01*
X240898523Y-247315380D02*
X240565190Y-246839190D01*
X240327095Y-247315380D02*
X240327095Y-246315380D01*
X240708047Y-246315380D01*
X240803285Y-246363000D01*
X240850904Y-246410619D01*
X240898523Y-246505857D01*
X240898523Y-246648714D01*
X240850904Y-246743952D01*
X240803285Y-246791571D01*
X240708047Y-246839190D01*
X240327095Y-246839190D01*
X185018523Y-247315380D02*
X184685190Y-246839190D01*
X184447095Y-247315380D02*
X184447095Y-246315380D01*
X184828047Y-246315380D01*
X184923285Y-246363000D01*
X184970904Y-246410619D01*
X185018523Y-246505857D01*
X185018523Y-246648714D01*
X184970904Y-246743952D01*
X184923285Y-246791571D01*
X184828047Y-246839190D01*
X184447095Y-246839190D01*
X192590904Y-238641400D02*
X192495666Y-238593780D01*
X192352809Y-238593780D01*
X192209952Y-238641400D01*
X192114714Y-238736638D01*
X192067095Y-238831876D01*
X192019476Y-239022352D01*
X192019476Y-239165209D01*
X192067095Y-239355685D01*
X192114714Y-239450923D01*
X192209952Y-239546161D01*
X192352809Y-239593780D01*
X192448047Y-239593780D01*
X192590904Y-239546161D01*
X192638523Y-239498542D01*
X192638523Y-239165209D01*
X192448047Y-239165209D01*
X200020428Y-246791571D02*
X200163285Y-246839190D01*
X200210904Y-246886809D01*
X200258523Y-246982047D01*
X200258523Y-247124904D01*
X200210904Y-247220142D01*
X200163285Y-247267761D01*
X200068047Y-247315380D01*
X199687095Y-247315380D01*
X199687095Y-246315380D01*
X200020428Y-246315380D01*
X200115666Y-246363000D01*
X200163285Y-246410619D01*
X200210904Y-246505857D01*
X200210904Y-246601095D01*
X200163285Y-246696333D01*
X200115666Y-246743952D01*
X200020428Y-246791571D01*
X199687095Y-246791571D01*
X88260428Y-218851571D02*
X88403285Y-218899190D01*
X88450904Y-218946809D01*
X88498523Y-219042047D01*
X88498523Y-219184904D01*
X88450904Y-219280142D01*
X88403285Y-219327761D01*
X88308047Y-219375380D01*
X87927095Y-219375380D01*
X87927095Y-218375380D01*
X88260428Y-218375380D01*
X88355666Y-218423000D01*
X88403285Y-218470619D01*
X88450904Y-218565857D01*
X88450904Y-218661095D01*
X88403285Y-218756333D01*
X88355666Y-218803952D01*
X88260428Y-218851571D01*
X87927095Y-218851571D01*
X80830904Y-210701400D02*
X80735666Y-210653780D01*
X80592809Y-210653780D01*
X80449952Y-210701400D01*
X80354714Y-210796638D01*
X80307095Y-210891876D01*
X80259476Y-211082352D01*
X80259476Y-211225209D01*
X80307095Y-211415685D01*
X80354714Y-211510923D01*
X80449952Y-211606161D01*
X80592809Y-211653780D01*
X80688047Y-211653780D01*
X80830904Y-211606161D01*
X80878523Y-211558542D01*
X80878523Y-211225209D01*
X80688047Y-211225209D01*
X73258523Y-219375380D02*
X72925190Y-218899190D01*
X72687095Y-219375380D02*
X72687095Y-218375380D01*
X73068047Y-218375380D01*
X73163285Y-218423000D01*
X73210904Y-218470619D01*
X73258523Y-218565857D01*
X73258523Y-218708714D01*
X73210904Y-218803952D01*
X73163285Y-218851571D01*
X73068047Y-218899190D01*
X72687095Y-218899190D01*
X45318523Y-219375380D02*
X44985190Y-218899190D01*
X44747095Y-219375380D02*
X44747095Y-218375380D01*
X45128047Y-218375380D01*
X45223285Y-218423000D01*
X45270904Y-218470619D01*
X45318523Y-218565857D01*
X45318523Y-218708714D01*
X45270904Y-218803952D01*
X45223285Y-218851571D01*
X45128047Y-218899190D01*
X44747095Y-218899190D01*
X52890904Y-210701400D02*
X52795666Y-210653780D01*
X52652809Y-210653780D01*
X52509952Y-210701400D01*
X52414714Y-210796638D01*
X52367095Y-210891876D01*
X52319476Y-211082352D01*
X52319476Y-211225209D01*
X52367095Y-211415685D01*
X52414714Y-211510923D01*
X52509952Y-211606161D01*
X52652809Y-211653780D01*
X52748047Y-211653780D01*
X52890904Y-211606161D01*
X52938523Y-211558542D01*
X52938523Y-211225209D01*
X52748047Y-211225209D01*
X60320428Y-218851571D02*
X60463285Y-218899190D01*
X60510904Y-218946809D01*
X60558523Y-219042047D01*
X60558523Y-219184904D01*
X60510904Y-219280142D01*
X60463285Y-219327761D01*
X60368047Y-219375380D01*
X59987095Y-219375380D01*
X59987095Y-218375380D01*
X60320428Y-218375380D01*
X60415666Y-218423000D01*
X60463285Y-218470619D01*
X60510904Y-218565857D01*
X60510904Y-218661095D01*
X60463285Y-218756333D01*
X60415666Y-218803952D01*
X60320428Y-218851571D01*
X59987095Y-218851571D01*
X144140428Y-218851571D02*
X144283285Y-218899190D01*
X144330904Y-218946809D01*
X144378523Y-219042047D01*
X144378523Y-219184904D01*
X144330904Y-219280142D01*
X144283285Y-219327761D01*
X144188047Y-219375380D01*
X143807095Y-219375380D01*
X143807095Y-218375380D01*
X144140428Y-218375380D01*
X144235666Y-218423000D01*
X144283285Y-218470619D01*
X144330904Y-218565857D01*
X144330904Y-218661095D01*
X144283285Y-218756333D01*
X144235666Y-218803952D01*
X144140428Y-218851571D01*
X143807095Y-218851571D01*
X108770904Y-210701400D02*
X108675666Y-210653780D01*
X108532809Y-210653780D01*
X108389952Y-210701400D01*
X108294714Y-210796638D01*
X108247095Y-210891876D01*
X108199476Y-211082352D01*
X108199476Y-211225209D01*
X108247095Y-211415685D01*
X108294714Y-211510923D01*
X108389952Y-211606161D01*
X108532809Y-211653780D01*
X108628047Y-211653780D01*
X108770904Y-211606161D01*
X108818523Y-211558542D01*
X108818523Y-211225209D01*
X108628047Y-211225209D01*
X129138523Y-219375380D02*
X128805190Y-218899190D01*
X128567095Y-219375380D02*
X128567095Y-218375380D01*
X128948047Y-218375380D01*
X129043285Y-218423000D01*
X129090904Y-218470619D01*
X129138523Y-218565857D01*
X129138523Y-218708714D01*
X129090904Y-218803952D01*
X129043285Y-218851571D01*
X128948047Y-218899190D01*
X128567095Y-218899190D01*
X113866776Y-93467180D02*
X113866776Y-92467180D01*
X114200109Y-93181466D01*
X114533442Y-92467180D01*
X114533442Y-93467180D01*
X115009633Y-93467180D02*
X115009633Y-92467180D01*
X115581061Y-93467180D02*
X115152490Y-92895752D01*
X115581061Y-92467180D02*
X115009633Y-93038609D01*
X116533442Y-93467180D02*
X115962014Y-93467180D01*
X116247728Y-93467180D02*
X116247728Y-92467180D01*
X116152490Y-92610038D01*
X116057252Y-92705276D01*
X115962014Y-92752895D01*
X204819404Y-192124080D02*
X204819404Y-192933604D01*
X204867023Y-193028842D01*
X204914642Y-193076461D01*
X205009880Y-193124080D01*
X205200357Y-193124080D01*
X205295595Y-193076461D01*
X205343214Y-193028842D01*
X205390833Y-192933604D01*
X205390833Y-192124080D01*
X206390833Y-193124080D02*
X205819404Y-193124080D01*
X206105119Y-193124080D02*
X206105119Y-192124080D01*
X206009880Y-192266938D01*
X205914642Y-192362176D01*
X205819404Y-192409795D01*
X206771785Y-192219319D02*
X206819404Y-192171700D01*
X206914642Y-192124080D01*
X207152738Y-192124080D01*
X207247976Y-192171700D01*
X207295595Y-192219319D01*
X207343214Y-192314557D01*
X207343214Y-192409795D01*
X207295595Y-192552652D01*
X206724166Y-193124080D01*
X207343214Y-193124080D01*
X147253366Y-30097480D02*
X147253366Y-30811766D01*
X147205747Y-30954623D01*
X147110509Y-31049861D01*
X146967652Y-31097480D01*
X146872414Y-31097480D01*
X148253366Y-31097480D02*
X147681938Y-31097480D01*
X147967652Y-31097480D02*
X147967652Y-30097480D01*
X147872414Y-30240338D01*
X147777176Y-30335576D01*
X147681938Y-30383195D01*
X124702842Y-75352090D02*
X124750461Y-75399709D01*
X124798080Y-75542566D01*
X124798080Y-75637804D01*
X124750461Y-75780661D01*
X124655223Y-75875900D01*
X124559985Y-75923519D01*
X124369509Y-75971138D01*
X124226652Y-75971138D01*
X124036176Y-75923519D01*
X123940938Y-75875900D01*
X123845700Y-75780661D01*
X123798080Y-75637804D01*
X123798080Y-75542566D01*
X123845700Y-75399709D01*
X123893319Y-75352090D01*
X124798080Y-74923519D02*
X123798080Y-74923519D01*
X124798080Y-74352090D01*
X123798080Y-74352090D01*
X123798080Y-74018757D02*
X123798080Y-73447328D01*
X124798080Y-73733042D02*
X123798080Y-73733042D01*
X124798080Y-72637804D02*
X124798080Y-73113995D01*
X123798080Y-73113995D01*
X124798080Y-71780661D02*
X124798080Y-72352090D01*
X124798080Y-72066376D02*
X123798080Y-72066376D01*
X123940938Y-72161614D01*
X124036176Y-72256852D01*
X124083795Y-72352090D01*
X205371795Y-80389480D02*
X205371795Y-81199004D01*
X205419414Y-81294242D01*
X205467033Y-81341861D01*
X205562271Y-81389480D01*
X205752747Y-81389480D01*
X205847985Y-81341861D01*
X205895604Y-81294242D01*
X205943223Y-81199004D01*
X205943223Y-80389480D01*
X206847985Y-80722814D02*
X206847985Y-81389480D01*
X206609890Y-80341861D02*
X206371795Y-81056147D01*
X206990842Y-81056147D01*
X113339642Y-82621380D02*
X113006309Y-82145190D01*
X112768214Y-82621380D02*
X112768214Y-81621380D01*
X113149166Y-81621380D01*
X113244404Y-81669000D01*
X113292023Y-81716619D01*
X113339642Y-81811857D01*
X113339642Y-81954714D01*
X113292023Y-82049952D01*
X113244404Y-82097571D01*
X113149166Y-82145190D01*
X112768214Y-82145190D01*
X114196785Y-81954714D02*
X114196785Y-82621380D01*
X113958690Y-81573761D02*
X113720595Y-82288047D01*
X114339642Y-82288047D01*
X115244404Y-82621380D02*
X114672976Y-82621380D01*
X114958690Y-82621380D02*
X114958690Y-81621380D01*
X114863452Y-81764238D01*
X114768214Y-81859476D01*
X114672976Y-81907095D01*
X204882904Y-248105680D02*
X204882904Y-248915204D01*
X204930523Y-249010442D01*
X204978142Y-249058061D01*
X205073380Y-249105680D01*
X205263857Y-249105680D01*
X205359095Y-249058061D01*
X205406714Y-249010442D01*
X205454333Y-248915204D01*
X205454333Y-248105680D01*
X206454333Y-249105680D02*
X205882904Y-249105680D01*
X206168619Y-249105680D02*
X206168619Y-248105680D01*
X206073380Y-248248538D01*
X205978142Y-248343776D01*
X205882904Y-248391395D01*
X207311476Y-248105680D02*
X207121000Y-248105680D01*
X207025761Y-248153300D01*
X206978142Y-248200919D01*
X206882904Y-248343776D01*
X206835285Y-248534252D01*
X206835285Y-248915204D01*
X206882904Y-249010442D01*
X206930523Y-249058061D01*
X207025761Y-249105680D01*
X207216238Y-249105680D01*
X207311476Y-249058061D01*
X207359095Y-249010442D01*
X207406714Y-248915204D01*
X207406714Y-248677109D01*
X207359095Y-248581871D01*
X207311476Y-248534252D01*
X207216238Y-248486633D01*
X207025761Y-248486633D01*
X206930523Y-248534252D01*
X206882904Y-248581871D01*
X206835285Y-248677109D01*
X93186404Y-248004080D02*
X93186404Y-248813604D01*
X93234023Y-248908842D01*
X93281642Y-248956461D01*
X93376880Y-249004080D01*
X93567357Y-249004080D01*
X93662595Y-248956461D01*
X93710214Y-248908842D01*
X93757833Y-248813604D01*
X93757833Y-248004080D01*
X94757833Y-249004080D02*
X94186404Y-249004080D01*
X94472119Y-249004080D02*
X94472119Y-248004080D01*
X94376880Y-248146938D01*
X94281642Y-248242176D01*
X94186404Y-248289795D01*
X95662595Y-248004080D02*
X95186404Y-248004080D01*
X95138785Y-248480271D01*
X95186404Y-248432652D01*
X95281642Y-248385033D01*
X95519738Y-248385033D01*
X95614976Y-248432652D01*
X95662595Y-248480271D01*
X95710214Y-248575509D01*
X95710214Y-248813604D01*
X95662595Y-248908842D01*
X95614976Y-248956461D01*
X95519738Y-249004080D01*
X95281642Y-249004080D01*
X95186404Y-248956461D01*
X95138785Y-248908842D01*
X204921004Y-220178380D02*
X204921004Y-220987904D01*
X204968623Y-221083142D01*
X205016242Y-221130761D01*
X205111480Y-221178380D01*
X205301957Y-221178380D01*
X205397195Y-221130761D01*
X205444814Y-221083142D01*
X205492433Y-220987904D01*
X205492433Y-220178380D01*
X206492433Y-221178380D02*
X205921004Y-221178380D01*
X206206719Y-221178380D02*
X206206719Y-220178380D01*
X206111480Y-220321238D01*
X206016242Y-220416476D01*
X205921004Y-220464095D01*
X207349576Y-220511714D02*
X207349576Y-221178380D01*
X207111480Y-220130761D02*
X206873385Y-220845047D01*
X207492433Y-220845047D01*
X93110204Y-220013280D02*
X93110204Y-220822804D01*
X93157823Y-220918042D01*
X93205442Y-220965661D01*
X93300680Y-221013280D01*
X93491157Y-221013280D01*
X93586395Y-220965661D01*
X93634014Y-220918042D01*
X93681633Y-220822804D01*
X93681633Y-220013280D01*
X94681633Y-221013280D02*
X94110204Y-221013280D01*
X94395919Y-221013280D02*
X94395919Y-220013280D01*
X94300680Y-220156138D01*
X94205442Y-220251376D01*
X94110204Y-220298995D01*
X95014966Y-220013280D02*
X95634014Y-220013280D01*
X95300680Y-220394233D01*
X95443538Y-220394233D01*
X95538776Y-220441852D01*
X95586395Y-220489471D01*
X95634014Y-220584709D01*
X95634014Y-220822804D01*
X95586395Y-220918042D01*
X95538776Y-220965661D01*
X95443538Y-221013280D01*
X95157823Y-221013280D01*
X95062585Y-220965661D01*
X95014966Y-220918042D01*
X93021304Y-192200280D02*
X93021304Y-193009804D01*
X93068923Y-193105042D01*
X93116542Y-193152661D01*
X93211780Y-193200280D01*
X93402257Y-193200280D01*
X93497495Y-193152661D01*
X93545114Y-193105042D01*
X93592733Y-193009804D01*
X93592733Y-192200280D01*
X94592733Y-193200280D02*
X94021304Y-193200280D01*
X94307019Y-193200280D02*
X94307019Y-192200280D01*
X94211780Y-192343138D01*
X94116542Y-192438376D01*
X94021304Y-192485995D01*
X95545114Y-193200280D02*
X94973685Y-193200280D01*
X95259400Y-193200280D02*
X95259400Y-192200280D01*
X95164161Y-192343138D01*
X95068923Y-192438376D01*
X94973685Y-192485995D01*
X204819404Y-164374580D02*
X204819404Y-165184104D01*
X204867023Y-165279342D01*
X204914642Y-165326961D01*
X205009880Y-165374580D01*
X205200357Y-165374580D01*
X205295595Y-165326961D01*
X205343214Y-165279342D01*
X205390833Y-165184104D01*
X205390833Y-164374580D01*
X206390833Y-165374580D02*
X205819404Y-165374580D01*
X206105119Y-165374580D02*
X206105119Y-164374580D01*
X206009880Y-164517438D01*
X205914642Y-164612676D01*
X205819404Y-164660295D01*
X207009880Y-164374580D02*
X207105119Y-164374580D01*
X207200357Y-164422200D01*
X207247976Y-164469819D01*
X207295595Y-164565057D01*
X207343214Y-164755533D01*
X207343214Y-164993628D01*
X207295595Y-165184104D01*
X207247976Y-165279342D01*
X207200357Y-165326961D01*
X207105119Y-165374580D01*
X207009880Y-165374580D01*
X206914642Y-165326961D01*
X206867023Y-165279342D01*
X206819404Y-165184104D01*
X206771785Y-164993628D01*
X206771785Y-164755533D01*
X206819404Y-164565057D01*
X206867023Y-164469819D01*
X206914642Y-164422200D01*
X207009880Y-164374580D01*
X93662595Y-164133280D02*
X93662595Y-164942804D01*
X93710214Y-165038042D01*
X93757833Y-165085661D01*
X93853071Y-165133280D01*
X94043547Y-165133280D01*
X94138785Y-165085661D01*
X94186404Y-165038042D01*
X94234023Y-164942804D01*
X94234023Y-164133280D01*
X94757833Y-165133280D02*
X94948309Y-165133280D01*
X95043547Y-165085661D01*
X95091166Y-165038042D01*
X95186404Y-164895185D01*
X95234023Y-164704709D01*
X95234023Y-164323757D01*
X95186404Y-164228519D01*
X95138785Y-164180900D01*
X95043547Y-164133280D01*
X94853071Y-164133280D01*
X94757833Y-164180900D01*
X94710214Y-164228519D01*
X94662595Y-164323757D01*
X94662595Y-164561852D01*
X94710214Y-164657090D01*
X94757833Y-164704709D01*
X94853071Y-164752328D01*
X95043547Y-164752328D01*
X95138785Y-164704709D01*
X95186404Y-164657090D01*
X95234023Y-164561852D01*
X205359095Y-136510780D02*
X205359095Y-137320304D01*
X205406714Y-137415542D01*
X205454333Y-137463161D01*
X205549571Y-137510780D01*
X205740047Y-137510780D01*
X205835285Y-137463161D01*
X205882904Y-137415542D01*
X205930523Y-137320304D01*
X205930523Y-136510780D01*
X206549571Y-136939352D02*
X206454333Y-136891733D01*
X206406714Y-136844114D01*
X206359095Y-136748876D01*
X206359095Y-136701257D01*
X206406714Y-136606019D01*
X206454333Y-136558400D01*
X206549571Y-136510780D01*
X206740047Y-136510780D01*
X206835285Y-136558400D01*
X206882904Y-136606019D01*
X206930523Y-136701257D01*
X206930523Y-136748876D01*
X206882904Y-136844114D01*
X206835285Y-136891733D01*
X206740047Y-136939352D01*
X206549571Y-136939352D01*
X206454333Y-136986971D01*
X206406714Y-137034590D01*
X206359095Y-137129828D01*
X206359095Y-137320304D01*
X206406714Y-137415542D01*
X206454333Y-137463161D01*
X206549571Y-137510780D01*
X206740047Y-137510780D01*
X206835285Y-137463161D01*
X206882904Y-137415542D01*
X206930523Y-137320304D01*
X206930523Y-137129828D01*
X206882904Y-137034590D01*
X206835285Y-136986971D01*
X206740047Y-136939352D01*
X93662595Y-136244080D02*
X93662595Y-137053604D01*
X93710214Y-137148842D01*
X93757833Y-137196461D01*
X93853071Y-137244080D01*
X94043547Y-137244080D01*
X94138785Y-137196461D01*
X94186404Y-137148842D01*
X94234023Y-137053604D01*
X94234023Y-136244080D01*
X94614976Y-136244080D02*
X95281642Y-136244080D01*
X94853071Y-137244080D01*
X205435295Y-108443780D02*
X205435295Y-109253304D01*
X205482914Y-109348542D01*
X205530533Y-109396161D01*
X205625771Y-109443780D01*
X205816247Y-109443780D01*
X205911485Y-109396161D01*
X205959104Y-109348542D01*
X206006723Y-109253304D01*
X206006723Y-108443780D01*
X206911485Y-108443780D02*
X206721009Y-108443780D01*
X206625771Y-108491400D01*
X206578152Y-108539019D01*
X206482914Y-108681876D01*
X206435295Y-108872352D01*
X206435295Y-109253304D01*
X206482914Y-109348542D01*
X206530533Y-109396161D01*
X206625771Y-109443780D01*
X206816247Y-109443780D01*
X206911485Y-109396161D01*
X206959104Y-109348542D01*
X207006723Y-109253304D01*
X207006723Y-109015209D01*
X206959104Y-108919971D01*
X206911485Y-108872352D01*
X206816247Y-108824733D01*
X206625771Y-108824733D01*
X206530533Y-108872352D01*
X206482914Y-108919971D01*
X206435295Y-109015209D01*
X93599095Y-108227880D02*
X93599095Y-109037404D01*
X93646714Y-109132642D01*
X93694333Y-109180261D01*
X93789571Y-109227880D01*
X93980047Y-109227880D01*
X94075285Y-109180261D01*
X94122904Y-109132642D01*
X94170523Y-109037404D01*
X94170523Y-108227880D01*
X95122904Y-108227880D02*
X94646714Y-108227880D01*
X94599095Y-108704071D01*
X94646714Y-108656452D01*
X94741952Y-108608833D01*
X94980047Y-108608833D01*
X95075285Y-108656452D01*
X95122904Y-108704071D01*
X95170523Y-108799309D01*
X95170523Y-109037404D01*
X95122904Y-109132642D01*
X95075285Y-109180261D01*
X94980047Y-109227880D01*
X94741952Y-109227880D01*
X94646714Y-109180261D01*
X94599095Y-109132642D01*
X93586395Y-80338680D02*
X93586395Y-81148204D01*
X93634014Y-81243442D01*
X93681633Y-81291061D01*
X93776871Y-81338680D01*
X93967347Y-81338680D01*
X94062585Y-81291061D01*
X94110204Y-81243442D01*
X94157823Y-81148204D01*
X94157823Y-80338680D01*
X94538776Y-80338680D02*
X95157823Y-80338680D01*
X94824490Y-80719633D01*
X94967347Y-80719633D01*
X95062585Y-80767252D01*
X95110204Y-80814871D01*
X95157823Y-80910109D01*
X95157823Y-81148204D01*
X95110204Y-81243442D01*
X95062585Y-81291061D01*
X94967347Y-81338680D01*
X94681633Y-81338680D01*
X94586395Y-81291061D01*
X94538776Y-81243442D01*
X205409895Y-52551080D02*
X205409895Y-53360604D01*
X205457514Y-53455842D01*
X205505133Y-53503461D01*
X205600371Y-53551080D01*
X205790847Y-53551080D01*
X205886085Y-53503461D01*
X205933704Y-53455842D01*
X205981323Y-53360604D01*
X205981323Y-52551080D01*
X206409895Y-52646319D02*
X206457514Y-52598700D01*
X206552752Y-52551080D01*
X206790847Y-52551080D01*
X206886085Y-52598700D01*
X206933704Y-52646319D01*
X206981323Y-52741557D01*
X206981323Y-52836795D01*
X206933704Y-52979652D01*
X206362276Y-53551080D01*
X206981323Y-53551080D01*
X93611795Y-52347880D02*
X93611795Y-53157404D01*
X93659414Y-53252642D01*
X93707033Y-53300261D01*
X93802271Y-53347880D01*
X93992747Y-53347880D01*
X94087985Y-53300261D01*
X94135604Y-53252642D01*
X94183223Y-53157404D01*
X94183223Y-52347880D01*
X95183223Y-53347880D02*
X94611795Y-53347880D01*
X94897509Y-53347880D02*
X94897509Y-52347880D01*
X94802271Y-52490738D01*
X94707033Y-52585976D01*
X94611795Y-52633595D01*
X263742619Y-245275428D02*
X263695000Y-245370666D01*
X263599761Y-245465904D01*
X263456904Y-245608761D01*
X263409285Y-245704000D01*
X263409285Y-245799238D01*
X263647380Y-245751619D02*
X263599761Y-245846857D01*
X263504523Y-245942095D01*
X263314047Y-245989714D01*
X262980714Y-245989714D01*
X262790238Y-245942095D01*
X262695000Y-245846857D01*
X262647380Y-245751619D01*
X262647380Y-245561142D01*
X262695000Y-245465904D01*
X262790238Y-245370666D01*
X262980714Y-245323047D01*
X263314047Y-245323047D01*
X263504523Y-245370666D01*
X263599761Y-245465904D01*
X263647380Y-245561142D01*
X263647380Y-245751619D01*
X263647380Y-244370666D02*
X263647380Y-244942095D01*
X263647380Y-244656380D02*
X262647380Y-244656380D01*
X262790238Y-244751619D01*
X262885476Y-244846857D01*
X262933095Y-244942095D01*
X262647380Y-243513523D02*
X262647380Y-243704000D01*
X262695000Y-243799238D01*
X262742619Y-243846857D01*
X262885476Y-243942095D01*
X263075952Y-243989714D01*
X263456904Y-243989714D01*
X263552142Y-243942095D01*
X263599761Y-243894476D01*
X263647380Y-243799238D01*
X263647380Y-243608761D01*
X263599761Y-243513523D01*
X263552142Y-243465904D01*
X263456904Y-243418285D01*
X263218809Y-243418285D01*
X263123571Y-243465904D01*
X263075952Y-243513523D01*
X263028333Y-243608761D01*
X263028333Y-243799238D01*
X263075952Y-243894476D01*
X263123571Y-243942095D01*
X263218809Y-243989714D01*
X263742619Y-236639428D02*
X263695000Y-236734666D01*
X263599761Y-236829904D01*
X263456904Y-236972761D01*
X263409285Y-237068000D01*
X263409285Y-237163238D01*
X263647380Y-237115619D02*
X263599761Y-237210857D01*
X263504523Y-237306095D01*
X263314047Y-237353714D01*
X262980714Y-237353714D01*
X262790238Y-237306095D01*
X262695000Y-237210857D01*
X262647380Y-237115619D01*
X262647380Y-236925142D01*
X262695000Y-236829904D01*
X262790238Y-236734666D01*
X262980714Y-236687047D01*
X263314047Y-236687047D01*
X263504523Y-236734666D01*
X263599761Y-236829904D01*
X263647380Y-236925142D01*
X263647380Y-237115619D01*
X263647380Y-235734666D02*
X263647380Y-236306095D01*
X263647380Y-236020380D02*
X262647380Y-236020380D01*
X262790238Y-236115619D01*
X262885476Y-236210857D01*
X262933095Y-236306095D01*
X262647380Y-234829904D02*
X262647380Y-235306095D01*
X263123571Y-235353714D01*
X263075952Y-235306095D01*
X263028333Y-235210857D01*
X263028333Y-234972761D01*
X263075952Y-234877523D01*
X263123571Y-234829904D01*
X263218809Y-234782285D01*
X263456904Y-234782285D01*
X263552142Y-234829904D01*
X263599761Y-234877523D01*
X263647380Y-234972761D01*
X263647380Y-235210857D01*
X263599761Y-235306095D01*
X263552142Y-235353714D01*
X269330619Y-214033428D02*
X269283000Y-214128666D01*
X269187761Y-214223904D01*
X269044904Y-214366761D01*
X268997285Y-214462000D01*
X268997285Y-214557238D01*
X269235380Y-214509619D02*
X269187761Y-214604857D01*
X269092523Y-214700095D01*
X268902047Y-214747714D01*
X268568714Y-214747714D01*
X268378238Y-214700095D01*
X268283000Y-214604857D01*
X268235380Y-214509619D01*
X268235380Y-214319142D01*
X268283000Y-214223904D01*
X268378238Y-214128666D01*
X268568714Y-214081047D01*
X268902047Y-214081047D01*
X269092523Y-214128666D01*
X269187761Y-214223904D01*
X269235380Y-214319142D01*
X269235380Y-214509619D01*
X269235380Y-213128666D02*
X269235380Y-213700095D01*
X269235380Y-213414380D02*
X268235380Y-213414380D01*
X268378238Y-213509619D01*
X268473476Y-213604857D01*
X268521095Y-213700095D01*
X268568714Y-212271523D02*
X269235380Y-212271523D01*
X268187761Y-212509619D02*
X268902047Y-212747714D01*
X268902047Y-212128666D01*
X269330619Y-222669428D02*
X269283000Y-222764666D01*
X269187761Y-222859904D01*
X269044904Y-223002761D01*
X268997285Y-223098000D01*
X268997285Y-223193238D01*
X269235380Y-223145619D02*
X269187761Y-223240857D01*
X269092523Y-223336095D01*
X268902047Y-223383714D01*
X268568714Y-223383714D01*
X268378238Y-223336095D01*
X268283000Y-223240857D01*
X268235380Y-223145619D01*
X268235380Y-222955142D01*
X268283000Y-222859904D01*
X268378238Y-222764666D01*
X268568714Y-222717047D01*
X268902047Y-222717047D01*
X269092523Y-222764666D01*
X269187761Y-222859904D01*
X269235380Y-222955142D01*
X269235380Y-223145619D01*
X269235380Y-221764666D02*
X269235380Y-222336095D01*
X269235380Y-222050380D02*
X268235380Y-222050380D01*
X268378238Y-222145619D01*
X268473476Y-222240857D01*
X268521095Y-222336095D01*
X268235380Y-221431333D02*
X268235380Y-220812285D01*
X268616333Y-221145619D01*
X268616333Y-221002761D01*
X268663952Y-220907523D01*
X268711571Y-220859904D01*
X268806809Y-220812285D01*
X269044904Y-220812285D01*
X269140142Y-220859904D01*
X269187761Y-220907523D01*
X269235380Y-221002761D01*
X269235380Y-221288476D01*
X269187761Y-221383714D01*
X269140142Y-221431333D01*
X269330619Y-186093428D02*
X269283000Y-186188666D01*
X269187761Y-186283904D01*
X269044904Y-186426761D01*
X268997285Y-186522000D01*
X268997285Y-186617238D01*
X269235380Y-186569619D02*
X269187761Y-186664857D01*
X269092523Y-186760095D01*
X268902047Y-186807714D01*
X268568714Y-186807714D01*
X268378238Y-186760095D01*
X268283000Y-186664857D01*
X268235380Y-186569619D01*
X268235380Y-186379142D01*
X268283000Y-186283904D01*
X268378238Y-186188666D01*
X268568714Y-186141047D01*
X268902047Y-186141047D01*
X269092523Y-186188666D01*
X269187761Y-186283904D01*
X269235380Y-186379142D01*
X269235380Y-186569619D01*
X269235380Y-185188666D02*
X269235380Y-185760095D01*
X269235380Y-185474380D02*
X268235380Y-185474380D01*
X268378238Y-185569619D01*
X268473476Y-185664857D01*
X268521095Y-185760095D01*
X268330619Y-184807714D02*
X268283000Y-184760095D01*
X268235380Y-184664857D01*
X268235380Y-184426761D01*
X268283000Y-184331523D01*
X268330619Y-184283904D01*
X268425857Y-184236285D01*
X268521095Y-184236285D01*
X268663952Y-184283904D01*
X269235380Y-184855333D01*
X269235380Y-184236285D01*
X269330619Y-194729428D02*
X269283000Y-194824666D01*
X269187761Y-194919904D01*
X269044904Y-195062761D01*
X268997285Y-195158000D01*
X268997285Y-195253238D01*
X269235380Y-195205619D02*
X269187761Y-195300857D01*
X269092523Y-195396095D01*
X268902047Y-195443714D01*
X268568714Y-195443714D01*
X268378238Y-195396095D01*
X268283000Y-195300857D01*
X268235380Y-195205619D01*
X268235380Y-195015142D01*
X268283000Y-194919904D01*
X268378238Y-194824666D01*
X268568714Y-194777047D01*
X268902047Y-194777047D01*
X269092523Y-194824666D01*
X269187761Y-194919904D01*
X269235380Y-195015142D01*
X269235380Y-195205619D01*
X269235380Y-193824666D02*
X269235380Y-194396095D01*
X269235380Y-194110380D02*
X268235380Y-194110380D01*
X268378238Y-194205619D01*
X268473476Y-194300857D01*
X268521095Y-194396095D01*
X269235380Y-192872285D02*
X269235380Y-193443714D01*
X269235380Y-193158000D02*
X268235380Y-193158000D01*
X268378238Y-193253238D01*
X268473476Y-193348476D01*
X268521095Y-193443714D01*
X269330619Y-158153428D02*
X269283000Y-158248666D01*
X269187761Y-158343904D01*
X269044904Y-158486761D01*
X268997285Y-158582000D01*
X268997285Y-158677238D01*
X269235380Y-158629619D02*
X269187761Y-158724857D01*
X269092523Y-158820095D01*
X268902047Y-158867714D01*
X268568714Y-158867714D01*
X268378238Y-158820095D01*
X268283000Y-158724857D01*
X268235380Y-158629619D01*
X268235380Y-158439142D01*
X268283000Y-158343904D01*
X268378238Y-158248666D01*
X268568714Y-158201047D01*
X268902047Y-158201047D01*
X269092523Y-158248666D01*
X269187761Y-158343904D01*
X269235380Y-158439142D01*
X269235380Y-158629619D01*
X269235380Y-157248666D02*
X269235380Y-157820095D01*
X269235380Y-157534380D02*
X268235380Y-157534380D01*
X268378238Y-157629619D01*
X268473476Y-157724857D01*
X268521095Y-157820095D01*
X268235380Y-156629619D02*
X268235380Y-156534380D01*
X268283000Y-156439142D01*
X268330619Y-156391523D01*
X268425857Y-156343904D01*
X268616333Y-156296285D01*
X268854428Y-156296285D01*
X269044904Y-156343904D01*
X269140142Y-156391523D01*
X269187761Y-156439142D01*
X269235380Y-156534380D01*
X269235380Y-156629619D01*
X269187761Y-156724857D01*
X269140142Y-156772476D01*
X269044904Y-156820095D01*
X268854428Y-156867714D01*
X268616333Y-156867714D01*
X268425857Y-156820095D01*
X268330619Y-156772476D01*
X268283000Y-156724857D01*
X268235380Y-156629619D01*
X269330619Y-166313238D02*
X269283000Y-166408476D01*
X269187761Y-166503714D01*
X269044904Y-166646571D01*
X268997285Y-166741809D01*
X268997285Y-166837047D01*
X269235380Y-166789428D02*
X269187761Y-166884666D01*
X269092523Y-166979904D01*
X268902047Y-167027523D01*
X268568714Y-167027523D01*
X268378238Y-166979904D01*
X268283000Y-166884666D01*
X268235380Y-166789428D01*
X268235380Y-166598952D01*
X268283000Y-166503714D01*
X268378238Y-166408476D01*
X268568714Y-166360857D01*
X268902047Y-166360857D01*
X269092523Y-166408476D01*
X269187761Y-166503714D01*
X269235380Y-166598952D01*
X269235380Y-166789428D01*
X269235380Y-165884666D02*
X269235380Y-165694190D01*
X269187761Y-165598952D01*
X269140142Y-165551333D01*
X268997285Y-165456095D01*
X268806809Y-165408476D01*
X268425857Y-165408476D01*
X268330619Y-165456095D01*
X268283000Y-165503714D01*
X268235380Y-165598952D01*
X268235380Y-165789428D01*
X268283000Y-165884666D01*
X268330619Y-165932285D01*
X268425857Y-165979904D01*
X268663952Y-165979904D01*
X268759190Y-165932285D01*
X268806809Y-165884666D01*
X268854428Y-165789428D01*
X268854428Y-165598952D01*
X268806809Y-165503714D01*
X268759190Y-165456095D01*
X268663952Y-165408476D01*
X269330619Y-129737238D02*
X269283000Y-129832476D01*
X269187761Y-129927714D01*
X269044904Y-130070571D01*
X268997285Y-130165809D01*
X268997285Y-130261047D01*
X269235380Y-130213428D02*
X269187761Y-130308666D01*
X269092523Y-130403904D01*
X268902047Y-130451523D01*
X268568714Y-130451523D01*
X268378238Y-130403904D01*
X268283000Y-130308666D01*
X268235380Y-130213428D01*
X268235380Y-130022952D01*
X268283000Y-129927714D01*
X268378238Y-129832476D01*
X268568714Y-129784857D01*
X268902047Y-129784857D01*
X269092523Y-129832476D01*
X269187761Y-129927714D01*
X269235380Y-130022952D01*
X269235380Y-130213428D01*
X268663952Y-129213428D02*
X268616333Y-129308666D01*
X268568714Y-129356285D01*
X268473476Y-129403904D01*
X268425857Y-129403904D01*
X268330619Y-129356285D01*
X268283000Y-129308666D01*
X268235380Y-129213428D01*
X268235380Y-129022952D01*
X268283000Y-128927714D01*
X268330619Y-128880095D01*
X268425857Y-128832476D01*
X268473476Y-128832476D01*
X268568714Y-128880095D01*
X268616333Y-128927714D01*
X268663952Y-129022952D01*
X268663952Y-129213428D01*
X268711571Y-129308666D01*
X268759190Y-129356285D01*
X268854428Y-129403904D01*
X269044904Y-129403904D01*
X269140142Y-129356285D01*
X269187761Y-129308666D01*
X269235380Y-129213428D01*
X269235380Y-129022952D01*
X269187761Y-128927714D01*
X269140142Y-128880095D01*
X269044904Y-128832476D01*
X268854428Y-128832476D01*
X268759190Y-128880095D01*
X268711571Y-128927714D01*
X268663952Y-129022952D01*
X269330619Y-138373238D02*
X269283000Y-138468476D01*
X269187761Y-138563714D01*
X269044904Y-138706571D01*
X268997285Y-138801809D01*
X268997285Y-138897047D01*
X269235380Y-138849428D02*
X269187761Y-138944666D01*
X269092523Y-139039904D01*
X268902047Y-139087523D01*
X268568714Y-139087523D01*
X268378238Y-139039904D01*
X268283000Y-138944666D01*
X268235380Y-138849428D01*
X268235380Y-138658952D01*
X268283000Y-138563714D01*
X268378238Y-138468476D01*
X268568714Y-138420857D01*
X268902047Y-138420857D01*
X269092523Y-138468476D01*
X269187761Y-138563714D01*
X269235380Y-138658952D01*
X269235380Y-138849428D01*
X268235380Y-138087523D02*
X268235380Y-137420857D01*
X269235380Y-137849428D01*
X269330619Y-101797238D02*
X269283000Y-101892476D01*
X269187761Y-101987714D01*
X269044904Y-102130571D01*
X268997285Y-102225809D01*
X268997285Y-102321047D01*
X269235380Y-102273428D02*
X269187761Y-102368666D01*
X269092523Y-102463904D01*
X268902047Y-102511523D01*
X268568714Y-102511523D01*
X268378238Y-102463904D01*
X268283000Y-102368666D01*
X268235380Y-102273428D01*
X268235380Y-102082952D01*
X268283000Y-101987714D01*
X268378238Y-101892476D01*
X268568714Y-101844857D01*
X268902047Y-101844857D01*
X269092523Y-101892476D01*
X269187761Y-101987714D01*
X269235380Y-102082952D01*
X269235380Y-102273428D01*
X268235380Y-100987714D02*
X268235380Y-101178190D01*
X268283000Y-101273428D01*
X268330619Y-101321047D01*
X268473476Y-101416285D01*
X268663952Y-101463904D01*
X269044904Y-101463904D01*
X269140142Y-101416285D01*
X269187761Y-101368666D01*
X269235380Y-101273428D01*
X269235380Y-101082952D01*
X269187761Y-100987714D01*
X269140142Y-100940095D01*
X269044904Y-100892476D01*
X268806809Y-100892476D01*
X268711571Y-100940095D01*
X268663952Y-100987714D01*
X268616333Y-101082952D01*
X268616333Y-101273428D01*
X268663952Y-101368666D01*
X268711571Y-101416285D01*
X268806809Y-101463904D01*
X269330619Y-110433238D02*
X269283000Y-110528476D01*
X269187761Y-110623714D01*
X269044904Y-110766571D01*
X268997285Y-110861809D01*
X268997285Y-110957047D01*
X269235380Y-110909428D02*
X269187761Y-111004666D01*
X269092523Y-111099904D01*
X268902047Y-111147523D01*
X268568714Y-111147523D01*
X268378238Y-111099904D01*
X268283000Y-111004666D01*
X268235380Y-110909428D01*
X268235380Y-110718952D01*
X268283000Y-110623714D01*
X268378238Y-110528476D01*
X268568714Y-110480857D01*
X268902047Y-110480857D01*
X269092523Y-110528476D01*
X269187761Y-110623714D01*
X269235380Y-110718952D01*
X269235380Y-110909428D01*
X268235380Y-109576095D02*
X268235380Y-110052285D01*
X268711571Y-110099904D01*
X268663952Y-110052285D01*
X268616333Y-109957047D01*
X268616333Y-109718952D01*
X268663952Y-109623714D01*
X268711571Y-109576095D01*
X268806809Y-109528476D01*
X269044904Y-109528476D01*
X269140142Y-109576095D01*
X269187761Y-109623714D01*
X269235380Y-109718952D01*
X269235380Y-109957047D01*
X269187761Y-110052285D01*
X269140142Y-110099904D01*
X269330619Y-73856838D02*
X269283000Y-73952076D01*
X269187761Y-74047314D01*
X269044904Y-74190171D01*
X268997285Y-74285409D01*
X268997285Y-74380647D01*
X269235380Y-74333028D02*
X269187761Y-74428266D01*
X269092523Y-74523504D01*
X268902047Y-74571123D01*
X268568714Y-74571123D01*
X268378238Y-74523504D01*
X268283000Y-74428266D01*
X268235380Y-74333028D01*
X268235380Y-74142552D01*
X268283000Y-74047314D01*
X268378238Y-73952076D01*
X268568714Y-73904457D01*
X268902047Y-73904457D01*
X269092523Y-73952076D01*
X269187761Y-74047314D01*
X269235380Y-74142552D01*
X269235380Y-74333028D01*
X268568714Y-73047314D02*
X269235380Y-73047314D01*
X268187761Y-73285409D02*
X268902047Y-73523504D01*
X268902047Y-72904457D01*
X269330619Y-82492838D02*
X269283000Y-82588076D01*
X269187761Y-82683314D01*
X269044904Y-82826171D01*
X268997285Y-82921409D01*
X268997285Y-83016647D01*
X269235380Y-82969028D02*
X269187761Y-83064266D01*
X269092523Y-83159504D01*
X268902047Y-83207123D01*
X268568714Y-83207123D01*
X268378238Y-83159504D01*
X268283000Y-83064266D01*
X268235380Y-82969028D01*
X268235380Y-82778552D01*
X268283000Y-82683314D01*
X268378238Y-82588076D01*
X268568714Y-82540457D01*
X268902047Y-82540457D01*
X269092523Y-82588076D01*
X269187761Y-82683314D01*
X269235380Y-82778552D01*
X269235380Y-82969028D01*
X268235380Y-82207123D02*
X268235380Y-81588076D01*
X268616333Y-81921409D01*
X268616333Y-81778552D01*
X268663952Y-81683314D01*
X268711571Y-81635695D01*
X268806809Y-81588076D01*
X269044904Y-81588076D01*
X269140142Y-81635695D01*
X269187761Y-81683314D01*
X269235380Y-81778552D01*
X269235380Y-82064266D01*
X269187761Y-82159504D01*
X269140142Y-82207123D01*
X269330619Y-45916838D02*
X269283000Y-46012076D01*
X269187761Y-46107314D01*
X269044904Y-46250171D01*
X268997285Y-46345409D01*
X268997285Y-46440647D01*
X269235380Y-46393028D02*
X269187761Y-46488266D01*
X269092523Y-46583504D01*
X268902047Y-46631123D01*
X268568714Y-46631123D01*
X268378238Y-46583504D01*
X268283000Y-46488266D01*
X268235380Y-46393028D01*
X268235380Y-46202552D01*
X268283000Y-46107314D01*
X268378238Y-46012076D01*
X268568714Y-45964457D01*
X268902047Y-45964457D01*
X269092523Y-46012076D01*
X269187761Y-46107314D01*
X269235380Y-46202552D01*
X269235380Y-46393028D01*
X268330619Y-45583504D02*
X268283000Y-45535885D01*
X268235380Y-45440647D01*
X268235380Y-45202552D01*
X268283000Y-45107314D01*
X268330619Y-45059695D01*
X268425857Y-45012076D01*
X268521095Y-45012076D01*
X268663952Y-45059695D01*
X269235380Y-45631123D01*
X269235380Y-45012076D01*
X269330619Y-54552838D02*
X269283000Y-54648076D01*
X269187761Y-54743314D01*
X269044904Y-54886171D01*
X268997285Y-54981409D01*
X268997285Y-55076647D01*
X269235380Y-55029028D02*
X269187761Y-55124266D01*
X269092523Y-55219504D01*
X268902047Y-55267123D01*
X268568714Y-55267123D01*
X268378238Y-55219504D01*
X268283000Y-55124266D01*
X268235380Y-55029028D01*
X268235380Y-54838552D01*
X268283000Y-54743314D01*
X268378238Y-54648076D01*
X268568714Y-54600457D01*
X268902047Y-54600457D01*
X269092523Y-54648076D01*
X269187761Y-54743314D01*
X269235380Y-54838552D01*
X269235380Y-55029028D01*
X269235380Y-53648076D02*
X269235380Y-54219504D01*
X269235380Y-53933790D02*
X268235380Y-53933790D01*
X268378238Y-54029028D01*
X268473476Y-54124266D01*
X268521095Y-54219504D01*
X202849242Y-237281980D02*
X202515909Y-236805790D01*
X202277814Y-237281980D02*
X202277814Y-236281980D01*
X202658766Y-236281980D01*
X202754004Y-236329600D01*
X202801623Y-236377219D01*
X202849242Y-236472457D01*
X202849242Y-236615314D01*
X202801623Y-236710552D01*
X202754004Y-236758171D01*
X202658766Y-236805790D01*
X202277814Y-236805790D01*
X203801623Y-237281980D02*
X203230195Y-237281980D01*
X203515909Y-237281980D02*
X203515909Y-236281980D01*
X203420671Y-236424838D01*
X203325433Y-236520076D01*
X203230195Y-236567695D01*
X204658766Y-236281980D02*
X204468290Y-236281980D01*
X204373052Y-236329600D01*
X204325433Y-236377219D01*
X204230195Y-236520076D01*
X204182576Y-236710552D01*
X204182576Y-237091504D01*
X204230195Y-237186742D01*
X204277814Y-237234361D01*
X204373052Y-237281980D01*
X204563528Y-237281980D01*
X204658766Y-237234361D01*
X204706385Y-237186742D01*
X204754004Y-237091504D01*
X204754004Y-236853409D01*
X204706385Y-236758171D01*
X204658766Y-236710552D01*
X204563528Y-236662933D01*
X204373052Y-236662933D01*
X204277814Y-236710552D01*
X204230195Y-236758171D01*
X204182576Y-236853409D01*
X91584542Y-237421680D02*
X91251209Y-236945490D01*
X91013114Y-237421680D02*
X91013114Y-236421680D01*
X91394066Y-236421680D01*
X91489304Y-236469300D01*
X91536923Y-236516919D01*
X91584542Y-236612157D01*
X91584542Y-236755014D01*
X91536923Y-236850252D01*
X91489304Y-236897871D01*
X91394066Y-236945490D01*
X91013114Y-236945490D01*
X92536923Y-237421680D02*
X91965495Y-237421680D01*
X92251209Y-237421680D02*
X92251209Y-236421680D01*
X92155971Y-236564538D01*
X92060733Y-236659776D01*
X91965495Y-236707395D01*
X93441685Y-236421680D02*
X92965495Y-236421680D01*
X92917876Y-236897871D01*
X92965495Y-236850252D01*
X93060733Y-236802633D01*
X93298828Y-236802633D01*
X93394066Y-236850252D01*
X93441685Y-236897871D01*
X93489304Y-236993109D01*
X93489304Y-237231204D01*
X93441685Y-237326442D01*
X93394066Y-237374061D01*
X93298828Y-237421680D01*
X93060733Y-237421680D01*
X92965495Y-237374061D01*
X92917876Y-237326442D01*
X202773042Y-209380080D02*
X202439709Y-208903890D01*
X202201614Y-209380080D02*
X202201614Y-208380080D01*
X202582566Y-208380080D01*
X202677804Y-208427700D01*
X202725423Y-208475319D01*
X202773042Y-208570557D01*
X202773042Y-208713414D01*
X202725423Y-208808652D01*
X202677804Y-208856271D01*
X202582566Y-208903890D01*
X202201614Y-208903890D01*
X203725423Y-209380080D02*
X203153995Y-209380080D01*
X203439709Y-209380080D02*
X203439709Y-208380080D01*
X203344471Y-208522938D01*
X203249233Y-208618176D01*
X203153995Y-208665795D01*
X204582566Y-208713414D02*
X204582566Y-209380080D01*
X204344471Y-208332461D02*
X204106376Y-209046747D01*
X204725423Y-209046747D01*
X91432142Y-209481680D02*
X91098809Y-209005490D01*
X90860714Y-209481680D02*
X90860714Y-208481680D01*
X91241666Y-208481680D01*
X91336904Y-208529300D01*
X91384523Y-208576919D01*
X91432142Y-208672157D01*
X91432142Y-208815014D01*
X91384523Y-208910252D01*
X91336904Y-208957871D01*
X91241666Y-209005490D01*
X90860714Y-209005490D01*
X92384523Y-209481680D02*
X91813095Y-209481680D01*
X92098809Y-209481680D02*
X92098809Y-208481680D01*
X92003571Y-208624538D01*
X91908333Y-208719776D01*
X91813095Y-208767395D01*
X92717857Y-208481680D02*
X93336904Y-208481680D01*
X93003571Y-208862633D01*
X93146428Y-208862633D01*
X93241666Y-208910252D01*
X93289285Y-208957871D01*
X93336904Y-209053109D01*
X93336904Y-209291204D01*
X93289285Y-209386442D01*
X93241666Y-209434061D01*
X93146428Y-209481680D01*
X92860714Y-209481680D01*
X92765476Y-209434061D01*
X92717857Y-209386442D01*
X263647380Y-241028857D02*
X263171190Y-241362190D01*
X263647380Y-241600285D02*
X262647380Y-241600285D01*
X262647380Y-241219333D01*
X262695000Y-241124095D01*
X262742619Y-241076476D01*
X262837857Y-241028857D01*
X262980714Y-241028857D01*
X263075952Y-241076476D01*
X263123571Y-241124095D01*
X263171190Y-241219333D01*
X263171190Y-241600285D01*
X262980714Y-240171714D02*
X263647380Y-240171714D01*
X262599761Y-240409809D02*
X263314047Y-240647904D01*
X263314047Y-240028857D01*
X262647380Y-239457428D02*
X262647380Y-239362190D01*
X262695000Y-239266952D01*
X262742619Y-239219333D01*
X262837857Y-239171714D01*
X263028333Y-239124095D01*
X263266428Y-239124095D01*
X263456904Y-239171714D01*
X263552142Y-239219333D01*
X263599761Y-239266952D01*
X263647380Y-239362190D01*
X263647380Y-239457428D01*
X263599761Y-239552666D01*
X263552142Y-239600285D01*
X263456904Y-239647904D01*
X263266428Y-239695523D01*
X263028333Y-239695523D01*
X262837857Y-239647904D01*
X262742619Y-239600285D01*
X262695000Y-239552666D01*
X262647380Y-239457428D01*
X269489380Y-241028857D02*
X269013190Y-241362190D01*
X269489380Y-241600285D02*
X268489380Y-241600285D01*
X268489380Y-241219333D01*
X268537000Y-241124095D01*
X268584619Y-241076476D01*
X268679857Y-241028857D01*
X268822714Y-241028857D01*
X268917952Y-241076476D01*
X268965571Y-241124095D01*
X269013190Y-241219333D01*
X269013190Y-241600285D01*
X268489380Y-240695523D02*
X268489380Y-240076476D01*
X268870333Y-240409809D01*
X268870333Y-240266952D01*
X268917952Y-240171714D01*
X268965571Y-240124095D01*
X269060809Y-240076476D01*
X269298904Y-240076476D01*
X269394142Y-240124095D01*
X269441761Y-240171714D01*
X269489380Y-240266952D01*
X269489380Y-240552666D01*
X269441761Y-240647904D01*
X269394142Y-240695523D01*
X269489380Y-239600285D02*
X269489380Y-239409809D01*
X269441761Y-239314571D01*
X269394142Y-239266952D01*
X269251285Y-239171714D01*
X269060809Y-239124095D01*
X268679857Y-239124095D01*
X268584619Y-239171714D01*
X268537000Y-239219333D01*
X268489380Y-239314571D01*
X268489380Y-239505047D01*
X268537000Y-239600285D01*
X268584619Y-239647904D01*
X268679857Y-239695523D01*
X268917952Y-239695523D01*
X269013190Y-239647904D01*
X269060809Y-239600285D01*
X269108428Y-239505047D01*
X269108428Y-239314571D01*
X269060809Y-239219333D01*
X269013190Y-239171714D01*
X268917952Y-239124095D01*
X265346142Y-250236380D02*
X265012809Y-249760190D01*
X264774714Y-250236380D02*
X264774714Y-249236380D01*
X265155666Y-249236380D01*
X265250904Y-249284000D01*
X265298523Y-249331619D01*
X265346142Y-249426857D01*
X265346142Y-249569714D01*
X265298523Y-249664952D01*
X265250904Y-249712571D01*
X265155666Y-249760190D01*
X264774714Y-249760190D01*
X265679476Y-249236380D02*
X266298523Y-249236380D01*
X265965190Y-249617333D01*
X266108047Y-249617333D01*
X266203285Y-249664952D01*
X266250904Y-249712571D01*
X266298523Y-249807809D01*
X266298523Y-250045904D01*
X266250904Y-250141142D01*
X266203285Y-250188761D01*
X266108047Y-250236380D01*
X265822333Y-250236380D01*
X265727095Y-250188761D01*
X265679476Y-250141142D01*
X266869952Y-249664952D02*
X266774714Y-249617333D01*
X266727095Y-249569714D01*
X266679476Y-249474476D01*
X266679476Y-249426857D01*
X266727095Y-249331619D01*
X266774714Y-249284000D01*
X266869952Y-249236380D01*
X267060428Y-249236380D01*
X267155666Y-249284000D01*
X267203285Y-249331619D01*
X267250904Y-249426857D01*
X267250904Y-249474476D01*
X267203285Y-249569714D01*
X267155666Y-249617333D01*
X267060428Y-249664952D01*
X266869952Y-249664952D01*
X266774714Y-249712571D01*
X266727095Y-249760190D01*
X266679476Y-249855428D01*
X266679476Y-250045904D01*
X266727095Y-250141142D01*
X266774714Y-250188761D01*
X266869952Y-250236380D01*
X267060428Y-250236380D01*
X267155666Y-250188761D01*
X267203285Y-250141142D01*
X267250904Y-250045904D01*
X267250904Y-249855428D01*
X267203285Y-249760190D01*
X267155666Y-249712571D01*
X267060428Y-249664952D01*
X269489380Y-218422857D02*
X269013190Y-218756190D01*
X269489380Y-218994285D02*
X268489380Y-218994285D01*
X268489380Y-218613333D01*
X268537000Y-218518095D01*
X268584619Y-218470476D01*
X268679857Y-218422857D01*
X268822714Y-218422857D01*
X268917952Y-218470476D01*
X268965571Y-218518095D01*
X269013190Y-218613333D01*
X269013190Y-218994285D01*
X268489380Y-218089523D02*
X268489380Y-217470476D01*
X268870333Y-217803809D01*
X268870333Y-217660952D01*
X268917952Y-217565714D01*
X268965571Y-217518095D01*
X269060809Y-217470476D01*
X269298904Y-217470476D01*
X269394142Y-217518095D01*
X269441761Y-217565714D01*
X269489380Y-217660952D01*
X269489380Y-217946666D01*
X269441761Y-218041904D01*
X269394142Y-218089523D01*
X268489380Y-217137142D02*
X268489380Y-216470476D01*
X269489380Y-216899047D01*
X263355280Y-217521157D02*
X262879090Y-217854490D01*
X263355280Y-218092585D02*
X262355280Y-218092585D01*
X262355280Y-217711633D01*
X262402900Y-217616395D01*
X262450519Y-217568776D01*
X262545757Y-217521157D01*
X262688614Y-217521157D01*
X262783852Y-217568776D01*
X262831471Y-217616395D01*
X262879090Y-217711633D01*
X262879090Y-218092585D01*
X262355280Y-217187823D02*
X262355280Y-216568776D01*
X262736233Y-216902109D01*
X262736233Y-216759252D01*
X262783852Y-216664014D01*
X262831471Y-216616395D01*
X262926709Y-216568776D01*
X263164804Y-216568776D01*
X263260042Y-216616395D01*
X263307661Y-216664014D01*
X263355280Y-216759252D01*
X263355280Y-217044966D01*
X263307661Y-217140204D01*
X263260042Y-217187823D01*
X262355280Y-215711633D02*
X262355280Y-215902109D01*
X262402900Y-215997347D01*
X262450519Y-216044966D01*
X262593376Y-216140204D01*
X262783852Y-216187823D01*
X263164804Y-216187823D01*
X263260042Y-216140204D01*
X263307661Y-216092585D01*
X263355280Y-215997347D01*
X263355280Y-215806871D01*
X263307661Y-215711633D01*
X263260042Y-215664014D01*
X263164804Y-215616395D01*
X262926709Y-215616395D01*
X262831471Y-215664014D01*
X262783852Y-215711633D01*
X262736233Y-215806871D01*
X262736233Y-215997347D01*
X262783852Y-216092585D01*
X262831471Y-216140204D01*
X262926709Y-216187823D01*
X265346142Y-208834380D02*
X265012809Y-208358190D01*
X264774714Y-208834380D02*
X264774714Y-207834380D01*
X265155666Y-207834380D01*
X265250904Y-207882000D01*
X265298523Y-207929619D01*
X265346142Y-208024857D01*
X265346142Y-208167714D01*
X265298523Y-208262952D01*
X265250904Y-208310571D01*
X265155666Y-208358190D01*
X264774714Y-208358190D01*
X265679476Y-207834380D02*
X266298523Y-207834380D01*
X265965190Y-208215333D01*
X266108047Y-208215333D01*
X266203285Y-208262952D01*
X266250904Y-208310571D01*
X266298523Y-208405809D01*
X266298523Y-208643904D01*
X266250904Y-208739142D01*
X266203285Y-208786761D01*
X266108047Y-208834380D01*
X265822333Y-208834380D01*
X265727095Y-208786761D01*
X265679476Y-208739142D01*
X267203285Y-207834380D02*
X266727095Y-207834380D01*
X266679476Y-208310571D01*
X266727095Y-208262952D01*
X266822333Y-208215333D01*
X267060428Y-208215333D01*
X267155666Y-208262952D01*
X267203285Y-208310571D01*
X267250904Y-208405809D01*
X267250904Y-208643904D01*
X267203285Y-208739142D01*
X267155666Y-208786761D01*
X267060428Y-208834380D01*
X266822333Y-208834380D01*
X266727095Y-208786761D01*
X266679476Y-208739142D01*
X202887342Y-181452780D02*
X202554009Y-180976590D01*
X202315914Y-181452780D02*
X202315914Y-180452780D01*
X202696866Y-180452780D01*
X202792104Y-180500400D01*
X202839723Y-180548019D01*
X202887342Y-180643257D01*
X202887342Y-180786114D01*
X202839723Y-180881352D01*
X202792104Y-180928971D01*
X202696866Y-180976590D01*
X202315914Y-180976590D01*
X203839723Y-181452780D02*
X203268295Y-181452780D01*
X203554009Y-181452780D02*
X203554009Y-180452780D01*
X203458771Y-180595638D01*
X203363533Y-180690876D01*
X203268295Y-180738495D01*
X204220676Y-180548019D02*
X204268295Y-180500400D01*
X204363533Y-180452780D01*
X204601628Y-180452780D01*
X204696866Y-180500400D01*
X204744485Y-180548019D01*
X204792104Y-180643257D01*
X204792104Y-180738495D01*
X204744485Y-180881352D01*
X204173057Y-181452780D01*
X204792104Y-181452780D01*
X91749642Y-181643280D02*
X91416309Y-181167090D01*
X91178214Y-181643280D02*
X91178214Y-180643280D01*
X91559166Y-180643280D01*
X91654404Y-180690900D01*
X91702023Y-180738519D01*
X91749642Y-180833757D01*
X91749642Y-180976614D01*
X91702023Y-181071852D01*
X91654404Y-181119471D01*
X91559166Y-181167090D01*
X91178214Y-181167090D01*
X92702023Y-181643280D02*
X92130595Y-181643280D01*
X92416309Y-181643280D02*
X92416309Y-180643280D01*
X92321071Y-180786138D01*
X92225833Y-180881376D01*
X92130595Y-180928995D01*
X93654404Y-181643280D02*
X93082976Y-181643280D01*
X93368690Y-181643280D02*
X93368690Y-180643280D01*
X93273452Y-180786138D01*
X93178214Y-180881376D01*
X93082976Y-180928995D01*
X203103242Y-153588980D02*
X202769909Y-153112790D01*
X202531814Y-153588980D02*
X202531814Y-152588980D01*
X202912766Y-152588980D01*
X203008004Y-152636600D01*
X203055623Y-152684219D01*
X203103242Y-152779457D01*
X203103242Y-152922314D01*
X203055623Y-153017552D01*
X203008004Y-153065171D01*
X202912766Y-153112790D01*
X202531814Y-153112790D01*
X204055623Y-153588980D02*
X203484195Y-153588980D01*
X203769909Y-153588980D02*
X203769909Y-152588980D01*
X203674671Y-152731838D01*
X203579433Y-152827076D01*
X203484195Y-152874695D01*
X204674671Y-152588980D02*
X204769909Y-152588980D01*
X204865147Y-152636600D01*
X204912766Y-152684219D01*
X204960385Y-152779457D01*
X205008004Y-152969933D01*
X205008004Y-153208028D01*
X204960385Y-153398504D01*
X204912766Y-153493742D01*
X204865147Y-153541361D01*
X204769909Y-153588980D01*
X204674671Y-153588980D01*
X204579433Y-153541361D01*
X204531814Y-153493742D01*
X204484195Y-153398504D01*
X204436576Y-153208028D01*
X204436576Y-152969933D01*
X204484195Y-152779457D01*
X204531814Y-152684219D01*
X204579433Y-152636600D01*
X204674671Y-152588980D01*
X92175033Y-153639780D02*
X91841700Y-153163590D01*
X91603604Y-153639780D02*
X91603604Y-152639780D01*
X91984557Y-152639780D01*
X92079795Y-152687400D01*
X92127414Y-152735019D01*
X92175033Y-152830257D01*
X92175033Y-152973114D01*
X92127414Y-153068352D01*
X92079795Y-153115971D01*
X91984557Y-153163590D01*
X91603604Y-153163590D01*
X92651223Y-153639780D02*
X92841700Y-153639780D01*
X92936938Y-153592161D01*
X92984557Y-153544542D01*
X93079795Y-153401685D01*
X93127414Y-153211209D01*
X93127414Y-152830257D01*
X93079795Y-152735019D01*
X93032176Y-152687400D01*
X92936938Y-152639780D01*
X92746461Y-152639780D01*
X92651223Y-152687400D01*
X92603604Y-152735019D01*
X92555985Y-152830257D01*
X92555985Y-153068352D01*
X92603604Y-153163590D01*
X92651223Y-153211209D01*
X92746461Y-153258828D01*
X92936938Y-153258828D01*
X93032176Y-153211209D01*
X93079795Y-153163590D01*
X93127414Y-153068352D01*
X269489380Y-190482857D02*
X269013190Y-190816190D01*
X269489380Y-191054285D02*
X268489380Y-191054285D01*
X268489380Y-190673333D01*
X268537000Y-190578095D01*
X268584619Y-190530476D01*
X268679857Y-190482857D01*
X268822714Y-190482857D01*
X268917952Y-190530476D01*
X268965571Y-190578095D01*
X269013190Y-190673333D01*
X269013190Y-191054285D01*
X268489380Y-190149523D02*
X268489380Y-189530476D01*
X268870333Y-189863809D01*
X268870333Y-189720952D01*
X268917952Y-189625714D01*
X268965571Y-189578095D01*
X269060809Y-189530476D01*
X269298904Y-189530476D01*
X269394142Y-189578095D01*
X269441761Y-189625714D01*
X269489380Y-189720952D01*
X269489380Y-190006666D01*
X269441761Y-190101904D01*
X269394142Y-190149523D01*
X268822714Y-188673333D02*
X269489380Y-188673333D01*
X268441761Y-188911428D02*
X269156047Y-189149523D01*
X269156047Y-188530476D01*
X263355280Y-189581157D02*
X262879090Y-189914490D01*
X263355280Y-190152585D02*
X262355280Y-190152585D01*
X262355280Y-189771633D01*
X262402900Y-189676395D01*
X262450519Y-189628776D01*
X262545757Y-189581157D01*
X262688614Y-189581157D01*
X262783852Y-189628776D01*
X262831471Y-189676395D01*
X262879090Y-189771633D01*
X262879090Y-190152585D01*
X262355280Y-189247823D02*
X262355280Y-188628776D01*
X262736233Y-188962109D01*
X262736233Y-188819252D01*
X262783852Y-188724014D01*
X262831471Y-188676395D01*
X262926709Y-188628776D01*
X263164804Y-188628776D01*
X263260042Y-188676395D01*
X263307661Y-188724014D01*
X263355280Y-188819252D01*
X263355280Y-189104966D01*
X263307661Y-189200204D01*
X263260042Y-189247823D01*
X262355280Y-188295442D02*
X262355280Y-187676395D01*
X262736233Y-188009728D01*
X262736233Y-187866871D01*
X262783852Y-187771633D01*
X262831471Y-187724014D01*
X262926709Y-187676395D01*
X263164804Y-187676395D01*
X263260042Y-187724014D01*
X263307661Y-187771633D01*
X263355280Y-187866871D01*
X263355280Y-188152585D01*
X263307661Y-188247823D01*
X263260042Y-188295442D01*
X265346142Y-180894380D02*
X265012809Y-180418190D01*
X264774714Y-180894380D02*
X264774714Y-179894380D01*
X265155666Y-179894380D01*
X265250904Y-179942000D01*
X265298523Y-179989619D01*
X265346142Y-180084857D01*
X265346142Y-180227714D01*
X265298523Y-180322952D01*
X265250904Y-180370571D01*
X265155666Y-180418190D01*
X264774714Y-180418190D01*
X265679476Y-179894380D02*
X266298523Y-179894380D01*
X265965190Y-180275333D01*
X266108047Y-180275333D01*
X266203285Y-180322952D01*
X266250904Y-180370571D01*
X266298523Y-180465809D01*
X266298523Y-180703904D01*
X266250904Y-180799142D01*
X266203285Y-180846761D01*
X266108047Y-180894380D01*
X265822333Y-180894380D01*
X265727095Y-180846761D01*
X265679476Y-180799142D01*
X266679476Y-179989619D02*
X266727095Y-179942000D01*
X266822333Y-179894380D01*
X267060428Y-179894380D01*
X267155666Y-179942000D01*
X267203285Y-179989619D01*
X267250904Y-180084857D01*
X267250904Y-180180095D01*
X267203285Y-180322952D01*
X266631857Y-180894380D01*
X267250904Y-180894380D01*
X269489380Y-162542857D02*
X269013190Y-162876190D01*
X269489380Y-163114285D02*
X268489380Y-163114285D01*
X268489380Y-162733333D01*
X268537000Y-162638095D01*
X268584619Y-162590476D01*
X268679857Y-162542857D01*
X268822714Y-162542857D01*
X268917952Y-162590476D01*
X268965571Y-162638095D01*
X269013190Y-162733333D01*
X269013190Y-163114285D01*
X268489380Y-162209523D02*
X268489380Y-161590476D01*
X268870333Y-161923809D01*
X268870333Y-161780952D01*
X268917952Y-161685714D01*
X268965571Y-161638095D01*
X269060809Y-161590476D01*
X269298904Y-161590476D01*
X269394142Y-161638095D01*
X269441761Y-161685714D01*
X269489380Y-161780952D01*
X269489380Y-162066666D01*
X269441761Y-162161904D01*
X269394142Y-162209523D01*
X269489380Y-160638095D02*
X269489380Y-161209523D01*
X269489380Y-160923809D02*
X268489380Y-160923809D01*
X268632238Y-161019047D01*
X268727476Y-161114285D01*
X268775095Y-161209523D01*
X263355280Y-161641157D02*
X262879090Y-161974490D01*
X263355280Y-162212585D02*
X262355280Y-162212585D01*
X262355280Y-161831633D01*
X262402900Y-161736395D01*
X262450519Y-161688776D01*
X262545757Y-161641157D01*
X262688614Y-161641157D01*
X262783852Y-161688776D01*
X262831471Y-161736395D01*
X262879090Y-161831633D01*
X262879090Y-162212585D01*
X262355280Y-161307823D02*
X262355280Y-160688776D01*
X262736233Y-161022109D01*
X262736233Y-160879252D01*
X262783852Y-160784014D01*
X262831471Y-160736395D01*
X262926709Y-160688776D01*
X263164804Y-160688776D01*
X263260042Y-160736395D01*
X263307661Y-160784014D01*
X263355280Y-160879252D01*
X263355280Y-161164966D01*
X263307661Y-161260204D01*
X263260042Y-161307823D01*
X262355280Y-160069728D02*
X262355280Y-159974490D01*
X262402900Y-159879252D01*
X262450519Y-159831633D01*
X262545757Y-159784014D01*
X262736233Y-159736395D01*
X262974328Y-159736395D01*
X263164804Y-159784014D01*
X263260042Y-159831633D01*
X263307661Y-159879252D01*
X263355280Y-159974490D01*
X263355280Y-160069728D01*
X263307661Y-160164966D01*
X263260042Y-160212585D01*
X263164804Y-160260204D01*
X262974328Y-160307823D01*
X262736233Y-160307823D01*
X262545757Y-160260204D01*
X262450519Y-160212585D01*
X262402900Y-160164966D01*
X262355280Y-160069728D01*
X265346142Y-152954380D02*
X265012809Y-152478190D01*
X264774714Y-152954380D02*
X264774714Y-151954380D01*
X265155666Y-151954380D01*
X265250904Y-152002000D01*
X265298523Y-152049619D01*
X265346142Y-152144857D01*
X265346142Y-152287714D01*
X265298523Y-152382952D01*
X265250904Y-152430571D01*
X265155666Y-152478190D01*
X264774714Y-152478190D01*
X265727095Y-152049619D02*
X265774714Y-152002000D01*
X265869952Y-151954380D01*
X266108047Y-151954380D01*
X266203285Y-152002000D01*
X266250904Y-152049619D01*
X266298523Y-152144857D01*
X266298523Y-152240095D01*
X266250904Y-152382952D01*
X265679476Y-152954380D01*
X266298523Y-152954380D01*
X266774714Y-152954380D02*
X266965190Y-152954380D01*
X267060428Y-152906761D01*
X267108047Y-152859142D01*
X267203285Y-152716285D01*
X267250904Y-152525809D01*
X267250904Y-152144857D01*
X267203285Y-152049619D01*
X267155666Y-152002000D01*
X267060428Y-151954380D01*
X266869952Y-151954380D01*
X266774714Y-152002000D01*
X266727095Y-152049619D01*
X266679476Y-152144857D01*
X266679476Y-152382952D01*
X266727095Y-152478190D01*
X266774714Y-152525809D01*
X266869952Y-152573428D01*
X267060428Y-152573428D01*
X267155666Y-152525809D01*
X267203285Y-152478190D01*
X267250904Y-152382952D01*
X269489380Y-134602857D02*
X269013190Y-134936190D01*
X269489380Y-135174285D02*
X268489380Y-135174285D01*
X268489380Y-134793333D01*
X268537000Y-134698095D01*
X268584619Y-134650476D01*
X268679857Y-134602857D01*
X268822714Y-134602857D01*
X268917952Y-134650476D01*
X268965571Y-134698095D01*
X269013190Y-134793333D01*
X269013190Y-135174285D01*
X268584619Y-134221904D02*
X268537000Y-134174285D01*
X268489380Y-134079047D01*
X268489380Y-133840952D01*
X268537000Y-133745714D01*
X268584619Y-133698095D01*
X268679857Y-133650476D01*
X268775095Y-133650476D01*
X268917952Y-133698095D01*
X269489380Y-134269523D01*
X269489380Y-133650476D01*
X268917952Y-133079047D02*
X268870333Y-133174285D01*
X268822714Y-133221904D01*
X268727476Y-133269523D01*
X268679857Y-133269523D01*
X268584619Y-133221904D01*
X268537000Y-133174285D01*
X268489380Y-133079047D01*
X268489380Y-132888571D01*
X268537000Y-132793333D01*
X268584619Y-132745714D01*
X268679857Y-132698095D01*
X268727476Y-132698095D01*
X268822714Y-132745714D01*
X268870333Y-132793333D01*
X268917952Y-132888571D01*
X268917952Y-133079047D01*
X268965571Y-133174285D01*
X269013190Y-133221904D01*
X269108428Y-133269523D01*
X269298904Y-133269523D01*
X269394142Y-133221904D01*
X269441761Y-133174285D01*
X269489380Y-133079047D01*
X269489380Y-132888571D01*
X269441761Y-132793333D01*
X269394142Y-132745714D01*
X269298904Y-132698095D01*
X269108428Y-132698095D01*
X269013190Y-132745714D01*
X268965571Y-132793333D01*
X268917952Y-132888571D01*
X263393180Y-133713457D02*
X262916990Y-134046790D01*
X263393180Y-134284885D02*
X262393180Y-134284885D01*
X262393180Y-133903933D01*
X262440800Y-133808695D01*
X262488419Y-133761076D01*
X262583657Y-133713457D01*
X262726514Y-133713457D01*
X262821752Y-133761076D01*
X262869371Y-133808695D01*
X262916990Y-133903933D01*
X262916990Y-134284885D01*
X262488419Y-133332504D02*
X262440800Y-133284885D01*
X262393180Y-133189647D01*
X262393180Y-132951552D01*
X262440800Y-132856314D01*
X262488419Y-132808695D01*
X262583657Y-132761076D01*
X262678895Y-132761076D01*
X262821752Y-132808695D01*
X263393180Y-133380123D01*
X263393180Y-132761076D01*
X262393180Y-132427742D02*
X262393180Y-131761076D01*
X263393180Y-132189647D01*
X265346142Y-125014380D02*
X265012809Y-124538190D01*
X264774714Y-125014380D02*
X264774714Y-124014380D01*
X265155666Y-124014380D01*
X265250904Y-124062000D01*
X265298523Y-124109619D01*
X265346142Y-124204857D01*
X265346142Y-124347714D01*
X265298523Y-124442952D01*
X265250904Y-124490571D01*
X265155666Y-124538190D01*
X264774714Y-124538190D01*
X265727095Y-124109619D02*
X265774714Y-124062000D01*
X265869952Y-124014380D01*
X266108047Y-124014380D01*
X266203285Y-124062000D01*
X266250904Y-124109619D01*
X266298523Y-124204857D01*
X266298523Y-124300095D01*
X266250904Y-124442952D01*
X265679476Y-125014380D01*
X266298523Y-125014380D01*
X267155666Y-124014380D02*
X266965190Y-124014380D01*
X266869952Y-124062000D01*
X266822333Y-124109619D01*
X266727095Y-124252476D01*
X266679476Y-124442952D01*
X266679476Y-124823904D01*
X266727095Y-124919142D01*
X266774714Y-124966761D01*
X266869952Y-125014380D01*
X267060428Y-125014380D01*
X267155666Y-124966761D01*
X267203285Y-124919142D01*
X267250904Y-124823904D01*
X267250904Y-124585809D01*
X267203285Y-124490571D01*
X267155666Y-124442952D01*
X267060428Y-124395333D01*
X266869952Y-124395333D01*
X266774714Y-124442952D01*
X266727095Y-124490571D01*
X266679476Y-124585809D01*
X203947733Y-125458480D02*
X203614400Y-124982290D01*
X203376304Y-125458480D02*
X203376304Y-124458480D01*
X203757257Y-124458480D01*
X203852495Y-124506100D01*
X203900114Y-124553719D01*
X203947733Y-124648957D01*
X203947733Y-124791814D01*
X203900114Y-124887052D01*
X203852495Y-124934671D01*
X203757257Y-124982290D01*
X203376304Y-124982290D01*
X204519161Y-124887052D02*
X204423923Y-124839433D01*
X204376304Y-124791814D01*
X204328685Y-124696576D01*
X204328685Y-124648957D01*
X204376304Y-124553719D01*
X204423923Y-124506100D01*
X204519161Y-124458480D01*
X204709638Y-124458480D01*
X204804876Y-124506100D01*
X204852495Y-124553719D01*
X204900114Y-124648957D01*
X204900114Y-124696576D01*
X204852495Y-124791814D01*
X204804876Y-124839433D01*
X204709638Y-124887052D01*
X204519161Y-124887052D01*
X204423923Y-124934671D01*
X204376304Y-124982290D01*
X204328685Y-125077528D01*
X204328685Y-125268004D01*
X204376304Y-125363242D01*
X204423923Y-125410861D01*
X204519161Y-125458480D01*
X204709638Y-125458480D01*
X204804876Y-125410861D01*
X204852495Y-125363242D01*
X204900114Y-125268004D01*
X204900114Y-125077528D01*
X204852495Y-124982290D01*
X204804876Y-124934671D01*
X204709638Y-124887052D01*
X92149633Y-125725180D02*
X91816300Y-125248990D01*
X91578204Y-125725180D02*
X91578204Y-124725180D01*
X91959157Y-124725180D01*
X92054395Y-124772800D01*
X92102014Y-124820419D01*
X92149633Y-124915657D01*
X92149633Y-125058514D01*
X92102014Y-125153752D01*
X92054395Y-125201371D01*
X91959157Y-125248990D01*
X91578204Y-125248990D01*
X92482966Y-124725180D02*
X93149633Y-124725180D01*
X92721061Y-125725180D01*
X203947733Y-97607380D02*
X203614400Y-97131190D01*
X203376304Y-97607380D02*
X203376304Y-96607380D01*
X203757257Y-96607380D01*
X203852495Y-96655000D01*
X203900114Y-96702619D01*
X203947733Y-96797857D01*
X203947733Y-96940714D01*
X203900114Y-97035952D01*
X203852495Y-97083571D01*
X203757257Y-97131190D01*
X203376304Y-97131190D01*
X204804876Y-96607380D02*
X204614400Y-96607380D01*
X204519161Y-96655000D01*
X204471542Y-96702619D01*
X204376304Y-96845476D01*
X204328685Y-97035952D01*
X204328685Y-97416904D01*
X204376304Y-97512142D01*
X204423923Y-97559761D01*
X204519161Y-97607380D01*
X204709638Y-97607380D01*
X204804876Y-97559761D01*
X204852495Y-97512142D01*
X204900114Y-97416904D01*
X204900114Y-97178809D01*
X204852495Y-97083571D01*
X204804876Y-97035952D01*
X204709638Y-96988333D01*
X204519161Y-96988333D01*
X204423923Y-97035952D01*
X204376304Y-97083571D01*
X204328685Y-97178809D01*
X92162333Y-98039180D02*
X91829000Y-97562990D01*
X91590904Y-98039180D02*
X91590904Y-97039180D01*
X91971857Y-97039180D01*
X92067095Y-97086800D01*
X92114714Y-97134419D01*
X92162333Y-97229657D01*
X92162333Y-97372514D01*
X92114714Y-97467752D01*
X92067095Y-97515371D01*
X91971857Y-97562990D01*
X91590904Y-97562990D01*
X93067095Y-97039180D02*
X92590904Y-97039180D01*
X92543285Y-97515371D01*
X92590904Y-97467752D01*
X92686142Y-97420133D01*
X92924238Y-97420133D01*
X93019476Y-97467752D01*
X93067095Y-97515371D01*
X93114714Y-97610609D01*
X93114714Y-97848704D01*
X93067095Y-97943942D01*
X93019476Y-97991561D01*
X92924238Y-98039180D01*
X92686142Y-98039180D01*
X92590904Y-97991561D01*
X92543285Y-97943942D01*
X269489380Y-106662857D02*
X269013190Y-106996190D01*
X269489380Y-107234285D02*
X268489380Y-107234285D01*
X268489380Y-106853333D01*
X268537000Y-106758095D01*
X268584619Y-106710476D01*
X268679857Y-106662857D01*
X268822714Y-106662857D01*
X268917952Y-106710476D01*
X268965571Y-106758095D01*
X269013190Y-106853333D01*
X269013190Y-107234285D01*
X268584619Y-106281904D02*
X268537000Y-106234285D01*
X268489380Y-106139047D01*
X268489380Y-105900952D01*
X268537000Y-105805714D01*
X268584619Y-105758095D01*
X268679857Y-105710476D01*
X268775095Y-105710476D01*
X268917952Y-105758095D01*
X269489380Y-106329523D01*
X269489380Y-105710476D01*
X268489380Y-104805714D02*
X268489380Y-105281904D01*
X268965571Y-105329523D01*
X268917952Y-105281904D01*
X268870333Y-105186666D01*
X268870333Y-104948571D01*
X268917952Y-104853333D01*
X268965571Y-104805714D01*
X269060809Y-104758095D01*
X269298904Y-104758095D01*
X269394142Y-104805714D01*
X269441761Y-104853333D01*
X269489380Y-104948571D01*
X269489380Y-105186666D01*
X269441761Y-105281904D01*
X269394142Y-105329523D01*
X263355080Y-105748057D02*
X262878890Y-106081390D01*
X263355080Y-106319485D02*
X262355080Y-106319485D01*
X262355080Y-105938533D01*
X262402700Y-105843295D01*
X262450319Y-105795676D01*
X262545557Y-105748057D01*
X262688414Y-105748057D01*
X262783652Y-105795676D01*
X262831271Y-105843295D01*
X262878890Y-105938533D01*
X262878890Y-106319485D01*
X262450319Y-105367104D02*
X262402700Y-105319485D01*
X262355080Y-105224247D01*
X262355080Y-104986152D01*
X262402700Y-104890914D01*
X262450319Y-104843295D01*
X262545557Y-104795676D01*
X262640795Y-104795676D01*
X262783652Y-104843295D01*
X263355080Y-105414723D01*
X263355080Y-104795676D01*
X262688414Y-103938533D02*
X263355080Y-103938533D01*
X262307461Y-104176628D02*
X263021747Y-104414723D01*
X263021747Y-103795676D01*
X265346142Y-97073980D02*
X265012809Y-96597790D01*
X264774714Y-97073980D02*
X264774714Y-96073980D01*
X265155666Y-96073980D01*
X265250904Y-96121600D01*
X265298523Y-96169219D01*
X265346142Y-96264457D01*
X265346142Y-96407314D01*
X265298523Y-96502552D01*
X265250904Y-96550171D01*
X265155666Y-96597790D01*
X264774714Y-96597790D01*
X265727095Y-96169219D02*
X265774714Y-96121600D01*
X265869952Y-96073980D01*
X266108047Y-96073980D01*
X266203285Y-96121600D01*
X266250904Y-96169219D01*
X266298523Y-96264457D01*
X266298523Y-96359695D01*
X266250904Y-96502552D01*
X265679476Y-97073980D01*
X266298523Y-97073980D01*
X266631857Y-96073980D02*
X267250904Y-96073980D01*
X266917571Y-96454933D01*
X267060428Y-96454933D01*
X267155666Y-96502552D01*
X267203285Y-96550171D01*
X267250904Y-96645409D01*
X267250904Y-96883504D01*
X267203285Y-96978742D01*
X267155666Y-97026361D01*
X267060428Y-97073980D01*
X266774714Y-97073980D01*
X266679476Y-97026361D01*
X266631857Y-96978742D01*
X269489380Y-78722457D02*
X269013190Y-79055790D01*
X269489380Y-79293885D02*
X268489380Y-79293885D01*
X268489380Y-78912933D01*
X268537000Y-78817695D01*
X268584619Y-78770076D01*
X268679857Y-78722457D01*
X268822714Y-78722457D01*
X268917952Y-78770076D01*
X268965571Y-78817695D01*
X269013190Y-78912933D01*
X269013190Y-79293885D01*
X268584619Y-78341504D02*
X268537000Y-78293885D01*
X268489380Y-78198647D01*
X268489380Y-77960552D01*
X268537000Y-77865314D01*
X268584619Y-77817695D01*
X268679857Y-77770076D01*
X268775095Y-77770076D01*
X268917952Y-77817695D01*
X269489380Y-78389123D01*
X269489380Y-77770076D01*
X268584619Y-77389123D02*
X268537000Y-77341504D01*
X268489380Y-77246266D01*
X268489380Y-77008171D01*
X268537000Y-76912933D01*
X268584619Y-76865314D01*
X268679857Y-76817695D01*
X268775095Y-76817695D01*
X268917952Y-76865314D01*
X269489380Y-77436742D01*
X269489380Y-76817695D01*
X263393180Y-77820757D02*
X262916990Y-78154090D01*
X263393180Y-78392185D02*
X262393180Y-78392185D01*
X262393180Y-78011233D01*
X262440800Y-77915995D01*
X262488419Y-77868376D01*
X262583657Y-77820757D01*
X262726514Y-77820757D01*
X262821752Y-77868376D01*
X262869371Y-77915995D01*
X262916990Y-78011233D01*
X262916990Y-78392185D01*
X262488419Y-77439804D02*
X262440800Y-77392185D01*
X262393180Y-77296947D01*
X262393180Y-77058852D01*
X262440800Y-76963614D01*
X262488419Y-76915995D01*
X262583657Y-76868376D01*
X262678895Y-76868376D01*
X262821752Y-76915995D01*
X263393180Y-77487423D01*
X263393180Y-76868376D01*
X263393180Y-75915995D02*
X263393180Y-76487423D01*
X263393180Y-76201709D02*
X262393180Y-76201709D01*
X262536038Y-76296947D01*
X262631276Y-76392185D01*
X262678895Y-76487423D01*
X265346142Y-69133980D02*
X265012809Y-68657790D01*
X264774714Y-69133980D02*
X264774714Y-68133980D01*
X265155666Y-68133980D01*
X265250904Y-68181600D01*
X265298523Y-68229219D01*
X265346142Y-68324457D01*
X265346142Y-68467314D01*
X265298523Y-68562552D01*
X265250904Y-68610171D01*
X265155666Y-68657790D01*
X264774714Y-68657790D01*
X265727095Y-68229219D02*
X265774714Y-68181600D01*
X265869952Y-68133980D01*
X266108047Y-68133980D01*
X266203285Y-68181600D01*
X266250904Y-68229219D01*
X266298523Y-68324457D01*
X266298523Y-68419695D01*
X266250904Y-68562552D01*
X265679476Y-69133980D01*
X266298523Y-69133980D01*
X266917571Y-68133980D02*
X267012809Y-68133980D01*
X267108047Y-68181600D01*
X267155666Y-68229219D01*
X267203285Y-68324457D01*
X267250904Y-68514933D01*
X267250904Y-68753028D01*
X267203285Y-68943504D01*
X267155666Y-69038742D01*
X267108047Y-69086361D01*
X267012809Y-69133980D01*
X266917571Y-69133980D01*
X266822333Y-69086361D01*
X266774714Y-69038742D01*
X266727095Y-68943504D01*
X266679476Y-68753028D01*
X266679476Y-68514933D01*
X266727095Y-68324457D01*
X266774714Y-68229219D01*
X266822333Y-68181600D01*
X266917571Y-68133980D01*
X269489380Y-50782457D02*
X269013190Y-51115790D01*
X269489380Y-51353885D02*
X268489380Y-51353885D01*
X268489380Y-50972933D01*
X268537000Y-50877695D01*
X268584619Y-50830076D01*
X268679857Y-50782457D01*
X268822714Y-50782457D01*
X268917952Y-50830076D01*
X268965571Y-50877695D01*
X269013190Y-50972933D01*
X269013190Y-51353885D01*
X269489380Y-49830076D02*
X269489380Y-50401504D01*
X269489380Y-50115790D02*
X268489380Y-50115790D01*
X268632238Y-50211028D01*
X268727476Y-50306266D01*
X268775095Y-50401504D01*
X269489380Y-49353885D02*
X269489380Y-49163409D01*
X269441761Y-49068171D01*
X269394142Y-49020552D01*
X269251285Y-48925314D01*
X269060809Y-48877695D01*
X268679857Y-48877695D01*
X268584619Y-48925314D01*
X268537000Y-48972933D01*
X268489380Y-49068171D01*
X268489380Y-49258647D01*
X268537000Y-49353885D01*
X268584619Y-49401504D01*
X268679857Y-49449123D01*
X268917952Y-49449123D01*
X269013190Y-49401504D01*
X269060809Y-49353885D01*
X269108428Y-49258647D01*
X269108428Y-49068171D01*
X269060809Y-48972933D01*
X269013190Y-48925314D01*
X268917952Y-48877695D01*
X263393180Y-49880757D02*
X262916990Y-50214090D01*
X263393180Y-50452185D02*
X262393180Y-50452185D01*
X262393180Y-50071233D01*
X262440800Y-49975995D01*
X262488419Y-49928376D01*
X262583657Y-49880757D01*
X262726514Y-49880757D01*
X262821752Y-49928376D01*
X262869371Y-49975995D01*
X262916990Y-50071233D01*
X262916990Y-50452185D01*
X263393180Y-48928376D02*
X263393180Y-49499804D01*
X263393180Y-49214090D02*
X262393180Y-49214090D01*
X262536038Y-49309328D01*
X262631276Y-49404566D01*
X262678895Y-49499804D01*
X262821752Y-48356947D02*
X262774133Y-48452185D01*
X262726514Y-48499804D01*
X262631276Y-48547423D01*
X262583657Y-48547423D01*
X262488419Y-48499804D01*
X262440800Y-48452185D01*
X262393180Y-48356947D01*
X262393180Y-48166471D01*
X262440800Y-48071233D01*
X262488419Y-48023614D01*
X262583657Y-47975995D01*
X262631276Y-47975995D01*
X262726514Y-48023614D01*
X262774133Y-48071233D01*
X262821752Y-48166471D01*
X262821752Y-48356947D01*
X262869371Y-48452185D01*
X262916990Y-48499804D01*
X263012228Y-48547423D01*
X263202704Y-48547423D01*
X263297942Y-48499804D01*
X263345561Y-48452185D01*
X263393180Y-48356947D01*
X263393180Y-48166471D01*
X263345561Y-48071233D01*
X263297942Y-48023614D01*
X263202704Y-47975995D01*
X263012228Y-47975995D01*
X262916990Y-48023614D01*
X262869371Y-48071233D01*
X262821752Y-48166471D01*
X265346142Y-41193980D02*
X265012809Y-40717790D01*
X264774714Y-41193980D02*
X264774714Y-40193980D01*
X265155666Y-40193980D01*
X265250904Y-40241600D01*
X265298523Y-40289219D01*
X265346142Y-40384457D01*
X265346142Y-40527314D01*
X265298523Y-40622552D01*
X265250904Y-40670171D01*
X265155666Y-40717790D01*
X264774714Y-40717790D01*
X266298523Y-41193980D02*
X265727095Y-41193980D01*
X266012809Y-41193980D02*
X266012809Y-40193980D01*
X265917571Y-40336838D01*
X265822333Y-40432076D01*
X265727095Y-40479695D01*
X266631857Y-40193980D02*
X267298523Y-40193980D01*
X266869952Y-41193980D01*
X203846133Y-69718180D02*
X203512800Y-69241990D01*
X203274704Y-69718180D02*
X203274704Y-68718180D01*
X203655657Y-68718180D01*
X203750895Y-68765800D01*
X203798514Y-68813419D01*
X203846133Y-68908657D01*
X203846133Y-69051514D01*
X203798514Y-69146752D01*
X203750895Y-69194371D01*
X203655657Y-69241990D01*
X203274704Y-69241990D01*
X204703276Y-69051514D02*
X204703276Y-69718180D01*
X204465180Y-68670561D02*
X204227085Y-69384847D01*
X204846133Y-69384847D01*
X92149633Y-69807080D02*
X91816300Y-69330890D01*
X91578204Y-69807080D02*
X91578204Y-68807080D01*
X91959157Y-68807080D01*
X92054395Y-68854700D01*
X92102014Y-68902319D01*
X92149633Y-68997557D01*
X92149633Y-69140414D01*
X92102014Y-69235652D01*
X92054395Y-69283271D01*
X91959157Y-69330890D01*
X91578204Y-69330890D01*
X92482966Y-68807080D02*
X93102014Y-68807080D01*
X92768680Y-69188033D01*
X92911538Y-69188033D01*
X93006776Y-69235652D01*
X93054395Y-69283271D01*
X93102014Y-69378509D01*
X93102014Y-69616604D01*
X93054395Y-69711842D01*
X93006776Y-69759461D01*
X92911538Y-69807080D01*
X92625823Y-69807080D01*
X92530585Y-69759461D01*
X92482966Y-69711842D01*
X203922333Y-41714680D02*
X203589000Y-41238490D01*
X203350904Y-41714680D02*
X203350904Y-40714680D01*
X203731857Y-40714680D01*
X203827095Y-40762300D01*
X203874714Y-40809919D01*
X203922333Y-40905157D01*
X203922333Y-41048014D01*
X203874714Y-41143252D01*
X203827095Y-41190871D01*
X203731857Y-41238490D01*
X203350904Y-41238490D01*
X204303285Y-40809919D02*
X204350904Y-40762300D01*
X204446142Y-40714680D01*
X204684238Y-40714680D01*
X204779476Y-40762300D01*
X204827095Y-40809919D01*
X204874714Y-40905157D01*
X204874714Y-41000395D01*
X204827095Y-41143252D01*
X204255666Y-41714680D01*
X204874714Y-41714680D01*
X92149633Y-41778180D02*
X91816300Y-41301990D01*
X91578204Y-41778180D02*
X91578204Y-40778180D01*
X91959157Y-40778180D01*
X92054395Y-40825800D01*
X92102014Y-40873419D01*
X92149633Y-40968657D01*
X92149633Y-41111514D01*
X92102014Y-41206752D01*
X92054395Y-41254371D01*
X91959157Y-41301990D01*
X91578204Y-41301990D01*
X93102014Y-41778180D02*
X92530585Y-41778180D01*
X92816300Y-41778180D02*
X92816300Y-40778180D01*
X92721061Y-40921038D01*
X92625823Y-41016276D01*
X92530585Y-41063895D01*
X206532242Y-237186742D02*
X206484623Y-237234361D01*
X206341766Y-237281980D01*
X206246528Y-237281980D01*
X206103671Y-237234361D01*
X206008433Y-237139123D01*
X205960814Y-237043885D01*
X205913195Y-236853409D01*
X205913195Y-236710552D01*
X205960814Y-236520076D01*
X206008433Y-236424838D01*
X206103671Y-236329600D01*
X206246528Y-236281980D01*
X206341766Y-236281980D01*
X206484623Y-236329600D01*
X206532242Y-236377219D01*
X207484623Y-237281980D02*
X206913195Y-237281980D01*
X207198909Y-237281980D02*
X207198909Y-236281980D01*
X207103671Y-236424838D01*
X207008433Y-236520076D01*
X206913195Y-236567695D01*
X208341766Y-236281980D02*
X208151290Y-236281980D01*
X208056052Y-236329600D01*
X208008433Y-236377219D01*
X207913195Y-236520076D01*
X207865576Y-236710552D01*
X207865576Y-237091504D01*
X207913195Y-237186742D01*
X207960814Y-237234361D01*
X208056052Y-237281980D01*
X208246528Y-237281980D01*
X208341766Y-237234361D01*
X208389385Y-237186742D01*
X208437004Y-237091504D01*
X208437004Y-236853409D01*
X208389385Y-236758171D01*
X208341766Y-236710552D01*
X208246528Y-236662933D01*
X208056052Y-236662933D01*
X207960814Y-236710552D01*
X207913195Y-236758171D01*
X207865576Y-236853409D01*
X94924642Y-237326442D02*
X94877023Y-237374061D01*
X94734166Y-237421680D01*
X94638928Y-237421680D01*
X94496071Y-237374061D01*
X94400833Y-237278823D01*
X94353214Y-237183585D01*
X94305595Y-236993109D01*
X94305595Y-236850252D01*
X94353214Y-236659776D01*
X94400833Y-236564538D01*
X94496071Y-236469300D01*
X94638928Y-236421680D01*
X94734166Y-236421680D01*
X94877023Y-236469300D01*
X94924642Y-236516919D01*
X95877023Y-237421680D02*
X95305595Y-237421680D01*
X95591309Y-237421680D02*
X95591309Y-236421680D01*
X95496071Y-236564538D01*
X95400833Y-236659776D01*
X95305595Y-236707395D01*
X96781785Y-236421680D02*
X96305595Y-236421680D01*
X96257976Y-236897871D01*
X96305595Y-236850252D01*
X96400833Y-236802633D01*
X96638928Y-236802633D01*
X96734166Y-236850252D01*
X96781785Y-236897871D01*
X96829404Y-236993109D01*
X96829404Y-237231204D01*
X96781785Y-237326442D01*
X96734166Y-237374061D01*
X96638928Y-237421680D01*
X96400833Y-237421680D01*
X96305595Y-237374061D01*
X96257976Y-237326442D01*
X206494142Y-209259442D02*
X206446523Y-209307061D01*
X206303666Y-209354680D01*
X206208428Y-209354680D01*
X206065571Y-209307061D01*
X205970333Y-209211823D01*
X205922714Y-209116585D01*
X205875095Y-208926109D01*
X205875095Y-208783252D01*
X205922714Y-208592776D01*
X205970333Y-208497538D01*
X206065571Y-208402300D01*
X206208428Y-208354680D01*
X206303666Y-208354680D01*
X206446523Y-208402300D01*
X206494142Y-208449919D01*
X207446523Y-209354680D02*
X206875095Y-209354680D01*
X207160809Y-209354680D02*
X207160809Y-208354680D01*
X207065571Y-208497538D01*
X206970333Y-208592776D01*
X206875095Y-208640395D01*
X208303666Y-208688014D02*
X208303666Y-209354680D01*
X208065571Y-208307061D02*
X207827476Y-209021347D01*
X208446523Y-209021347D01*
X94975442Y-209386442D02*
X94927823Y-209434061D01*
X94784966Y-209481680D01*
X94689728Y-209481680D01*
X94546871Y-209434061D01*
X94451633Y-209338823D01*
X94404014Y-209243585D01*
X94356395Y-209053109D01*
X94356395Y-208910252D01*
X94404014Y-208719776D01*
X94451633Y-208624538D01*
X94546871Y-208529300D01*
X94689728Y-208481680D01*
X94784966Y-208481680D01*
X94927823Y-208529300D01*
X94975442Y-208576919D01*
X95927823Y-209481680D02*
X95356395Y-209481680D01*
X95642109Y-209481680D02*
X95642109Y-208481680D01*
X95546871Y-208624538D01*
X95451633Y-208719776D01*
X95356395Y-208767395D01*
X96261157Y-208481680D02*
X96880204Y-208481680D01*
X96546871Y-208862633D01*
X96689728Y-208862633D01*
X96784966Y-208910252D01*
X96832585Y-208957871D01*
X96880204Y-209053109D01*
X96880204Y-209291204D01*
X96832585Y-209386442D01*
X96784966Y-209434061D01*
X96689728Y-209481680D01*
X96404014Y-209481680D01*
X96308776Y-209434061D01*
X96261157Y-209386442D01*
X206595742Y-181395642D02*
X206548123Y-181443261D01*
X206405266Y-181490880D01*
X206310028Y-181490880D01*
X206167171Y-181443261D01*
X206071933Y-181348023D01*
X206024314Y-181252785D01*
X205976695Y-181062309D01*
X205976695Y-180919452D01*
X206024314Y-180728976D01*
X206071933Y-180633738D01*
X206167171Y-180538500D01*
X206310028Y-180490880D01*
X206405266Y-180490880D01*
X206548123Y-180538500D01*
X206595742Y-180586119D01*
X207548123Y-181490880D02*
X206976695Y-181490880D01*
X207262409Y-181490880D02*
X207262409Y-180490880D01*
X207167171Y-180633738D01*
X207071933Y-180728976D01*
X206976695Y-180776595D01*
X207929076Y-180586119D02*
X207976695Y-180538500D01*
X208071933Y-180490880D01*
X208310028Y-180490880D01*
X208405266Y-180538500D01*
X208452885Y-180586119D01*
X208500504Y-180681357D01*
X208500504Y-180776595D01*
X208452885Y-180919452D01*
X207881457Y-181490880D01*
X208500504Y-181490880D01*
X95089742Y-181522642D02*
X95042123Y-181570261D01*
X94899266Y-181617880D01*
X94804028Y-181617880D01*
X94661171Y-181570261D01*
X94565933Y-181475023D01*
X94518314Y-181379785D01*
X94470695Y-181189309D01*
X94470695Y-181046452D01*
X94518314Y-180855976D01*
X94565933Y-180760738D01*
X94661171Y-180665500D01*
X94804028Y-180617880D01*
X94899266Y-180617880D01*
X95042123Y-180665500D01*
X95089742Y-180713119D01*
X96042123Y-181617880D02*
X95470695Y-181617880D01*
X95756409Y-181617880D02*
X95756409Y-180617880D01*
X95661171Y-180760738D01*
X95565933Y-180855976D01*
X95470695Y-180903595D01*
X96994504Y-181617880D02*
X96423076Y-181617880D01*
X96708790Y-181617880D02*
X96708790Y-180617880D01*
X96613552Y-180760738D01*
X96518314Y-180855976D01*
X96423076Y-180903595D01*
X206633842Y-153493742D02*
X206586223Y-153541361D01*
X206443366Y-153588980D01*
X206348128Y-153588980D01*
X206205271Y-153541361D01*
X206110033Y-153446123D01*
X206062414Y-153350885D01*
X206014795Y-153160409D01*
X206014795Y-153017552D01*
X206062414Y-152827076D01*
X206110033Y-152731838D01*
X206205271Y-152636600D01*
X206348128Y-152588980D01*
X206443366Y-152588980D01*
X206586223Y-152636600D01*
X206633842Y-152684219D01*
X207586223Y-153588980D02*
X207014795Y-153588980D01*
X207300509Y-153588980D02*
X207300509Y-152588980D01*
X207205271Y-152731838D01*
X207110033Y-152827076D01*
X207014795Y-152874695D01*
X208205271Y-152588980D02*
X208300509Y-152588980D01*
X208395747Y-152636600D01*
X208443366Y-152684219D01*
X208490985Y-152779457D01*
X208538604Y-152969933D01*
X208538604Y-153208028D01*
X208490985Y-153398504D01*
X208443366Y-153493742D01*
X208395747Y-153541361D01*
X208300509Y-153588980D01*
X208205271Y-153588980D01*
X208110033Y-153541361D01*
X208062414Y-153493742D01*
X208014795Y-153398504D01*
X207967176Y-153208028D01*
X207967176Y-152969933D01*
X208014795Y-152779457D01*
X208062414Y-152684219D01*
X208110033Y-152636600D01*
X208205271Y-152588980D01*
X95553233Y-153544542D02*
X95505614Y-153592161D01*
X95362757Y-153639780D01*
X95267519Y-153639780D01*
X95124661Y-153592161D01*
X95029423Y-153496923D01*
X94981804Y-153401685D01*
X94934185Y-153211209D01*
X94934185Y-153068352D01*
X94981804Y-152877876D01*
X95029423Y-152782638D01*
X95124661Y-152687400D01*
X95267519Y-152639780D01*
X95362757Y-152639780D01*
X95505614Y-152687400D01*
X95553233Y-152735019D01*
X96029423Y-153639780D02*
X96219900Y-153639780D01*
X96315138Y-153592161D01*
X96362757Y-153544542D01*
X96457995Y-153401685D01*
X96505614Y-153211209D01*
X96505614Y-152830257D01*
X96457995Y-152735019D01*
X96410376Y-152687400D01*
X96315138Y-152639780D01*
X96124661Y-152639780D01*
X96029423Y-152687400D01*
X95981804Y-152735019D01*
X95934185Y-152830257D01*
X95934185Y-153068352D01*
X95981804Y-153163590D01*
X96029423Y-153211209D01*
X96124661Y-153258828D01*
X96315138Y-153258828D01*
X96410376Y-153211209D01*
X96457995Y-153163590D01*
X96505614Y-153068352D01*
X207084633Y-125401342D02*
X207037014Y-125448961D01*
X206894157Y-125496580D01*
X206798919Y-125496580D01*
X206656061Y-125448961D01*
X206560823Y-125353723D01*
X206513204Y-125258485D01*
X206465585Y-125068009D01*
X206465585Y-124925152D01*
X206513204Y-124734676D01*
X206560823Y-124639438D01*
X206656061Y-124544200D01*
X206798919Y-124496580D01*
X206894157Y-124496580D01*
X207037014Y-124544200D01*
X207084633Y-124591819D01*
X207656061Y-124925152D02*
X207560823Y-124877533D01*
X207513204Y-124829914D01*
X207465585Y-124734676D01*
X207465585Y-124687057D01*
X207513204Y-124591819D01*
X207560823Y-124544200D01*
X207656061Y-124496580D01*
X207846538Y-124496580D01*
X207941776Y-124544200D01*
X207989395Y-124591819D01*
X208037014Y-124687057D01*
X208037014Y-124734676D01*
X207989395Y-124829914D01*
X207941776Y-124877533D01*
X207846538Y-124925152D01*
X207656061Y-124925152D01*
X207560823Y-124972771D01*
X207513204Y-125020390D01*
X207465585Y-125115628D01*
X207465585Y-125306104D01*
X207513204Y-125401342D01*
X207560823Y-125448961D01*
X207656061Y-125496580D01*
X207846538Y-125496580D01*
X207941776Y-125448961D01*
X207989395Y-125401342D01*
X208037014Y-125306104D01*
X208037014Y-125115628D01*
X207989395Y-125020390D01*
X207941776Y-124972771D01*
X207846538Y-124925152D01*
X95654833Y-125655342D02*
X95607214Y-125702961D01*
X95464357Y-125750580D01*
X95369119Y-125750580D01*
X95226261Y-125702961D01*
X95131023Y-125607723D01*
X95083404Y-125512485D01*
X95035785Y-125322009D01*
X95035785Y-125179152D01*
X95083404Y-124988676D01*
X95131023Y-124893438D01*
X95226261Y-124798200D01*
X95369119Y-124750580D01*
X95464357Y-124750580D01*
X95607214Y-124798200D01*
X95654833Y-124845819D01*
X95988166Y-124750580D02*
X96654833Y-124750580D01*
X96226261Y-125750580D01*
X207122733Y-97512142D02*
X207075114Y-97559761D01*
X206932257Y-97607380D01*
X206837019Y-97607380D01*
X206694161Y-97559761D01*
X206598923Y-97464523D01*
X206551304Y-97369285D01*
X206503685Y-97178809D01*
X206503685Y-97035952D01*
X206551304Y-96845476D01*
X206598923Y-96750238D01*
X206694161Y-96655000D01*
X206837019Y-96607380D01*
X206932257Y-96607380D01*
X207075114Y-96655000D01*
X207122733Y-96702619D01*
X207979876Y-96607380D02*
X207789400Y-96607380D01*
X207694161Y-96655000D01*
X207646542Y-96702619D01*
X207551304Y-96845476D01*
X207503685Y-97035952D01*
X207503685Y-97416904D01*
X207551304Y-97512142D01*
X207598923Y-97559761D01*
X207694161Y-97607380D01*
X207884638Y-97607380D01*
X207979876Y-97559761D01*
X208027495Y-97512142D01*
X208075114Y-97416904D01*
X208075114Y-97178809D01*
X208027495Y-97083571D01*
X207979876Y-97035952D01*
X207884638Y-96988333D01*
X207694161Y-96988333D01*
X207598923Y-97035952D01*
X207551304Y-97083571D01*
X207503685Y-97178809D01*
X95845333Y-97918542D02*
X95797714Y-97966161D01*
X95654857Y-98013780D01*
X95559619Y-98013780D01*
X95416761Y-97966161D01*
X95321523Y-97870923D01*
X95273904Y-97775685D01*
X95226285Y-97585209D01*
X95226285Y-97442352D01*
X95273904Y-97251876D01*
X95321523Y-97156638D01*
X95416761Y-97061400D01*
X95559619Y-97013780D01*
X95654857Y-97013780D01*
X95797714Y-97061400D01*
X95845333Y-97109019D01*
X96750095Y-97013780D02*
X96273904Y-97013780D01*
X96226285Y-97489971D01*
X96273904Y-97442352D01*
X96369142Y-97394733D01*
X96607238Y-97394733D01*
X96702476Y-97442352D01*
X96750095Y-97489971D01*
X96797714Y-97585209D01*
X96797714Y-97823304D01*
X96750095Y-97918542D01*
X96702476Y-97966161D01*
X96607238Y-98013780D01*
X96369142Y-98013780D01*
X96273904Y-97966161D01*
X96226285Y-97918542D01*
X207262433Y-69622942D02*
X207214814Y-69670561D01*
X207071957Y-69718180D01*
X206976719Y-69718180D01*
X206833861Y-69670561D01*
X206738623Y-69575323D01*
X206691004Y-69480085D01*
X206643385Y-69289609D01*
X206643385Y-69146752D01*
X206691004Y-68956276D01*
X206738623Y-68861038D01*
X206833861Y-68765800D01*
X206976719Y-68718180D01*
X207071957Y-68718180D01*
X207214814Y-68765800D01*
X207262433Y-68813419D01*
X208119576Y-69051514D02*
X208119576Y-69718180D01*
X207881480Y-68670561D02*
X207643385Y-69384847D01*
X208262433Y-69384847D01*
X95477033Y-69711842D02*
X95429414Y-69759461D01*
X95286557Y-69807080D01*
X95191319Y-69807080D01*
X95048461Y-69759461D01*
X94953223Y-69664223D01*
X94905604Y-69568985D01*
X94857985Y-69378509D01*
X94857985Y-69235652D01*
X94905604Y-69045176D01*
X94953223Y-68949938D01*
X95048461Y-68854700D01*
X95191319Y-68807080D01*
X95286557Y-68807080D01*
X95429414Y-68854700D01*
X95477033Y-68902319D01*
X95810366Y-68807080D02*
X96429414Y-68807080D01*
X96096080Y-69188033D01*
X96238938Y-69188033D01*
X96334176Y-69235652D01*
X96381795Y-69283271D01*
X96429414Y-69378509D01*
X96429414Y-69616604D01*
X96381795Y-69711842D01*
X96334176Y-69759461D01*
X96238938Y-69807080D01*
X95953223Y-69807080D01*
X95857985Y-69759461D01*
X95810366Y-69711842D01*
X207084633Y-41657542D02*
X207037014Y-41705161D01*
X206894157Y-41752780D01*
X206798919Y-41752780D01*
X206656061Y-41705161D01*
X206560823Y-41609923D01*
X206513204Y-41514685D01*
X206465585Y-41324209D01*
X206465585Y-41181352D01*
X206513204Y-40990876D01*
X206560823Y-40895638D01*
X206656061Y-40800400D01*
X206798919Y-40752780D01*
X206894157Y-40752780D01*
X207037014Y-40800400D01*
X207084633Y-40848019D01*
X207465585Y-40848019D02*
X207513204Y-40800400D01*
X207608442Y-40752780D01*
X207846538Y-40752780D01*
X207941776Y-40800400D01*
X207989395Y-40848019D01*
X208037014Y-40943257D01*
X208037014Y-41038495D01*
X207989395Y-41181352D01*
X207417966Y-41752780D01*
X208037014Y-41752780D01*
X95705633Y-41657542D02*
X95658014Y-41705161D01*
X95515157Y-41752780D01*
X95419919Y-41752780D01*
X95277061Y-41705161D01*
X95181823Y-41609923D01*
X95134204Y-41514685D01*
X95086585Y-41324209D01*
X95086585Y-41181352D01*
X95134204Y-40990876D01*
X95181823Y-40895638D01*
X95277061Y-40800400D01*
X95419919Y-40752780D01*
X95515157Y-40752780D01*
X95658014Y-40800400D01*
X95705633Y-40848019D01*
X96658014Y-41752780D02*
X96086585Y-41752780D01*
X96372300Y-41752780D02*
X96372300Y-40752780D01*
X96277061Y-40895638D01*
X96181823Y-40990876D01*
X96086585Y-41038495D01*
X118597442Y-91098642D02*
X118549823Y-91146261D01*
X118406966Y-91193880D01*
X118311728Y-91193880D01*
X118168871Y-91146261D01*
X118073633Y-91051023D01*
X118026014Y-90955785D01*
X117978395Y-90765309D01*
X117978395Y-90622452D01*
X118026014Y-90431976D01*
X118073633Y-90336738D01*
X118168871Y-90241500D01*
X118311728Y-90193880D01*
X118406966Y-90193880D01*
X118549823Y-90241500D01*
X118597442Y-90289119D01*
X119549823Y-91193880D02*
X118978395Y-91193880D01*
X119264109Y-91193880D02*
X119264109Y-90193880D01*
X119168871Y-90336738D01*
X119073633Y-90431976D01*
X118978395Y-90479595D01*
X119883157Y-90193880D02*
X120549823Y-90193880D01*
X120121252Y-91193880D01*
M02*
